<svg width="270" height="36" viewBox="0 0 270 36" fill="none" xmlns="http://www.w3.org/2000/svg">
<path d="M270 18V2.24584C270 1.0055 268.995 0 267.754 0C266.514 0 265.508 1.0055 265.508 2.24584V12.2379C265.508 16.017 263.762 19.5841 260.778 21.9025L254.905 26.4642C250.941 29.5436 246.064 31.2152 241.045 31.2152H28.4388C23.1252 31.2152 17.9817 29.3425 13.912 25.9262L9.18022 21.9541C6.36626 19.592 4.74122 16.1061 4.74122 12.4322V2.37061C4.74122 1.06136 3.67986 0 2.37061 0C1.06136 0 0 1.06136 0 2.37061V18C0 27.9411 8.05887 36 18 36H252C261.941 36 270 27.9411 270 18Z" fill="#141413"/>
</svg>
