<svg width="14" height="14" viewBox="0 0 14 14" fill="none" xmlns="http://www.w3.org/2000/svg">
<path d="M13.6565 6.64863L10.8377 9.10863L11.6821 12.7711C11.7268 12.9626 11.714 13.163 11.6454 13.3472C11.5768 13.5315 11.4555 13.6914 11.2965 13.8071C11.1375 13.9227 10.9479 13.989 10.7515 13.9975C10.555 14.0059 10.3605 13.9564 10.1921 13.8549L6.99771 11.9174L3.81021 13.8549C3.64182 13.9564 3.44724 14.0059 3.25082 13.9975C3.05439 13.989 2.86483 13.9227 2.70583 13.8071C2.54683 13.6914 2.42545 13.5315 2.35686 13.3472C2.28828 13.163 2.27553 12.9626 2.32021 12.7711L3.16333 9.11238L0.343959 6.64863C0.19484 6.52002 0.0870106 6.35024 0.0339942 6.16059C-0.0190223 5.97094 -0.014866 5.76986 0.0459417 5.58257C0.106749 5.39527 0.221502 5.2301 0.375808 5.10776C0.530115 4.98542 0.717106 4.91137 0.913334 4.89488L4.62958 4.573L6.08021 1.113C6.15596 0.931448 6.28374 0.776367 6.44745 0.667286C6.61116 0.558205 6.80349 0.5 7.00021 0.5C7.19693 0.5 7.38926 0.558205 7.55297 0.667286C7.71668 0.776367 7.84446 0.931448 7.92021 1.113L9.37521 4.573L13.0902 4.89488C13.2864 4.91137 13.4734 4.98542 13.6277 5.10776C13.782 5.2301 13.8968 5.39527 13.9576 5.58257C14.0184 5.76986 14.0226 5.97094 13.9695 6.16059C13.9165 6.35024 13.8087 6.52002 13.6596 6.64863H13.6565Z" fill="black"/>
</svg>
