<svg width="40" height="39" viewBox="0 0 40 39" fill="none" xmlns="http://www.w3.org/2000/svg">
<path fill-rule="evenodd" clip-rule="evenodd" d="M28.8308 24.8583C29.5334 27.2434 30.9902 30.4606 30.3729 32.9195C29.388 36.8445 24.4386 34.3965 22.5257 32.9641C22.0179 32.5839 21.5139 32.1972 21.0286 31.7888C20.4508 31.3032 19.8808 30.8064 19.3308 30.2893C17.7527 32.1756 15.5143 34.2458 13.1704 35.086C11.2065 35.7898 9.57217 34.9263 9.20759 32.8354C8.77203 30.3393 9.48588 27.4913 10.1215 25.0884C8.22329 23.284 6.25281 21.4539 4.84515 19.2442C3.4922 17.1196 4.50369 15.1307 6.88284 14.586C7.6514 14.41 8.43872 14.3228 9.22541 14.2846C10.2847 14.2333 12.4519 14.3168 13.4784 14.3168C13.55 14.2756 13.7029 13.6454 13.7414 13.5382C14.0012 12.8097 14.2739 12.0909 14.5769 11.3789C14.8057 10.8418 15.039 10.3061 15.2782 9.77357C16.1293 7.87813 18.0204 2.77817 20.867 4.72114C21.1565 4.91875 21.3998 5.16734 21.6205 5.43718C21.9857 5.88305 22.2721 6.40918 22.5348 6.92009C23.0288 7.87907 23.4146 8.88775 23.807 9.89113C24.393 11.3892 24.8842 12.9385 25.5333 14.4115C25.5415 14.4296 25.5474 14.4488 25.5521 14.4678C26.5173 14.4916 27.4851 14.5085 28.4493 14.5567C30.553 14.6611 33.8424 14.1139 34.7654 16.2114C35.2644 17.3454 34.7123 18.5454 34.0347 19.465C32.658 21.3335 30.796 22.7752 28.9909 24.2023" fill="white"/>
<path d="M28.8308 24.8583C29.5334 27.2434 30.9902 30.4606 30.3729 32.9195C29.388 36.8445 24.4386 34.3965 22.5257 32.9641C22.0179 32.5839 21.5139 32.1972 21.0286 31.7888C20.4508 31.3032 19.8808 30.8064 19.3308 30.2893C17.7527 32.1756 15.5143 34.2458 13.1704 35.086C11.2065 35.7898 9.57217 34.9263 9.20759 32.8354C8.77203 30.3393 9.48588 27.4913 10.1215 25.0884C8.22329 23.284 6.25281 21.4539 4.84515 19.2442C3.4922 17.1196 4.50369 15.1307 6.88284 14.586C7.6514 14.41 8.43872 14.3228 9.22541 14.2846C10.2847 14.2333 12.4519 14.3168 13.4784 14.3168C13.55 14.2756 13.7029 13.6454 13.7414 13.5382C14.0012 12.8097 14.2739 12.0909 14.5769 11.3789C14.8057 10.8418 15.039 10.3061 15.2782 9.77357C16.1293 7.87813 18.0204 2.77817 20.867 4.72114C21.1565 4.91875 21.3998 5.16734 21.6205 5.43718C21.9857 5.88305 22.2721 6.40918 22.5348 6.92009C23.0288 7.87907 23.4146 8.88775 23.807 9.89113C24.393 11.3892 24.8842 12.9385 25.5333 14.4115C25.5415 14.4296 25.5474 14.4488 25.5521 14.4678C26.5173 14.4916 27.4851 14.5085 28.4493 14.5567C30.553 14.6611 33.8424 14.1139 34.7654 16.2114C35.2644 17.3454 34.7123 18.5454 34.0347 19.465C32.658 21.3335 30.796 22.7752 28.9909 24.2023" stroke="#059FB6" stroke-width="2.13444" stroke-miterlimit="1.5" stroke-linecap="round" stroke-linejoin="round"/>
<path d="M22.9238 7.7953C23.6568 7.07151 24.4527 6.37722 25.2424 5.71631" stroke="#059FB6" stroke-width="2.13444" stroke-miterlimit="1.5" stroke-linecap="round" stroke-linejoin="round"/>
<path d="M24.4741 11.6163C25.4798 10.6613 26.4732 9.70384 27.4968 8.7688" stroke="#059FB6" stroke-width="2.13444" stroke-miterlimit="1.5" stroke-linecap="round" stroke-linejoin="round"/>
<path d="M28.3906 14.5319C29.1826 13.6025 29.9821 12.6718 30.8349 11.7964" stroke="#059FB6" stroke-width="2.13444" stroke-miterlimit="1.5" stroke-linecap="round" stroke-linejoin="round"/>
<path d="M34.1235 15.3047C34.6936 14.8041 35.2502 14.2862 35.794 13.7573" stroke="#059FB6" stroke-width="2.13444" stroke-miterlimit="1.5" stroke-linecap="round" stroke-linejoin="round"/>
<path d="M29.4634 26.8003C29.964 26.3322 30.4655 25.8671 30.9959 25.4326" stroke="#059FB6" stroke-width="2.13444" stroke-miterlimit="1.5" stroke-linecap="round" stroke-linejoin="round"/>
<path d="M30.4893 32.1875C31.0426 31.6884 31.5945 31.1809 32.1776 30.7161" stroke="#059FB6" stroke-width="2.13444" stroke-miterlimit="1.5" stroke-linecap="round" stroke-linejoin="round"/>
<path d="M21.9468 32.5146C21.1771 33.4226 20.2919 34.1675 19.3643 34.9056" stroke="#059FB6" stroke-width="2.13444" stroke-miterlimit="1.5" stroke-linecap="round" stroke-linejoin="round"/>
</svg>
