<svg width="110" height="18" viewBox="0 0 110 18" fill="none" xmlns="http://www.w3.org/2000/svg">
<path d="M8.55696 14.5195L12.707 17.0295C13.467 17.4895 14.397 16.8095 14.197 15.9495L13.097 11.2295L16.767 8.04952C17.437 7.46952 17.077 6.36952 16.197 6.29952L11.367 5.88952L9.47696 1.42952C9.13696 0.619521 7.97696 0.619521 7.63696 1.42952L5.74696 5.87952L0.916957 6.28952C0.0369575 6.35952 -0.323043 7.45952 0.346957 8.03952L4.01696 11.2195L2.91696 15.9395C2.71696 16.7995 3.64696 17.4795 4.40696 17.0195L8.55696 14.5195Z" fill="#FFC830"/>
<path d="M31.6707 14.5195L35.8207 17.0295C36.5807 17.4895 37.5107 16.8095 37.3107 15.9495L36.2107 11.2295L39.8807 8.04952C40.5507 7.46952 40.1907 6.36952 39.3107 6.29952L34.4807 5.88952L32.5907 1.42952C32.2507 0.619521 31.0907 0.619521 30.7507 1.42952L28.8607 5.87952L24.0307 6.28952C23.1507 6.35952 22.7907 7.45952 23.4607 8.03952L27.1307 11.2195L26.0307 15.9395C25.8307 16.7995 26.7607 17.4795 27.5207 17.0195L31.6707 14.5195Z" fill="#FFC830"/>
<path d="M54.785 14.5195L58.935 17.0295C59.695 17.4895 60.625 16.8095 60.425 15.9495L59.325 11.2295L62.995 8.04952C63.665 7.46952 63.305 6.36952 62.425 6.29952L57.595 5.88952L55.705 1.42952C55.365 0.619521 54.205 0.619521 53.865 1.42952L51.975 5.87952L47.145 6.28952C46.265 6.35952 45.905 7.45952 46.575 8.03952L50.245 11.2195L49.145 15.9395C48.945 16.7995 49.875 17.4795 50.635 17.0195L54.785 14.5195Z" fill="#FFC830"/>
<path d="M77.8988 14.5195L82.0488 17.0295C82.8088 17.4895 83.7388 16.8095 83.5388 15.9495L82.4388 11.2295L86.1088 8.04952C86.7788 7.46952 86.4188 6.36952 85.5388 6.29952L80.7088 5.88952L78.8188 1.42952C78.4788 0.619521 77.3188 0.619521 76.9788 1.42952L75.0888 5.87952L70.2588 6.28952C69.3788 6.35952 69.0188 7.45952 69.6888 8.03952L73.3588 11.2195L72.2588 15.9395C72.0588 16.7995 72.9888 17.4795 73.7488 17.0195L77.8988 14.5195Z" fill="#FFC830"/>
<path d="M101.013 14.5195L105.163 17.0295C105.923 17.4895 106.853 16.8095 106.653 15.9495L105.553 11.2295L109.223 8.04952C109.893 7.46952 109.533 6.36952 108.653 6.29952L103.823 5.88952L101.933 1.42952C101.593 0.619521 100.433 0.619521 100.093 1.42952L98.2025 5.87952L93.3725 6.28952C92.4925 6.35952 92.1325 7.45952 92.8025 8.03952L96.4725 11.2195L95.3725 15.9395C95.1725 16.7995 96.1025 17.4795 96.8625 17.0195L101.013 14.5195Z" fill="#FFC830"/>
</svg>
