<svg width="16" height="16" viewBox="0 0 16 16" fill="none" xmlns="http://www.w3.org/2000/svg">
<path fill-rule="evenodd" clip-rule="evenodd" d="M7.43213 1.15264C6.97519 1.21292 6.4111 1.34241 5.60886 1.52771L4.69425 1.73906C4.01703 1.89534 3.54968 2.004 3.19321 2.12604C2.84865 2.24437 2.65368 2.36046 2.50707 2.50781C2.35972 2.65442 2.24363 2.8494 2.1253 3.19396C2.00325 3.55043 1.8946 4.01703 1.73832 4.69499L1.52697 5.60886C1.34167 6.41184 1.21218 6.97594 1.1519 7.43287C1.09236 7.8779 1.1065 8.1793 1.18539 8.45316C1.26353 8.72702 1.41162 8.98972 1.69739 9.33577C1.99135 9.69149 2.39991 10.1015 2.98261 10.6842L4.34448 12.0461C5.35583 13.0575 6.07547 13.7756 6.69463 14.2474C7.30041 14.7103 7.74394 14.8837 8.19418 14.8837C8.64516 14.8837 9.08795 14.7103 9.69447 14.2474C10.3129 13.7756 11.0333 13.0567 12.0446 12.0454C13.0567 11.0333 13.7749 10.3136 14.2474 9.69521C14.7088 9.0887 14.883 8.6459 14.883 8.19492C14.883 7.74469 14.7096 7.30189 14.2467 6.69538C13.7749 6.07621 13.056 5.35583 12.0446 4.34448L10.6828 2.98261C10.1008 2.40065 9.69075 1.99209 9.33577 1.69813C8.98897 1.41236 8.72628 1.26427 8.45241 1.18613C8.17855 1.10725 7.87715 1.09385 7.43287 1.15264M7.28701 0.0460297C7.82059 -0.0246684 8.28869 -0.0224359 8.76051 0.113007C9.23307 0.24845 9.63121 0.494777 10.0465 0.837105C10.4483 1.16901 10.8948 1.61553 11.4537 2.17442L12.8647 3.5854C13.8396 4.56029 14.6121 5.33276 15.1345 6.01891C15.6733 6.72366 16 7.40236 16 8.19492C16 8.98823 15.6733 9.66693 15.1353 10.3717C14.6121 11.0578 13.8404 11.8303 12.8647 12.8052L12.8052 12.8647C11.8303 13.8396 11.0578 14.6121 10.3717 15.1345C9.66693 15.6733 8.98749 16 8.19492 16C7.40236 16 6.72366 15.6733 6.01816 15.1352C5.33276 14.6121 4.56029 13.8404 3.58466 12.8647L2.17442 11.453C1.61627 10.8948 1.16901 10.4476 0.837105 10.0465C0.494777 9.63047 0.24845 9.23233 0.113007 8.76051C-0.0224359 8.28795 -0.0246685 7.81985 0.0460297 7.28627C0.113751 6.7698 0.256636 6.15361 0.433753 5.38411L0.657011 4.41443C0.805849 3.7722 0.926408 3.24828 1.07004 2.83079C1.22036 2.39395 1.40864 2.02707 1.71823 1.71748C2.02781 1.4079 2.39544 1.21887 2.83154 1.07004C3.24903 0.925664 3.77294 0.805105 4.41518 0.657011L5.38486 0.433753C6.15435 0.255147 6.77054 0.113751 7.28701 0.0452855M6.13128 5.01946C5.9568 4.84498 5.72016 4.74696 5.47342 4.74696C5.22667 4.74696 4.99003 4.84498 4.81555 5.01946C4.64107 5.19394 4.54305 5.43058 4.54305 5.67732C4.54305 5.92407 4.64107 6.16071 4.81555 6.33519C4.90194 6.42158 5.00451 6.49011 5.11738 6.53687C5.23026 6.58362 5.35124 6.60769 5.47342 6.60769C5.59559 6.60769 5.71657 6.58362 5.82945 6.53687C5.94233 6.49011 6.04489 6.42158 6.13128 6.33519C6.21767 6.2488 6.2862 6.14623 6.33296 6.03336C6.37971 5.92048 6.40378 5.7995 6.40378 5.67732C6.40378 5.55515 6.37971 5.43417 6.33296 5.32129C6.2862 5.20841 6.21767 5.10585 6.13128 5.01946ZM4.02671 4.23062C4.21628 4.03849 4.44198 3.88576 4.69082 3.78122C4.93966 3.67668 5.20672 3.62239 5.47663 3.62149C5.74653 3.62058 6.01395 3.67308 6.26349 3.77595C6.51302 3.87882 6.73974 4.03004 6.9306 4.22089C7.12145 4.41174 7.27267 4.63846 7.37554 4.888C7.47841 5.13753 7.5309 5.40495 7.53 5.67486C7.52909 5.94476 7.47481 6.21182 7.37027 6.46066C7.26573 6.7095 7.113 6.93521 6.92087 7.12478C6.53698 7.50866 6.01632 7.72433 5.47342 7.72433C4.93052 7.72433 4.40985 7.50866 4.02596 7.12478C3.64208 6.74089 3.42641 6.22022 3.42641 5.67732C3.42641 5.13442 3.64208 4.61376 4.02596 4.22987M13.2457 7.24831C13.3503 7.35296 13.409 7.49483 13.409 7.64273C13.409 7.79064 13.3503 7.9325 13.2457 8.03716L8.05204 13.2316C7.94623 13.3302 7.80629 13.3839 7.66169 13.3813C7.5171 13.3788 7.37913 13.3202 7.27687 13.2179C7.17461 13.1157 7.11603 12.9777 7.11348 12.8331C7.11093 12.6885 7.1646 12.5486 7.2632 12.4428L12.4562 7.24831C12.508 7.19645 12.5695 7.1553 12.6373 7.12723C12.705 7.09916 12.7776 7.08471 12.851 7.08471C12.9243 7.08471 12.9969 7.09916 13.0646 7.12723C13.1324 7.1553 13.1939 7.19645 13.2457 7.24831Z" fill="black"/>
</svg>
