<svg width="16" height="16" viewBox="0 0 16 16" fill="none" xmlns="http://www.w3.org/2000/svg">
<path d="M7.84519 0.470712C12.0463 0.470712 15.506 3.93044 15.506 8.13154C15.506 12.3635 12.0463 15.7924 7.84519 15.7924C3.6132 15.7924 0.184362 12.3635 0.184362 8.13154C0.184362 3.93044 3.6132 0.470712 7.84519 0.470712ZM12.8803 4.02311C12.7568 4.20845 11.6756 5.59852 9.23526 6.58702C9.48238 7.08126 9.63683 7.45195 9.82218 7.88441C11.9845 7.6064 14.1468 8.03887 14.3631 8.10065C14.3631 6.55613 13.807 5.13517 12.8803 4.02311ZM12.1698 3.25085C10.5635 1.82989 8.37033 1.30475 6.30067 1.799C6.48601 2.04612 7.65985 3.65243 8.74101 5.62941C11.0578 4.76448 12.0463 3.43619 12.1698 3.25085ZM5.03416 2.23147C3.21162 3.0964 1.85245 4.79537 1.41998 6.80325C1.72888 6.83414 4.41635 6.83414 7.4745 6.03099C6.39334 4.08489 5.2195 2.47859 5.03416 2.23147ZM1.29642 8.16243C1.29642 9.83051 1.91423 11.375 2.9645 12.518C4.01478 10.7263 6.17711 8.81113 8.55567 8.13154C8.37033 7.76085 8.21587 7.39017 7.99964 7.01948C4.75615 8.00798 1.57443 7.97709 1.29642 7.9462C1.29642 8.03887 1.29642 8.10065 1.29642 8.16243ZM3.79854 13.3211C5.74464 14.8348 8.27765 15.0819 10.3782 14.1861C10.2855 13.5991 9.91485 11.5913 8.98813 9.2127C6.36245 10.1085 4.50902 11.9311 3.79854 13.3211ZM11.4903 13.5683C12.9421 12.5798 13.9924 11.0043 14.3013 9.18181C14.0542 9.12003 12.2625 8.59489 10.2238 8.9038C11.0578 11.2824 11.4285 13.1976 11.4903 13.5683Z" fill="#141413"/>
</svg>
