<svg width="17" height="17" viewBox="0 0 17 17" fill="none" xmlns="http://www.w3.org/2000/svg">
<g clip-path="url(#clip0_473_667)">
<path d="M8.5 7.08333C7.93641 7.08333 7.39591 6.85945 6.9974 6.46094C6.59888 6.06242 6.375 5.52192 6.375 4.95833C6.375 4.39475 6.59888 3.85425 6.9974 3.45573C7.39591 3.05722 7.93641 2.83333 8.5 2.83333C9.06358 2.83333 9.60409 3.05722 10.0026 3.45573C10.4011 3.85425 10.625 4.39475 10.625 4.95833C10.625 5.52192 10.4011 6.06242 10.0026 6.46094C9.60409 6.85945 9.06358 7.08333 8.5 7.08333ZM6.35233 10.8014C6.49799 10.3463 6.78446 9.94926 7.17041 9.66756C7.55636 9.38586 8.02182 9.23405 8.49965 9.23405C8.97747 9.23405 9.44293 9.38586 9.82888 9.66756C10.2148 9.94926 10.5013 10.3463 10.647 10.8014C10.6939 10.9834 10.8113 11.1393 10.9732 11.2348C11.1351 11.3304 11.3284 11.3576 11.5104 11.3107C11.6925 11.2637 11.8484 11.1463 11.9439 10.9844C12.0394 10.8225 12.0667 10.6292 12.0197 10.4472C11.0911 6.94308 5.90679 6.9445 4.981 10.4472C4.95543 10.538 4.94824 10.633 4.95987 10.7266C4.9715 10.8202 5.0017 10.9105 5.04871 10.9923C5.09572 11.0741 5.15859 11.1456 5.23362 11.2028C5.30866 11.2599 5.39435 11.3015 5.48568 11.3251C5.577 11.3487 5.67211 11.3538 5.76544 11.3401C5.85876 11.3264 5.94842 11.2943 6.02915 11.2455C6.10987 11.1967 6.18004 11.1323 6.23554 11.056C6.29104 10.9798 6.33075 10.8932 6.35233 10.8014ZM8.50637 16.7627C8.15692 16.7629 7.81959 16.6346 7.55862 16.4022L4.90379 14.1667H2.83333C2.08189 14.1667 1.36122 13.8682 0.829864 13.3368C0.298511 12.8054 0 12.0848 0 11.3333L0 2.83333C0 2.08189 0.298511 1.36122 0.829864 0.829864C1.36122 0.298511 2.08189 0 2.83333 0L14.1667 0C14.9181 0 15.6388 0.298511 16.1701 0.829864C16.7015 1.36122 17 2.08189 17 2.83333V11.3333C17 12.0848 16.7015 12.8054 16.1701 13.3368C15.6388 13.8682 14.9181 14.1667 14.1667 14.1667H12.1458L9.42083 16.4192C9.16838 16.6418 8.84298 16.7641 8.50637 16.7627ZM2.83333 1.41667C2.45761 1.41667 2.09728 1.56592 1.8316 1.8316C1.56592 2.09728 1.41667 2.45761 1.41667 2.83333V11.3333C1.41667 11.7091 1.56592 12.0694 1.8316 12.3351C2.09728 12.6007 2.45761 12.75 2.83333 12.75H5.16304C5.32996 12.75 5.49152 12.809 5.61921 12.9165L8.48512 15.3319L11.4403 12.9122C11.5673 12.8073 11.7268 12.75 11.8915 12.75H14.1667C14.5424 12.75 14.9027 12.6007 15.1684 12.3351C15.4341 12.0694 15.5833 11.7091 15.5833 11.3333V2.83333C15.5833 2.45761 15.4341 2.09728 15.1684 1.8316C14.9027 1.56592 14.5424 1.41667 14.1667 1.41667H2.83333Z" fill="#141413"/>
</g>
<defs>
<clipPath id="clip0_473_667">
<rect width="17" height="17" fill="white"/>
</clipPath>
</defs>
</svg>
