<svg width="21" height="21" viewBox="0 0 21 21" fill="none" xmlns="http://www.w3.org/2000/svg">
<g clip-path="url(#clip0_578_834)">
<mask id="path-1-inside-1_578_834" fill="white">
<path d="M19.8923 8.34907C18.5998 6.24407 15.6598 2.7124 10.4998 2.7124C5.3398 2.7124 2.3998 6.24407 1.1073 8.34907C0.707739 8.99532 0.496094 9.7401 0.496094 10.4999C0.496094 11.2597 0.707739 12.0045 1.1073 12.6507C2.3998 14.7557 5.3398 18.2874 10.4998 18.2874C15.6598 18.2874 18.5998 14.7557 19.8923 12.6507C20.2919 12.0045 20.5035 11.2597 20.5035 10.4999C20.5035 9.7401 20.2919 8.99532 19.8923 8.34907ZM18.4715 11.7782C17.3615 13.5832 14.849 16.6207 10.4998 16.6207C6.15063 16.6207 3.63813 13.5832 2.52813 11.7782C2.29074 11.3941 2.16501 10.9515 2.16501 10.4999C2.16501 10.0483 2.29074 9.6057 2.52813 9.22157C3.63813 7.41657 6.15063 4.37907 10.4998 4.37907C14.849 4.37907 17.3615 7.41324 18.4715 9.22157C18.7089 9.6057 18.8346 10.0483 18.8346 10.4999C18.8346 10.9515 18.7089 11.3941 18.4715 11.7782Z"/>
</mask>
<path d="M19.8923 8.34907C18.5998 6.24407 15.6598 2.7124 10.4998 2.7124C5.3398 2.7124 2.3998 6.24407 1.1073 8.34907C0.707739 8.99532 0.496094 9.7401 0.496094 10.4999C0.496094 11.2597 0.707739 12.0045 1.1073 12.6507C2.3998 14.7557 5.3398 18.2874 10.4998 18.2874C15.6598 18.2874 18.5998 14.7557 19.8923 12.6507C20.2919 12.0045 20.5035 11.2597 20.5035 10.4999C20.5035 9.7401 20.2919 8.99532 19.8923 8.34907ZM18.4715 11.7782C17.3615 13.5832 14.849 16.6207 10.4998 16.6207C6.15063 16.6207 3.63813 13.5832 2.52813 11.7782C2.29074 11.3941 2.16501 10.9515 2.16501 10.4999C2.16501 10.0483 2.29074 9.6057 2.52813 9.22157C3.63813 7.41657 6.15063 4.37907 10.4998 4.37907C14.849 4.37907 17.3615 7.41324 18.4715 9.22157C18.7089 9.6057 18.8346 10.0483 18.8346 10.4999C18.8346 10.9515 18.7089 11.3941 18.4715 11.7782Z" fill="#00CBA0"/>
<path d="M1.1073 8.34907L19.2526 19.5678L19.2699 19.5398L19.2871 19.5117L1.1073 8.34907ZM1.1073 12.6507L19.2871 1.48807L19.2699 1.46003L19.2526 1.43205L1.1073 12.6507ZM19.8923 12.6507L1.74699 1.43205L1.72969 1.46003L1.71248 1.48807L19.8923 12.6507ZM2.52813 11.7782L20.7003 0.603109L20.688 0.583166L20.6757 0.563249L2.52813 11.7782ZM2.52813 9.22157L20.6757 20.4366L20.688 20.4166L20.7003 20.3967L2.52813 9.22157ZM18.4715 9.22157L0.290107 20.3817L0.306947 20.4092L0.32387 20.4366L18.4715 9.22157ZM38.0721 -2.8136C35.351 -7.24531 26.7897 -18.6209 10.4998 -18.6209V24.0457C7.83868 24.0457 5.49278 23.0323 3.91848 21.8619C2.59763 20.8799 1.96216 19.9184 1.71248 19.5117L38.0721 -2.8136ZM10.4998 -18.6209C-5.79009 -18.6209 -14.3514 -7.24531 -17.0725 -2.8136L19.2871 19.5117C19.0374 19.9184 18.402 20.8799 17.0811 21.8619C15.5068 23.0323 13.1609 24.0457 10.4998 24.0457V-18.6209ZM-17.038 -2.86962C-19.5217 1.14749 -20.8372 5.77702 -20.8372 10.4999H21.8294C21.8294 13.7032 20.9371 16.8432 19.2526 19.5678L-17.038 -2.86962ZM-20.8372 10.4999C-20.8372 15.2228 -19.5217 19.8523 -17.038 23.8694L19.2526 1.43205C20.9371 4.15664 21.8294 7.29661 21.8294 10.4999H-20.8372ZM-17.0725 23.8134C-14.3514 28.2451 -5.79009 39.6207 10.4998 39.6207V-3.04593C13.1609 -3.04593 15.5068 -2.03246 17.0811 -0.862076C18.402 0.119877 19.0374 1.08142 19.2871 1.48807L-17.0725 23.8134ZM10.4998 39.6207C26.7897 39.6207 35.351 28.2451 38.0721 23.8134L1.71248 1.48807C1.96216 1.08142 2.59764 0.119877 3.91848 -0.862075C5.49278 -2.03246 7.83869 -3.04593 10.4998 -3.04593V39.6207ZM38.0376 23.8694C40.5213 19.8523 41.8368 15.2228 41.8368 10.4999H-0.829831C-0.829831 7.29661 0.06246 4.15664 1.74699 1.43205L38.0376 23.8694ZM41.8368 10.4999C41.8368 5.77701 40.5213 1.14748 38.0376 -2.86962L1.74699 19.5678C0.06246 16.8432 -0.829831 13.7032 -0.829831 10.4999H41.8368ZM0.299298 0.603109C0.612036 0.094557 1.37042 -1.04043 2.88276 -2.17712C4.6443 -3.50112 7.32711 -4.7126 10.4998 -4.7126V37.9541C26.1103 37.9541 34.2229 26.8897 36.6436 22.9534L0.299298 0.603109ZM10.4998 -4.7126C13.6725 -4.7126 16.3553 -3.50112 18.1168 -2.17712C19.6292 -1.04043 20.3876 0.0945566 20.7003 0.603109L-15.644 22.9534C-13.2233 26.8897 -5.11065 37.9541 10.4998 37.9541V-4.7126ZM20.6757 0.563249C22.521 3.54914 23.4983 6.98985 23.4983 10.4999H-19.1683C-19.1683 14.9131 -17.9395 19.2391 -15.6195 22.9932L20.6757 0.563249ZM23.4983 10.4999C23.4983 14.01 22.521 17.4507 20.6757 20.4366L-15.6195 -1.99342C-17.9395 1.76073 -19.1683 6.08673 -19.1683 10.4999H23.4983ZM20.7003 20.3967C20.3876 20.9052 19.6292 22.0402 18.1168 23.1769C16.3553 24.5009 13.6725 25.7124 10.4998 25.7124V-16.9543C-5.11066 -16.9543 -13.2234 -5.8899 -15.644 -1.95356L20.7003 20.3967ZM10.4998 25.7124C7.3332 25.7124 4.65131 24.5044 2.88622 23.1783C1.37052 22.0395 0.608551 20.9005 0.290107 20.3817L36.6528 -1.9386C34.218 -5.90516 26.1028 -16.9543 10.4998 -16.9543V25.7124ZM0.32387 20.4366C-1.52138 17.4507 -2.49874 14.0099 -2.49874 10.4999H40.1679C40.1679 6.08674 38.9391 1.76074 36.6191 -1.99342L0.32387 20.4366ZM-2.49874 10.4999C-2.49874 6.98987 -1.52138 3.54915 0.32387 0.563249L36.6191 22.9932C38.9391 19.2391 40.1679 14.9131 40.1679 10.4999H-2.49874Z" fill="#00CBA0" mask="url(#path-1-inside-1_578_834)"/>
<path d="M12.0936 6.65159C11.8422 6.54726 11.5805 6.46752 11.3124 6.41391M12.0936 6.65159L11.3124 6.41391M12.0936 6.65159C12.345 6.75591 12.5862 6.88483 12.8135 7.03681C13.0386 7.18735 13.2502 7.36053 13.4445 7.55486C13.6388 7.74918 13.812 7.96071 13.9625 8.18586C14.1145 8.41316 14.2434 8.65435 14.3478 8.90575C14.4521 9.15717 14.5318 9.41881 14.5854 9.68697C14.6385 9.95266 14.666 10.2248 14.6663 10.4997M12.0936 6.65159L10.4997 14.6663M11.3124 6.41391L10.9874 8.04771M11.3124 6.41391L10.9874 8.04771M10.4997 6.33301C10.2254 6.33301 9.95321 6.36007 9.6868 6.41307C9.41912 6.46631 9.15731 6.54573 8.90516 6.65017L9.54297 8.18997C9.69354 8.12761 9.85056 8.07981 10.012 8.04771C10.1727 8.01574 10.3354 7.9998 10.4977 7.99967L10.4997 6.33301ZM10.4997 6.33301C10.7746 6.33334 11.0467 6.3608 11.3124 6.41391L10.9874 8.04771C10.8268 8.01576 10.6634 7.99967 10.4997 7.99967V6.33301ZM9.11075 8.421C9.2469 8.33002 9.39168 8.25264 9.54297 8.18998L8.90516 6.65018L7.5534 7.5534C7.36041 7.74638 7.18685 7.95787 7.03522 8.1848L8.421 9.11075C8.51154 8.97524 8.61555 8.84827 8.73191 8.73191C8.84827 8.61555 8.97524 8.51154 9.11075 8.421ZM9.11075 8.421L8.1848 7.03522L9.11075 8.421ZM8.421 11.8886C8.33046 11.7531 8.25295 11.6084 8.18998 11.4564C8.127 11.3044 8.07951 11.1472 8.04771 10.9874C8.01629 10.8294 8.0002 10.6687 7.99969 10.5077L6.33302 10.5097C6.33366 10.778 6.36022 11.0469 6.41307 11.3126C6.46658 11.5815 6.54623 11.8432 6.65018 12.0942C6.75462 12.3463 6.88359 12.5876 7.03522 12.8146M8.421 11.8886L7.03522 12.8146M8.421 11.8886L7.03522 12.8146M8.421 11.8886L8.73191 12.2674C8.84715 12.3827 8.97393 12.4869 9.11075 12.5783C9.24757 12.6698 9.3924 12.747 9.54297 12.8094M7.03522 12.8146C7.18612 13.0404 7.35947 13.252 7.5534 13.446C7.74733 13.6399 7.95895 13.8132 8.1848 13.9641C8.41172 14.1158 8.65302 14.2447 8.90516 14.3492M8.90516 14.3492C9.15611 14.4531 9.41781 14.5328 9.6868 14.5863M8.90516 14.3492L9.54297 12.8094M8.90516 14.3492L9.54297 12.8094M9.6868 14.5863C9.9525 14.6391 10.2214 14.6657 10.4897 14.6663L10.4917 12.9997C10.3298 12.9991 10.1692 12.9829 10.012 12.9516C9.85135 12.9197 9.69426 12.872 9.54297 12.8094M9.6868 14.5863L9.70059 14.517L9.6868 14.5863ZM10.4997 14.6663C10.7726 14.6663 11.0449 14.6395 11.3126 14.5863C11.579 14.5333 11.8408 14.4541 12.0942 14.3492C12.3476 14.2442 12.5887 14.115 12.8146 13.9641C13.0415 13.8125 13.253 13.6389 13.446 13.446C13.638 13.2539 13.8118 13.0426 13.9641 12.8146M10.4997 14.6663V12.9997M10.4997 14.6663V12.9997M13.9641 12.8146C14.1165 12.5865 14.2452 12.3451 14.3492 12.0942C14.4536 11.842 14.533 11.5802 14.5863 11.3126M13.9641 12.8146L12.5784 11.8886M13.9641 12.8146L12.5784 11.8886M14.5863 11.3126C14.6393 11.0461 14.6663 10.7739 14.6663 10.4997M14.5863 11.3126L12.9516 10.9874M14.5863 11.3126L12.9516 10.9874M14.6663 10.4997L12.9997 10.5017M14.6663 10.4997H12.9997C12.9997 10.3351 12.9834 10.1718 12.9516 10.0119C12.9197 9.85134 12.872 9.69425 12.8094 9.54297C12.747 9.3924 12.6698 9.24757 12.5783 9.11075L12.9997 10.5017M12.9997 10.5017C12.9995 10.666 12.9832 10.8286 12.9516 10.9874M12.9997 10.5017L12.9516 10.9874M12.5784 11.8886C12.6695 11.7521 12.7469 11.6073 12.8094 11.4564L12.5784 11.8886ZM12.5784 11.8886C12.488 12.0238 12.3841 12.1508 12.2674 12.2674C12.1508 12.3841 12.0238 12.488 11.8886 12.5784C11.7521 12.6695 11.6073 12.7469 11.4564 12.8094C11.3054 12.8719 11.1484 12.9196 10.9874 12.9516M12.5784 11.8886L10.9874 12.9516M6.41307 9.6868C6.35983 9.95447 6.33301 10.2268 6.33301 10.4997M6.41307 9.6868L8.04771 10.0119L6.41307 9.6868ZM6.41307 9.6868C6.46606 9.42039 6.54522 9.15854 6.65018 8.90516C6.75513 8.65178 6.88431 8.41065 7.03522 8.1848L8.421 9.11075L6.33301 10.4997M6.33301 10.4997H7.99967H6.33301ZM10.9874 8.04771C11.1472 8.0795 11.3044 8.127 11.4564 8.18998L10.9874 8.04771ZM10.4997 12.9997C10.6647 12.9997 10.8279 12.9834 10.9874 12.9516M10.4997 12.9997L10.9874 12.9516" fill="#00CBA0" stroke="#00CBA0" stroke-width="21.3333"/>
</g>
<defs>
<clipPath id="clip0_578_834">
<rect width="20" height="20" fill="white" transform="translate(0.5 0.5)"/>
</clipPath>
</defs>
</svg>
