<svg width="16" height="16" viewBox="0 0 16 16" fill="none" xmlns="http://www.w3.org/2000/svg">
<path d="M5.66214 12.518C5.66214 12.5798 5.60036 12.6106 5.50769 12.6106C5.41502 12.6415 5.35324 12.5798 5.35324 12.518C5.35324 12.4562 5.41502 12.3944 5.50769 12.3944C5.60036 12.3944 5.66214 12.4562 5.66214 12.518ZM4.70454 12.3635C4.73543 12.3017 4.8281 12.2709 4.92077 12.3017C5.01344 12.3326 5.04433 12.3944 5.04433 12.4562C5.01344 12.518 4.92077 12.5489 4.85899 12.518C4.76632 12.518 4.70454 12.4253 4.70454 12.3635ZM6.09461 12.3326C6.15639 12.3017 6.24906 12.3635 6.24906 12.4253C6.27995 12.4871 6.21817 12.518 6.1255 12.5489C6.03283 12.5798 5.94016 12.5489 5.94016 12.4871C5.94016 12.3944 6.00194 12.3326 6.09461 12.3326ZM8.10249 0.470712C12.3963 0.470712 15.8869 3.7451 15.8869 8.00798C15.8869 11.4368 13.7863 14.3714 10.6973 15.3908C10.2957 15.4835 10.1413 15.2363 10.1413 15.0201C10.1413 14.773 10.1721 13.4756 10.1721 12.4562C10.1721 11.7148 9.92502 11.2515 9.64701 11.0043C11.3769 10.819 13.1994 10.5719 13.1994 7.6064C13.1994 6.74147 12.8905 6.33989 12.3963 5.78387C12.458 5.56763 12.736 4.76448 12.3036 3.68332C11.6549 3.46708 10.1721 4.51736 10.1721 4.51736C9.55434 4.33202 8.90564 4.27023 8.22605 4.27023C7.57735 4.27023 6.92865 4.33202 6.31084 4.51736C6.31084 4.51736 4.79721 3.49797 4.1794 3.68332C3.74694 4.76448 3.99406 5.56763 4.08673 5.78387C3.59248 6.33989 3.34536 6.74147 3.34536 7.6064C3.34536 10.5719 5.10611 10.819 6.83598 11.0043C6.58885 11.2206 6.40351 11.5604 6.34173 12.0546C5.87837 12.2709 4.76632 12.6106 4.08673 11.4059C3.65426 10.6646 2.882 10.6028 2.882 10.6028C2.14063 10.6028 2.85111 11.097 2.85111 11.097C3.34536 11.3133 3.68515 12.2091 3.68515 12.2091C4.14851 13.5991 6.31084 13.1358 6.31084 13.1358C6.31084 13.7845 6.31084 14.8348 6.31084 15.051C6.31084 15.2363 6.18728 15.4835 5.7857 15.4217C2.69666 14.3714 0.565221 11.4368 0.565221 8.00798C0.565221 3.7451 3.83961 0.470712 8.10249 0.470712ZM3.56159 11.1279C3.59248 11.097 3.65426 11.1279 3.71604 11.1588C3.77783 11.2206 3.77783 11.3133 3.74694 11.3441C3.68515 11.375 3.62337 11.3441 3.56159 11.3133C3.5307 11.2515 3.49981 11.1588 3.56159 11.1279ZM3.2218 10.8808C3.25269 10.8499 3.28358 10.8499 3.34536 10.8808C3.40714 10.9117 3.43803 10.9426 3.43803 10.9735C3.40714 11.0352 3.34536 11.0352 3.28358 11.0043C3.2218 10.9735 3.19091 10.9426 3.2218 10.8808ZM4.21029 11.9928C4.27207 11.9311 4.36474 11.962 4.42652 12.0237C4.48831 12.0855 4.48831 12.1782 4.45742 12.2091C4.42652 12.2709 4.33385 12.24 4.27207 12.1782C4.1794 12.1164 4.1794 12.0237 4.21029 11.9928ZM3.8705 11.5295C3.93228 11.4986 3.99406 11.5295 4.05584 11.5913C4.08673 11.653 4.08673 11.7457 4.05584 11.7766C3.99406 11.8075 3.93228 11.7766 3.8705 11.7148C3.80872 11.653 3.80872 11.5604 3.8705 11.5295Z" fill="#141413"/>
</svg>
