<svg width="24" height="25" viewBox="0 0 24 25" fill="none" xmlns="http://www.w3.org/2000/svg">
<g clip-path="url(#clip0_634_411)">
<path d="M10.5001 17.4998C10.2371 17.5 9.97668 17.4484 9.7337 17.3478C9.49073 17.2472 9.26997 17.0998 9.08405 16.9138L5.30005 13.2148C5.11042 13.0291 5.00231 12.7758 4.9995 12.5104C4.99669 12.245 5.0994 11.9894 5.28505 11.7998C5.47071 11.6102 5.72408 11.5021 5.98945 11.4992C6.25481 11.4964 6.51042 11.5991 6.70005 11.7848L10.4931 15.4918L17.2991 8.7918C17.491 8.62292 17.7403 8.53397 17.9958 8.54321C18.2513 8.55245 18.4935 8.65919 18.6727 8.84148C18.852 9.02378 18.9546 9.2678 18.9595 9.5234C18.9643 9.779 18.8712 10.0268 18.6991 10.2158L11.9061 16.9228C11.7212 17.1067 11.5018 17.2523 11.2605 17.3513C11.0193 17.4504 10.7608 17.5008 10.5001 17.4998ZM24.0001 19.4998V12.8398C24.0374 9.75725 22.9072 6.77469 20.8364 4.49097C18.7656 2.20725 15.9075 0.791436 12.8361 0.527798C11.1217 0.407856 9.40159 0.657538 7.79209 1.25995C6.18259 1.86236 4.72126 2.80345 3.50697 4.01955C2.29268 5.23564 1.35375 6.69836 0.753728 8.30875C0.153701 9.91914 -0.0934304 11.6396 0.0290532 13.3538C0.471053 19.7078 6.08205 24.4998 13.0831 24.4998H19.0001C20.3257 24.4982 21.5965 23.9709 22.5338 23.0336C23.4712 22.0962 23.9985 20.8254 24.0001 19.4998ZM12.7001 2.5238C15.2665 2.75084 17.652 3.94071 19.3771 5.85435C21.1023 7.768 22.0394 10.2636 22.0001 12.8398V19.4998C22.0001 20.2955 21.684 21.0585 21.1214 21.6211C20.5588 22.1837 19.7957 22.4998 19.0001 22.4998H13.0831C7.04905 22.4998 2.40005 18.5998 2.02505 13.2158C1.92661 11.8444 2.11203 10.4674 2.56974 9.17087C3.02745 7.87434 3.74761 6.68613 4.68523 5.68047C5.62285 4.67481 6.75778 3.87331 8.01912 3.32605C9.28046 2.77878 10.6411 2.49751 12.0161 2.4998C12.2431 2.4998 12.4721 2.5088 12.7001 2.5238Z" fill="#00CBA0"/>
</g>
<defs>
<clipPath id="clip0_634_411">
<rect width="24" height="24" fill="white" transform="translate(0 0.5)"/>
</clipPath>
</defs>
</svg>
