<svg width="15" height="15" viewBox="0 0 15 15" fill="none" xmlns="http://www.w3.org/2000/svg">
<g clip-path="url(#clip0_429_24774)">
<path d="M11.875 5.44361L8.54192 2.85111C8.24942 2.62355 7.8894 2.5 7.5188 2.5C7.1482 2.5 6.78818 2.62355 6.49567 2.85111L3.16192 5.44361C2.96158 5.59941 2.79948 5.79894 2.68802 6.02695C2.57656 6.25496 2.51868 6.50543 2.5188 6.75923V11.2592C2.5188 11.5908 2.6505 11.9087 2.88492 12.1431C3.11934 12.3775 3.43728 12.5092 3.7688 12.5092H11.2688C11.6003 12.5092 11.9183 12.3775 12.1527 12.1431C12.3871 11.9087 12.5188 11.5908 12.5188 11.2592V6.75923C12.5188 6.24486 12.2813 5.75923 11.875 5.44361Z" stroke="#141413" stroke-linecap="round" stroke-linejoin="round"/>
<path d="M10 9.375C8.61875 10.2081 6.38 10.2081 5 9.375" stroke="#141413" stroke-linecap="round" stroke-linejoin="round"/>
</g>
<defs>
<clipPath id="clip0_429_24774">
<rect width="15" height="15" fill="white"/>
</clipPath>
</defs>
</svg>
