<svg width="10" height="9" viewBox="0 0 10 9" fill="none" xmlns="http://www.w3.org/2000/svg">
<path d="M8.66667 3.83337H2L4.19333 1.64004C4.25582 1.57806 4.30541 1.50433 4.33926 1.42309C4.37311 1.34185 4.39053 1.25471 4.39053 1.16671C4.39053 1.0787 4.37311 0.991561 4.33926 0.910322C4.30541 0.829082 4.25582 0.755348 4.19333 0.693373C4.06842 0.569206 3.89946 0.499512 3.72333 0.499512C3.54721 0.499512 3.37824 0.569206 3.25333 0.693373L0.393333 3.56004C0.142942 3.80894 0.00148853 4.14698 0 4.50004C0.00324439 4.85077 0.144563 5.1861 0.393333 5.43337L3.25333 8.30003C3.31549 8.36175 3.3892 8.41063 3.47025 8.44386C3.55129 8.4771 3.63809 8.49404 3.72569 8.49373C3.81329 8.49343 3.89996 8.47586 3.98077 8.44206C4.06159 8.40825 4.13495 8.35886 4.19667 8.2967C4.25839 8.23454 4.30726 8.16083 4.3405 8.07978C4.37373 7.99874 4.39068 7.91194 4.39037 7.82434C4.39006 7.73674 4.3725 7.65007 4.33869 7.56926C4.30489 7.48845 4.25549 7.41509 4.19333 7.35337L2 5.1667H8.66667C8.84348 5.1667 9.01305 5.09646 9.13807 4.97144C9.2631 4.84642 9.33333 4.67685 9.33333 4.50004C9.33333 4.32322 9.2631 4.15366 9.13807 4.02863C9.01305 3.90361 8.84348 3.83337 8.66667 3.83337Z" fill="#374957"/>
</svg>
