<svg width="15" height="15" viewBox="0 0 15 15" fill="none" xmlns="http://www.w3.org/2000/svg">
<path d="M3.70521 14.0625H0.832395V4.82626H3.70521V14.0625ZM2.25335 3.59065C1.35753 3.59065 0.616162 2.81838 0.616162 1.89167C0.616162 0.995849 1.35753 0.254479 2.25335 0.254479C3.18007 0.254479 3.92144 0.995849 3.92144 1.89167C3.92144 2.81838 3.18007 3.59065 2.25335 3.59065ZM14.4242 14.0625H11.5823V9.58339C11.5823 8.50222 11.5514 7.14304 10.0686 7.14304C8.58589 7.14304 8.36966 8.28599 8.36966 9.49072V14.0625H5.49685V4.82626H8.2461V6.09277H8.27699C8.67856 5.38229 9.60528 4.61003 10.9953 4.61003C13.899 4.61003 14.4551 6.52524 14.4551 8.99647V14.0625H14.4242Z" fill="#141413"/>
</svg>
