<svg width="200" height="53" viewBox="0 0 200 53" fill="none" xmlns="http://www.w3.org/2000/svg">
<path d="M50.6812 26.5C50.6812 40.2405 39.687 51.3438 26.1687 51.3438C12.6504 51.3438 1.65625 40.2405 1.65625 26.5C1.65625 12.7595 12.6504 1.65625 26.1687 1.65625C39.687 1.65625 50.6812 12.7595 50.6812 26.5Z" stroke="#009DB5" stroke-width="3.3125"/>
<path d="M25.3403 15.9H5.63096H3.80908V20.5375H14.0778V37.1H18.7153V20.5375H25.3403V15.9Z" fill="#009DB5"/>
<path d="M33.7875 15.9H28.9844V37.1H49.1906V32.9594H33.7875V15.9Z" fill="#009DB5"/>
<rect x="33.7876" y="31.1376" width="19.2125" height="2.86486" fill="#C9F8FF"/>
<rect y="20.5375" width="4.6375" height="2.86486" fill="#C9F8FF"/>
<path d="M73.1571 17.7004V20.657H68.4358V34.5H65.2959V20.657H60.5517V17.7004H73.1571ZM82.8524 34.5H79.9646C79.9188 34.2708 79.85 33.8354 79.8042 33.3311C79.2312 34.1333 78.0623 34.7979 76.4351 34.7979C74.0515 34.7979 72.3097 33.4457 72.3097 31.108C72.3097 28.8161 73.9369 27.5326 76.4351 27.5326H79.7354V27.143C79.7354 25.745 78.7957 25.1949 77.4893 25.1949C76.1601 25.1949 75.3121 25.7679 74.7849 26.7992L72.6076 25.5616C73.6848 23.5448 75.5412 22.7884 77.6727 22.7884C80.2396 22.7884 82.6461 23.9115 82.6461 27.5785V31.9331C82.6461 33.0561 82.7378 34.1333 82.8524 34.5ZM79.7583 29.8016V29.5724H77.1456C75.9538 29.5724 75.335 30.1683 75.335 31.0622C75.335 32.0248 76.0225 32.5519 77.2372 32.5519C78.3144 32.5519 79.7583 32.0018 79.7583 29.8016ZM85.1265 34.5V17.3796H88.1289V34.5H85.1265ZM101.495 28.8161V29.8704H92.9233C93.1066 31.5664 94.4359 32.2539 95.8111 32.2539C97.1862 32.2539 98.0571 31.6122 98.5613 30.6267L101.037 31.6122C100.211 33.6062 98.1946 34.7979 95.8111 34.7979C92.442 34.7979 90.1042 32.4144 90.1042 28.8161C90.1042 25.2408 92.3961 22.7884 95.8569 22.7884C99.2489 22.7884 101.495 25.172 101.495 28.8161ZM95.8111 25.2637C94.2526 25.2637 93.2441 26.1575 92.9691 27.8077H98.4467C98.3321 26.0888 97.2779 25.2637 95.8111 25.2637ZM109.825 22.7884C112.782 22.7884 114.455 24.5303 114.455 27.5097V34.5H111.476V28.1515C111.476 25.8137 109.963 25.5158 109.184 25.5158C108.129 25.5158 106.571 26.0429 106.571 28.2202V34.5H103.591V23.1322H106.411L106.502 24.2552C107.144 23.3843 108.404 22.7884 109.825 22.7884ZM123.302 23.1322V25.6075H121.125V34.5H118.192V25.6075H115.991V23.1322H118.192V19.6027H121.125V23.1322H123.302ZM128.678 31.681H135.37V34.5H126.019H125.515V17.7004H128.678V31.681ZM148.116 28.8161V29.8704H139.544C139.728 31.5664 141.057 32.2539 142.432 32.2539C143.807 32.2539 144.678 31.6122 145.183 30.6267L147.658 31.6122C146.833 33.6062 144.816 34.7979 142.432 34.7979C139.063 34.7979 136.725 32.4144 136.725 28.8161C136.725 25.2408 139.017 22.7884 142.478 22.7884C145.87 22.7884 148.116 25.172 148.116 28.8161ZM142.432 25.2637C140.874 25.2637 139.865 26.1575 139.59 27.8077H145.068C144.953 26.0888 143.899 25.2637 142.432 25.2637ZM162.245 34.5H159.266C159.174 34.1333 159.128 33.652 159.082 33.1019C158.349 34.1791 156.905 34.7979 155.347 34.7979C152.092 34.7979 149.64 32.7811 149.64 28.8161C149.64 25.172 152.092 22.7884 155.415 22.7884C156.768 22.7884 158.234 23.2697 159.036 24.324V17.3796H162.016V31.5664C162.016 32.2998 162.108 34.1104 162.245 34.5ZM155.805 32.0935C157.638 32.0935 158.945 30.8101 158.945 28.7932C158.945 26.7534 157.638 25.4929 155.805 25.4929C153.994 25.4929 152.665 26.7534 152.665 28.7932C152.665 30.8101 153.994 32.0935 155.805 32.0935ZM171.862 33.1936C174.429 33.1936 175.919 34.4771 175.919 36.6315C175.919 39.4963 172.756 40.3214 169.639 40.3443C165.926 40.3443 163.841 39.4046 163.841 37.3878C163.841 36.3335 164.437 35.4626 165.399 35.0501C164.712 34.5917 164.299 33.8583 164.299 32.8957C164.299 32.2081 164.62 30.9476 165.926 30.4204C165.124 29.6412 164.643 28.6098 164.643 27.3493C164.643 24.6219 166.752 22.7884 169.891 22.7884C170.877 22.7884 171.771 22.9947 172.527 23.3385C173.077 22.2155 174.315 21.505 175.896 21.6654V24.0719C175.186 23.9802 174.521 24.1177 174.086 24.5303C174.682 25.2637 175.025 26.2263 175.025 27.3264C175.025 30.0766 172.986 31.8643 169.891 31.8643C169.135 31.8643 168.425 31.7497 167.783 31.5205C167.164 31.5435 166.752 31.8414 166.752 32.3915C166.752 32.7582 167.027 33.1936 167.92 33.1936H171.862ZM169.823 25.1491C168.47 25.1491 167.554 26.0888 167.554 27.3264C167.554 28.5869 168.47 29.5037 169.846 29.5037C171.244 29.5037 172.115 28.5411 172.115 27.3722C172.115 26.2034 171.267 25.1491 169.823 25.1491ZM169.777 37.8232C171.656 37.8232 173.008 37.6857 173.008 36.6544C173.008 35.8522 172.206 35.623 171.358 35.623H167.485H167.118C166.591 35.8293 166.408 36.1731 166.408 36.6085C166.408 37.6857 167.76 37.8232 169.777 37.8232ZM188.314 28.8161V29.8704H179.742C179.925 31.5664 181.255 32.2539 182.63 32.2539C184.005 32.2539 184.876 31.6122 185.38 30.6267L187.855 31.6122C187.03 33.6062 185.013 34.7979 182.63 34.7979C179.261 34.7979 176.923 32.4144 176.923 28.8161C176.923 25.2408 179.215 22.7884 182.676 22.7884C186.068 22.7884 188.314 25.172 188.314 28.8161ZM182.63 25.2637C181.071 25.2637 180.063 26.1575 179.788 27.8077H185.266C185.151 26.0888 184.097 25.2637 182.63 25.2637ZM193.321 24.4615C193.986 23.0864 196.025 22.7426 197.721 23.1322V25.8825C195.017 25.2408 193.413 26.5471 193.413 29.1141V34.5H190.387V23.1551H193.161L193.321 24.4615Z" fill="black"/>
</svg>
