<svg width="140" height="35" viewBox="0 0 140 35" fill="none" xmlns="http://www.w3.org/2000/svg">
<path d="M16.0967 0.129704C13.4767 0.31088 13.3652 -0.0235994 17.1698 3.76717L20.4868 7.0841L24.18 7.11197L27.8732 7.15378L27.9429 10.8748L28.0126 14.6099L31.4689 18.0522L34.9112 21.5085V10.8331C34.9112 1.21676 34.8833 0.14364 34.6882 0.0600204C34.3816 -0.0514728 17.8806 0.00427379 16.0967 0.129704Z" fill="#FFC830"/>
<path d="M9.04492 2.17832C6.80109 3.41867 4.27856 5.67641 2.99638 7.5718C1.92326 9.17454 1.00344 11.0978 0.557467 12.6586C0.0696833 14.4147 0 15.028 0 17.6759C0 20.0869 0.0418099 20.5329 0.33448 21.6479C1.88145 27.5151 5.63041 31.8077 11.0796 33.9539C13.3792 34.8598 14.2293 35.0131 17.2118 34.9992C20.2082 34.9992 21.4067 34.8041 23.553 34.0097C27.3995 32.5881 30.814 29.6614 32.7372 26.1354C33.1832 25.3271 33.2389 25.1459 33.0857 24.9508C32.9881 24.8253 30.6467 22.4422 27.8733 19.6689L22.8561 14.6098H17.9505C15.2467 14.6098 13.0308 14.6516 13.0308 14.7074C13.0308 14.777 15.4697 17.2578 18.466 20.2542C21.7691 23.5571 23.8596 25.7452 23.7899 25.8427C23.6226 26.1215 22.0199 27.0971 21.3788 27.32C20.2082 27.7242 19.7761 27.8217 18.5775 27.989C15.1073 28.4629 11.4002 26.9298 9.10064 24.0867C7.42824 21.9962 6.5781 18.8883 6.96833 16.2126C7.34462 13.6343 8.0972 12.1431 10.0344 10.2198C11.1772 9.06304 11.6371 8.71458 12.6127 8.2268C13.2677 7.90628 14.1318 7.55786 14.5359 7.47425C14.9401 7.37668 15.2607 7.25126 15.2607 7.20944C15.2607 7.09796 9.93687 1.78809 9.83932 1.78809C9.79747 1.78809 9.43515 1.96926 9.04492 2.17832Z" fill="#00CBA0"/>
<path d="M57.5459 23.7221C55.8528 23.7221 54.3521 23.3835 53.0438 22.7062C51.7355 22.0135 50.7197 21.0362 49.9963 19.7741C49.2728 18.4965 48.9111 17.0113 48.9111 15.3181C48.9111 13.625 49.2728 12.1475 49.9963 10.8852C50.7197 9.60785 51.7355 8.62279 53.0438 7.93003C54.3521 7.23749 55.8528 6.89111 57.5459 6.89111C58.7003 6.89111 59.7315 7.01433 60.6396 7.26054C61.5478 7.50675 62.3712 7.89922 63.11 8.43796V11.2316C62.4328 10.6468 61.6555 10.2235 60.7782 9.96177C59.9008 9.70005 58.9081 9.5693 57.7999 9.5693C56.6916 9.5693 55.6835 9.80797 54.7754 10.2851C53.8827 10.7467 53.1746 11.4164 52.6513 12.2936C52.128 13.1556 51.8664 14.1638 51.8664 15.3181C51.8664 16.4878 52.1126 17.5114 52.6051 18.3888C53.0977 19.2506 53.7826 19.9204 54.66 20.3975C55.5373 20.8591 56.5377 21.09 57.6613 21.09C58.8465 21.09 59.8239 20.8899 60.5935 20.4897V16.865H57.8691V14.5332H63.5256V22.0598C62.0942 23.1679 60.1009 23.7221 57.5459 23.7221ZM67.471 10.3542C67.0093 10.3542 66.6168 10.2004 66.2936 9.89262C65.9857 9.58481 65.8318 9.19987 65.8318 8.73825C65.8318 8.27641 65.9857 7.89169 66.2936 7.58387C66.6168 7.26054 67.0093 7.09898 67.471 7.09898C67.9328 7.09898 68.3253 7.26054 68.6485 7.58387C68.9717 7.89169 69.1334 8.27641 69.1334 8.73825C69.1334 9.19987 68.9717 9.58481 68.6485 9.89262C68.3253 10.2004 67.9328 10.3542 67.471 10.3542ZM65.9934 12.2936H68.9486V23.3757H65.9934V12.2936ZM77.761 28.6858C77.0224 28.6858 76.2835 28.6166 75.5447 28.4781C74.8058 28.3396 74.1902 28.1548 73.6978 27.9239V25.6151C74.8982 26.1386 76.2527 26.4001 77.761 26.4001C79.1155 26.4001 80.0853 26.1155 80.6701 25.546C81.2705 24.9764 81.5705 24.1299 81.5705 23.0063V22.2905C81.0473 22.7676 80.4239 23.1295 79.7003 23.3757C78.977 23.6067 78.1998 23.7221 77.3685 23.7221C76.245 23.7221 75.2291 23.4757 74.3209 22.9833C73.413 22.4753 72.7049 21.775 72.197 20.8822C71.6891 19.9895 71.4351 18.9659 71.4351 17.8115C71.4351 16.6418 71.6813 15.6182 72.174 14.7408C72.6819 13.8482 73.3744 13.1632 74.2518 12.6861C75.1444 12.1936 76.1526 11.9474 77.2764 11.9474C78.2151 11.9474 79.0233 12.0782 79.7003 12.3399C80.3776 12.5861 81.0318 13.0016 81.6629 13.5865V12.2936H84.4796V22.7062C84.4796 24.6148 83.9254 26.0847 82.8173 27.1159C81.7246 28.1626 80.039 28.6858 77.761 28.6858ZM77.9919 21.4364C78.8232 21.4364 79.5618 21.2133 80.2083 20.7669C80.8702 20.3051 81.3243 19.697 81.5705 18.9428V16.7034C81.3088 15.9493 80.8547 15.3489 80.2083 14.9026C79.5618 14.4563 78.8232 14.2331 77.9919 14.2331C76.9453 14.2331 76.0834 14.564 75.4062 15.2257C74.7289 15.8877 74.3903 16.7495 74.3903 17.8115C74.3903 18.8737 74.7289 19.7433 75.4062 20.4205C76.0834 21.0978 76.9453 21.4364 77.9919 21.4364ZM91.5683 23.7221C90.7681 23.7221 89.9138 23.6297 89.0056 23.4449C88.0975 23.2603 87.3896 23.0063 86.8817 22.683V20.2127C87.4818 20.5821 88.1976 20.8822 89.0287 21.1131C89.8599 21.3287 90.6449 21.4364 91.3837 21.4364C92.1224 21.4364 92.6611 21.3748 92.9997 21.2516C93.3384 21.1131 93.5077 20.8669 93.5077 20.513C93.5077 20.2357 93.4155 20.0125 93.2307 19.8432C93.0613 19.6586 92.7766 19.4971 92.3763 19.3586C91.9916 19.2045 91.3913 19.02 90.5755 18.8043C89.6521 18.5426 88.921 18.2733 88.3822 17.9963C87.859 17.7193 87.4588 17.3729 87.1818 16.9574C86.92 16.5264 86.7893 15.9723 86.7893 15.2951C86.7893 14.1868 87.2278 13.3558 88.1052 12.8015C88.9826 12.2322 90.1678 11.9474 91.6608 11.9474C92.4304 11.9474 93.1921 12.0243 93.9465 12.1781C94.7159 12.3168 95.3163 12.5167 95.7473 12.7785V15.1566C95.2854 14.8796 94.7237 14.6562 94.0619 14.4869C93.4 14.3176 92.7227 14.2331 92.0302 14.2331C91.276 14.2331 90.7065 14.31 90.3216 14.4638C89.9368 14.6023 89.7445 14.8796 89.7445 15.2951C89.7445 15.5721 89.8444 15.7953 90.0445 15.9646C90.2602 16.1186 90.5372 16.2571 90.8758 16.3801C91.2144 16.4878 91.8301 16.6571 92.7227 16.888C93.677 17.1498 94.4236 17.4345 94.9623 17.7424C95.5011 18.0502 95.8858 18.4196 96.1167 18.8506C96.3474 19.2814 96.4629 19.8202 96.4629 20.4666C96.4629 21.4517 96.0396 22.2444 95.193 22.8448C94.362 23.4296 93.1538 23.7221 91.5683 23.7221Z" fill="white"/>
<path d="M98.7725 6.31396H101.682V13.7019C102.728 12.5322 104.083 11.9474 105.745 11.9474C107.238 11.9474 108.354 12.3551 109.093 13.1709C109.831 13.9713 110.201 15.041 110.201 16.38V23.3757H107.292V16.657C107.292 15.041 106.538 14.2331 105.029 14.2331C104.367 14.2331 103.744 14.3946 103.159 14.7177C102.574 15.0255 102.082 15.4951 101.682 16.1261V23.3757H98.7725V6.31396ZM117.204 23.722C115.711 23.722 114.596 23.3218 113.857 22.5214C113.118 21.7056 112.748 20.6281 112.748 19.2891V12.2935H115.658V19.0121C115.658 20.6281 116.412 21.4363 117.92 21.4363C118.582 21.4363 119.205 21.2823 119.79 20.9745C120.375 20.6514 120.868 20.1743 121.268 19.5431V12.2935H124.177V23.3757H121.36V21.8749C120.837 22.5061 120.213 22.9754 119.49 23.2833C118.767 23.5758 118.005 23.722 117.204 23.722ZM134.159 23.722C133.22 23.722 132.412 23.5988 131.735 23.3526C131.057 23.0909 130.403 22.6676 129.772 22.0828V23.3757H126.956V6.31396H129.865V13.3787C130.388 12.9016 131.019 12.5475 131.758 12.3168C132.512 12.0703 133.312 11.9474 134.159 11.9474C135.282 11.9474 136.283 12.2013 137.16 12.7093C138.053 13.2017 138.746 13.8944 139.238 14.7871C139.746 15.6797 140 16.7034 140 17.8577C140 19.0274 139.746 20.0588 139.238 20.9515C138.746 21.8288 138.053 22.5136 137.16 23.0062C136.283 23.4834 135.282 23.722 134.159 23.722ZM133.443 21.4363C134.49 21.4363 135.352 21.1052 136.029 20.4435C136.706 19.7816 137.045 18.9197 137.045 17.8577C137.045 16.7958 136.706 15.926 136.029 15.2487C135.352 14.5715 134.49 14.2331 133.443 14.2331C132.612 14.2331 131.866 14.4638 131.204 14.9256C130.557 15.3719 130.111 15.9723 129.865 16.7264V18.9658C130.126 19.7202 130.58 20.3203 131.227 20.7669C131.873 21.2132 132.612 21.4363 133.443 21.4363Z" fill="white"/>
</svg>
