<svg width="140" height="35" viewBox="0 0 140 35" fill="none" xmlns="http://www.w3.org/2000/svg">
<path d="M16.0967 0.129704C13.4767 0.31088 13.3652 -0.0235994 17.1698 3.76717L20.4868 7.0841L24.18 7.11197L27.8732 7.15378L27.9429 10.8748L28.0126 14.6099L31.4689 18.0522L34.9112 21.5085V10.8331C34.9112 1.21676 34.8833 0.14364 34.6882 0.0600204C34.3816 -0.0514728 17.8806 0.00427379 16.0967 0.129704Z" fill="#FFC830"/>
<path d="M9.04492 2.17832C6.80109 3.41867 4.27856 5.67641 2.99638 7.5718C1.92326 9.17454 1.00344 11.0978 0.557467 12.6586C0.0696833 14.4147 0 15.028 0 17.6759C0 20.0869 0.0418099 20.5329 0.33448 21.6479C1.88145 27.5151 5.63041 31.8077 11.0796 33.9539C13.3792 34.8598 14.2293 35.0131 17.2118 34.9992C20.2082 34.9992 21.4067 34.8041 23.553 34.0097C27.3995 32.5881 30.814 29.6614 32.7372 26.1354C33.1832 25.3271 33.2389 25.1459 33.0857 24.9508C32.9881 24.8253 30.6467 22.4422 27.8733 19.6689L22.8561 14.6098H17.9505C15.2467 14.6098 13.0308 14.6516 13.0308 14.7074C13.0308 14.777 15.4697 17.2578 18.466 20.2542C21.7691 23.5571 23.8596 25.7452 23.7899 25.8427C23.6226 26.1215 22.0199 27.0971 21.3788 27.32C20.2082 27.7242 19.7761 27.8217 18.5775 27.989C15.1073 28.4629 11.4002 26.9298 9.10064 24.0867C7.42824 21.9962 6.5781 18.8883 6.96833 16.2126C7.34462 13.6343 8.0972 12.1431 10.0344 10.2198C11.1772 9.06304 11.6371 8.71458 12.6127 8.2268C13.2677 7.90628 14.1318 7.55786 14.5359 7.47425C14.9401 7.37668 15.2607 7.25126 15.2607 7.20944C15.2607 7.09796 9.93687 1.78809 9.83932 1.78809C9.79747 1.78809 9.43515 1.96926 9.04492 2.17832Z" fill="#00CBA0"/>
<path d="M57.5459 23.7224C55.8528 23.7224 54.3521 23.3837 53.0438 22.7065C51.7355 22.0137 50.7197 21.0364 49.9963 19.7743C49.2728 18.4967 48.9111 17.0115 48.9111 15.3184C48.9111 13.6253 49.2728 12.1478 49.9963 10.8855C50.7197 9.6081 51.7355 8.62303 53.0438 7.93027C54.3521 7.23773 55.8528 6.89136 57.5459 6.89136C58.7003 6.89136 59.7315 7.01457 60.6396 7.26078C61.5478 7.50699 62.3712 7.89947 63.11 8.43821V11.2318C62.4328 10.647 61.6555 10.2237 60.7782 9.96201C59.9008 9.70029 58.9081 9.56954 57.7999 9.56954C56.6916 9.56954 55.6835 9.80821 54.7754 10.2853C53.8827 10.747 53.1746 11.4167 52.6513 12.2938C52.128 13.1559 51.8664 14.164 51.8664 15.3184C51.8664 16.488 52.1126 17.5117 52.6051 18.389C53.0977 19.2509 53.7826 19.9206 54.66 20.3977C55.5373 20.8594 56.5377 21.0903 57.6613 21.0903C58.8465 21.0903 59.8239 20.8902 60.5935 20.4899V16.8652H57.8691V14.5334H63.5256V22.0601C62.0942 23.1681 60.1009 23.7224 57.5459 23.7224ZM67.471 10.3545C67.0093 10.3545 66.6168 10.2007 66.2936 9.89287C65.9857 9.58505 65.8318 9.20011 65.8318 8.73849C65.8318 8.27665 65.9857 7.89193 66.2936 7.58411C66.6168 7.26078 67.0093 7.09923 67.471 7.09923C67.9328 7.09923 68.3253 7.26078 68.6485 7.58411C68.9717 7.89193 69.1334 8.27665 69.1334 8.73849C69.1334 9.20011 68.9717 9.58505 68.6485 9.89287C68.3253 10.2007 67.9328 10.3545 67.471 10.3545ZM65.9934 12.2938H68.9486V23.376H65.9934V12.2938ZM77.761 28.686C77.0224 28.686 76.2835 28.6169 75.5447 28.4784C74.8058 28.3399 74.1902 28.1551 73.6978 27.9241V25.6154C74.8982 26.1388 76.2527 26.4003 77.761 26.4003C79.1155 26.4003 80.0853 26.1158 80.6701 25.5462C81.2705 24.9767 81.5705 24.1301 81.5705 23.0066V22.2908C81.0473 22.7679 80.4239 23.1298 79.7003 23.376C78.977 23.6069 78.1998 23.7224 77.3685 23.7224C76.245 23.7224 75.2291 23.4759 74.3209 22.9835C73.413 22.4756 72.7049 21.7753 72.197 20.8824C71.6891 19.9897 71.4351 18.9661 71.4351 17.8117C71.4351 16.6421 71.6813 15.6184 72.174 14.7411C72.6819 13.8484 73.3744 13.1634 74.2518 12.6863C75.1444 12.1939 76.1526 11.9477 77.2764 11.9477C78.2151 11.9477 79.0233 12.0784 79.7003 12.3401C80.3776 12.5864 81.0318 13.0019 81.6629 13.5867V12.2938H84.4796V22.7065C84.4796 24.615 83.9254 26.085 82.8173 27.1161C81.7246 28.1628 80.039 28.686 77.761 28.686ZM77.9919 21.4367C78.8232 21.4367 79.5618 21.2135 80.2083 20.7672C80.8702 20.3053 81.3243 19.6972 81.5705 18.9431V16.7037C81.3088 15.9495 80.8547 15.3492 80.2083 14.9029C79.5618 14.4565 78.8232 14.2334 77.9919 14.2334C76.9453 14.2334 76.0834 14.5642 75.4062 15.226C74.7289 15.8879 74.3903 16.7498 74.3903 17.8117C74.3903 18.8739 74.7289 19.7435 75.4062 20.4208C76.0834 21.098 76.9453 21.4367 77.9919 21.4367ZM91.5683 23.7224C90.7681 23.7224 89.9138 23.63 89.0056 23.4451C88.0975 23.2605 87.3896 23.0066 86.8817 22.6832V20.2129C87.4818 20.5823 88.1976 20.8824 89.0287 21.1133C89.8599 21.329 90.6449 21.4367 91.3837 21.4367C92.1224 21.4367 92.6611 21.3751 92.9997 21.2518C93.3384 21.1133 93.5077 20.8671 93.5077 20.5132C93.5077 20.236 93.4155 20.0128 93.2307 19.8435C93.0613 19.6589 92.7766 19.4973 92.3763 19.3588C91.9916 19.2048 91.3913 19.0202 90.5755 18.8046C89.6521 18.5428 88.921 18.2736 88.3822 17.9966C87.859 17.7196 87.4588 17.3732 87.1818 16.9577C86.92 16.5266 86.7893 15.9726 86.7893 15.2953C86.7893 14.187 87.2278 13.356 88.1052 12.8018C88.9826 12.2324 90.1678 11.9477 91.6608 11.9477C92.4304 11.9477 93.1921 12.0246 93.9465 12.1784C94.7159 12.3171 95.3163 12.517 95.7473 12.7787V15.1568C95.2854 14.8798 94.7237 14.6564 94.0619 14.4871C93.4 14.3178 92.7227 14.2334 92.0302 14.2334C91.276 14.2334 90.7065 14.3103 90.3216 14.4641C89.9368 14.6026 89.7445 14.8798 89.7445 15.2953C89.7445 15.5723 89.8444 15.7955 90.0445 15.9648C90.2602 16.1188 90.5372 16.2573 90.8758 16.3803C91.2144 16.488 91.8301 16.6574 92.7227 16.8883C93.677 17.15 94.4236 17.4348 94.9623 17.7426C95.5011 18.0504 95.8858 18.4198 96.1167 18.8509C96.3474 19.2817 96.4629 19.8204 96.4629 20.4669C96.4629 21.4519 96.0396 22.2447 95.193 22.845C94.362 23.4298 93.1538 23.7224 91.5683 23.7224Z" fill="#141413"/>
<path d="M98.7725 6.31421H101.682V13.7021C102.728 12.5324 104.083 11.9476 105.745 11.9476C107.238 11.9476 108.354 12.3554 109.093 13.1711C109.831 13.9716 110.201 15.0413 110.201 16.3803V23.3759H107.292V16.6573C107.292 15.0413 106.538 14.2333 105.029 14.2333C104.367 14.2333 103.744 14.3949 103.159 14.718C102.574 15.0258 102.082 15.4954 101.682 16.1263V23.3759H98.7725V6.31421ZM117.204 23.7223C115.711 23.7223 114.596 23.3221 113.857 22.5216C113.118 21.7058 112.748 20.6284 112.748 19.2894V12.2937H115.658V19.0124C115.658 20.6284 116.412 21.4366 117.92 21.4366C118.582 21.4366 119.205 21.2826 119.79 20.9748C120.375 20.6516 120.868 20.1745 121.268 19.5433V12.2937H124.177V23.3759H121.36V21.8752C120.837 22.5063 120.213 22.9757 119.49 23.2835C118.767 23.576 118.005 23.7223 117.204 23.7223ZM134.159 23.7223C133.22 23.7223 132.412 23.5991 131.735 23.3529C131.057 23.0911 130.403 22.6679 129.772 22.083V23.3759H126.956V6.31421H129.865V13.379C130.388 12.9019 131.019 12.5477 131.758 12.317C132.512 12.0706 133.312 11.9476 134.159 11.9476C135.282 11.9476 136.283 12.2016 137.16 12.7095C138.053 13.2019 138.746 13.8947 139.238 14.7873C139.746 15.68 140 16.7036 140 17.858C140 19.0277 139.746 20.059 139.238 20.9517C138.746 21.8291 138.053 22.5138 137.16 23.0065C136.283 23.4836 135.282 23.7223 134.159 23.7223ZM133.443 21.4366C134.49 21.4366 135.352 21.1055 136.029 20.4438C136.706 19.7818 137.045 18.92 137.045 17.858C137.045 16.796 136.706 15.9262 136.029 15.2489C135.352 14.5717 134.49 14.2333 133.443 14.2333C132.612 14.2333 131.866 14.464 131.204 14.9258C130.557 15.3722 130.111 15.9725 129.865 16.7267V18.9661C130.126 19.7204 130.58 20.3205 131.227 20.7671C131.873 21.2134 132.612 21.4366 133.443 21.4366Z" fill="#141413"/>
</svg>
