<svg width="86" height="34" viewBox="0 0 86 34" fill="none" xmlns="http://www.w3.org/2000/svg">
<g clip-path="url(#clip0_2008_964)">
<g clip-path="url(#clip1_2008_964)">
<g clip-path="url(#clip2_2008_964)">
<path d="M0.820228 13.3947C1.18333 14.9146 2.67291 18.0088 3.99718 19.9768C6.68632 23.956 10.2875 27.2288 14.3419 29.3626C17.6224 31.0958 20.2843 31.794 23.4922 31.754C26.7525 31.7156 28.9085 31.1096 32.9084 29.1231L33.5467 28.807L34.7818 29.5566C37.9611 31.5174 41.0978 32.8062 44.2951 33.468C46.1072 33.8472 49.7395 33.9877 51.518 33.7371C57.4524 32.9405 63.5203 29.7901 69.1247 24.6241C71.7656 22.1778 74.1424 19.451 75.8328 16.9028C76.2609 16.2554 76.6088 15.8362 76.638 15.9105C76.7272 16.0808 76.8758 17.4162 76.9179 18.4549C76.9471 19.2313 77.0403 21.0156 77.119 22.2336C77.1315 22.5169 77.1659 23.1153 77.1844 23.5455C77.2524 24.7736 77.5189 25.6724 77.947 26.073C78.1511 26.2573 78.4186 26.4225 78.5442 26.4263C79.9441 26.5626 80.3362 25.7359 80.1578 22.9535C80.128 22.5439 80.084 21.5576 80.0455 20.7495C80.0172 19.9417 79.974 18.9448 79.9544 18.546C79.8232 15.5868 79.8122 14.5594 79.8821 12.2141C79.9567 9.72224 79.9528 9.51256 79.7564 9.08747C79.5105 8.54563 78.8639 8.08612 78.309 8.06946C77.8587 8.05595 77.795 8.08541 73.3627 10.5095C71.3595 11.6126 69.1865 12.784 68.5372 13.1208C67.1531 13.8443 66.7998 14.0957 66.6085 14.5301C66.4173 14.9645 66.5771 15.5771 66.9957 15.946C67.5673 16.4557 67.8735 16.3811 70.6149 15.1219C71.9965 14.4822 73.2591 13.9647 73.5113 13.9408L73.953 13.8911L73.8601 14.1922C73.6408 14.8669 72.6871 16.2634 71.0981 18.2279C66.3205 24.1312 59.0554 29.1112 53.2836 30.4261C50.9832 30.9545 47.827 31.0169 45.3664 30.5973C42.1341 30.0497 37.8383 28.2755 36.2369 26.8127C36.1859 26.7693 36.5686 26.2358 37.0897 25.6331C40.1535 22.0153 41.8876 18.3575 42.3934 14.4219C42.5425 13.2946 42.5687 10.6754 42.4475 9.82296C42.0495 7.02346 41.1437 5.07852 39.3966 3.23409C37.1518 0.861226 34.5733 -0.169781 31.8369 0.219702C28.1005 0.757335 25.2333 3.76279 24.3065 8.10497C24.0505 9.30249 24.0296 12.4457 24.2677 13.9409C24.9486 18.1427 26.6479 21.5786 29.9595 25.4192L30.9727 26.5814L30.6612 26.8341C29.8028 27.5 27.6523 28.2738 25.7347 28.6145C24.1545 28.8919 21.7253 28.8191 20.1858 28.4375C16.3887 27.5062 12.4147 25.1338 9.33529 21.9395C7.52625 20.0617 6.28711 18.4002 4.96275 16.0864C3.99708 14.3912 3.49002 13.1289 3.34313 12.087C3.16189 10.7926 2.95019 10.5138 2.08179 10.4668C0.920227 10.411 0.402159 11.611 0.820228 13.3947ZM27.6123 7.59635C28.7514 4.56 30.5465 3.06287 32.9441 3.13481C36.043 3.23827 38.6657 5.93685 39.4096 9.78423C39.4917 10.1954 39.5173 11.0869 39.4688 12.3535C39.4207 13.9555 39.3631 14.4777 39.1369 15.3826C38.2645 18.9614 36.7785 21.6835 34.622 23.7042C34.072 24.2221 33.5562 24.6468 33.4725 24.6443C33.2945 24.639 31.5083 22.6991 30.7427 21.6701C28.9697 19.2904 27.7127 16.4756 27.2862 13.9267C27.0828 12.6736 27.077 12.5162 27.1595 10.4647C27.2352 8.64344 27.2484 8.54955 27.6123 7.59635Z" fill="#A0A3AB"/>
</g>
</g>
</g>
<defs>
<clipPath id="clip0_2008_964">
<rect width="84.6987" height="33.7815" fill="white" transform="translate(0.625977 0.121826)"/>
</clipPath>
<clipPath id="clip1_2008_964">
<rect width="79.5724" height="33.7815" fill="white" transform="translate(0.625977 0.121826)"/>
</clipPath>
<clipPath id="clip2_2008_964">
<rect width="79.583" height="33.7815" fill="white" transform="translate(0.620605 0.121826)"/>
</clipPath>
</defs>
</svg>
