<svg width="62" height="34" viewBox="0 0 62 34" fill="none" xmlns="http://www.w3.org/2000/svg">
<g clip-path="url(#clip0_2008_958)">
<g clip-path="url(#clip1_2008_958)">
<g clip-path="url(#clip2_2008_958)">
<path d="M31.6142 33.7957C32.8566 33.5968 33.8935 33.1752 35.0772 32.3757C38.4939 30.0668 40.9582 26.0801 41.8134 21.4705C41.9133 20.9175 42.0054 20.0024 42.0407 19.0472C42.163 15.9565 41.6119 13.567 40.1532 10.8766C39.7925 10.2088 39.478 9.60759 39.4565 9.55179C39.4447 9.47865 39.5857 9.4166 39.8441 9.38118C40.0686 9.34326 40.9573 9.20004 41.8114 9.06335C45.0478 8.53053 47.6494 8.28583 50.3553 8.24763C51.5592 8.2267 55.7045 8.56417 55.9668 8.7097C56.3288 8.88969 56.2342 9.13581 55.4459 10.0092C52.5772 13.2255 50.1849 15.9884 50.0262 16.2932C49.9186 16.4842 49.8194 16.7933 49.8057 16.982C49.7795 17.3416 49.983 17.9437 50.2257 18.2415C50.4606 18.5297 50.9637 18.5301 51.3585 18.2606C51.5386 18.1291 52.6747 16.9285 53.8989 15.5717C55.114 14.2232 57.1252 12.0109 58.3664 10.6553C59.6357 9.26557 60.7164 8.00675 60.8449 7.76307C61.2691 6.97162 61.1511 6.36663 60.4693 5.77488C60.2931 5.6175 58.0695 4.2992 55.523 2.84899C50.4227 -0.070021 50.4808 -0.0477272 49.7376 0.322957C49.0041 0.676281 48.9061 1.20231 49.449 1.82913C49.6382 2.04169 50.7676 2.81055 52.4972 3.88511C54.0057 4.83514 55.2343 5.64737 55.231 5.69231C55.2173 5.88108 54.7638 5.90233 52.5382 5.78573C51.2299 5.71774 50.0646 5.67821 49.9439 5.69655C49.8238 5.70588 49.4218 5.72185 49.046 5.73068C46.6559 5.76477 42.983 6.20262 39.9286 6.81194C38.7429 7.05108 38.2183 7.11232 37.7348 7.07718L37.0902 7.03034L35.962 6.24349C33.6655 4.63975 32.399 3.99647 29.7943 3.11133C27.4147 2.29677 25.4997 1.89551 22.9498 1.66496C21.0014 1.48719 19.9705 1.47551 18.3066 1.60757C13.8996 1.93784 9.31822 3.37595 6.43988 5.31739C4.00982 6.95707 2.31638 8.90328 1.19188 11.3517C0.767662 12.2607 0.857641 12.8998 1.43181 13.2126C2.12994 13.5796 2.50385 13.3628 3.1147 12.2325C4.40428 9.85929 6.01937 8.28692 8.58448 6.90103C11.5046 5.32409 15.0451 4.36154 18.7787 4.14498C20.4654 4.05072 24.2486 4.32572 25.9712 4.67685C28.341 5.15635 30.487 5.89971 32.2421 6.85864C33.0218 7.27681 33.853 7.80711 34.1903 8.09368C34.3678 8.23309 34.4572 8.17633 33.0399 8.90464C29.5045 10.735 26.8355 13.0803 25.0963 15.8907C22.9623 19.323 22.0889 23.4795 22.8395 26.6426C23.5707 29.723 25.7993 32.4965 28.3133 33.4563C29.2176 33.8022 30.6564 33.952 31.6142 33.7957ZM29.0881 31.0096C27.4275 30.3919 25.8865 28.4816 25.2851 26.3144C25.0092 25.3003 24.9466 24.6361 25.0329 23.4495C25.1231 22.0916 25.3594 21.0696 25.9011 19.7174C27.5719 15.5013 31.1388 12.1822 35.805 10.5153L36.6455 10.215L37.292 11.0571C39.1474 13.4511 39.8265 16.0759 39.5507 19.7517C39.3514 22.2584 38.9396 23.7014 37.8223 25.6985C36.4192 28.2262 33.8605 30.5794 31.9382 31.0993C30.9378 31.37 29.9676 31.3446 29.0881 31.0096Z" fill="#A0A3AB"/>
</g>
</g>
</g>
<defs>
<clipPath id="clip0_2008_958">
<rect width="60.2155" height="33.7815" fill="white" transform="translate(0.907715 0.121826)"/>
</clipPath>
<clipPath id="clip1_2008_958">
<rect width="60.2155" height="33.7815" fill="white" transform="translate(0.907715 0.121826)"/>
</clipPath>
<clipPath id="clip2_2008_958">
<rect width="60.2222" height="33.7815" fill="white" transform="translate(0.904297 0.121826)"/>
</clipPath>
</defs>
</svg>
