<svg width="86" height="35" viewBox="0 0 86 35" fill="none" xmlns="http://www.w3.org/2000/svg">
<g clip-path="url(#clip0_2008_964)">
<rect width="84.6987" height="33.7815" transform="translate(0.953613 0.449707)" fill="white"/>
<g clip-path="url(#clip1_2008_964)">
<g clip-path="url(#clip2_2008_964)">
<path d="M1.14787 13.7226C1.51097 15.2425 3.00055 18.3367 4.32482 20.3047C7.01396 24.2838 10.6151 27.5567 14.6695 29.6905C17.9501 31.4237 20.6119 32.1219 23.8198 32.0819C27.0801 32.0435 29.2362 31.4374 33.2361 29.451L33.8744 29.1349L35.1094 29.8845C38.2887 31.8452 41.4254 33.1341 44.6228 33.7959C46.4349 34.1751 50.0671 34.3155 51.8457 34.065C57.78 33.2684 63.8479 30.118 69.4523 24.952C72.0932 22.5057 74.4701 19.7789 76.1604 17.2307C76.5885 16.5833 76.9364 16.1641 76.9657 16.2383C77.0548 16.4087 77.2034 17.7441 77.2456 18.7828C77.2747 19.5591 77.3679 21.3434 77.4466 22.5615C77.4591 22.8448 77.4935 23.4432 77.5121 23.8734C77.58 25.1015 77.8465 26.0003 78.2746 26.4008C78.4787 26.5852 78.7462 26.7504 78.8718 26.7541C80.2718 26.8904 80.6638 26.0638 80.4855 23.2814C80.4556 22.8718 80.4116 21.8854 80.3731 21.0774C80.3448 20.2696 80.3016 19.2727 80.282 18.8739C80.1508 15.9147 80.1398 14.8873 80.2097 12.542C80.2843 10.0501 80.2804 9.84044 80.084 9.41535C79.8381 8.87351 79.1916 8.414 78.6366 8.39735C78.1864 8.38383 78.1227 8.41329 73.6904 10.8374C71.6871 11.9405 69.5142 13.1119 68.8648 13.4487C67.4807 14.1722 67.1274 14.4236 66.9362 14.858C66.745 15.2924 66.9047 15.905 67.3233 16.2739C67.8949 16.7836 68.2011 16.7089 70.9426 15.4498C72.3241 14.8101 73.5867 14.2925 73.8389 14.2687L74.2806 14.219L74.1877 14.5201C73.9684 15.1947 73.0147 16.5913 71.4257 18.5558C66.6481 24.4591 59.383 29.4391 53.6113 30.754C51.3108 31.2824 48.1546 31.3448 45.694 30.9251C42.4618 30.3776 38.166 28.6034 36.5646 27.1406C36.5135 27.0971 36.8962 26.5637 37.4173 25.961C40.4812 22.3431 42.2153 18.6854 42.721 14.7498C42.8701 13.6225 42.8963 11.0033 42.7752 10.1508C42.3772 7.35134 41.4714 5.4064 39.7242 3.56197C37.4794 1.18911 34.9009 0.1581 32.1646 0.547583C28.4282 1.08522 25.5609 4.09067 24.6342 8.43285C24.3782 9.63037 24.3573 12.7736 24.5953 14.2688C25.2762 18.4706 26.9756 21.9065 30.2872 25.7471L31.3003 26.9093L30.9888 27.162C30.1304 27.8278 27.9799 28.6017 26.0624 28.9424C24.4821 29.2198 22.053 29.147 20.5135 28.7654C16.7163 27.834 12.7424 25.4617 9.66292 22.2674C7.85389 20.3896 6.61475 18.7281 5.29039 16.4143C4.32472 14.7191 3.81765 13.4568 3.67077 12.4149C3.48952 11.1205 3.27782 10.8416 2.40943 10.7947C1.24786 10.7389 0.729796 11.9389 1.14787 13.7226ZM27.94 7.92423C29.079 4.88788 30.8741 3.39075 33.2717 3.46269C36.3706 3.56615 38.9934 6.26473 39.7373 10.1121C39.8193 10.5233 39.8449 11.4148 39.7964 12.6814C39.7483 14.2833 39.6908 14.8055 39.4645 15.7105C38.5922 19.2893 37.1062 22.0114 34.9496 24.0321C34.3996 24.55 33.8839 24.9747 33.8001 24.9722C33.6221 24.9669 31.8359 23.0269 31.0703 21.9979C29.2974 19.6183 28.0404 16.8034 27.6139 14.2546C27.4104 13.0015 27.4047 12.8441 27.4872 10.7925C27.5628 8.97132 27.5761 8.87743 27.94 7.92423Z" fill="#009DB5"/>
</g>
</g>
</g>
<defs>
<clipPath id="clip0_2008_964">
<rect width="84.6987" height="33.7815" fill="white" transform="translate(0.953613 0.449707)"/>
</clipPath>
<clipPath id="clip1_2008_964">
<rect width="79.5724" height="33.7815" fill="white" transform="translate(0.953613 0.449707)"/>
</clipPath>
<clipPath id="clip2_2008_964">
<rect width="79.583" height="33.7815" fill="white" transform="translate(0.948242 0.449707)"/>
</clipPath>
</defs>
</svg>
