<svg width="61" height="35" viewBox="0 0 61 35" fill="none" xmlns="http://www.w3.org/2000/svg">
<g clip-path="url(#clip0_2008_958)">
<g clip-path="url(#clip1_2008_958)">
<rect width="60.2155" height="33.7815" transform="translate(0.235352 0.449707)" fill="white"/>
<g clip-path="url(#clip2_2008_958)">
<path d="M30.9419 34.1236C32.1842 33.9247 33.2211 33.5031 34.4048 32.7036C37.8215 30.3946 40.2858 26.408 41.141 21.7984C41.2409 21.2453 41.333 20.3303 41.3684 19.3751C41.4907 16.2844 40.9396 13.8949 39.4808 11.2045C39.1201 10.5367 38.8057 9.93548 38.7841 9.87967C38.7724 9.80653 38.9133 9.74448 39.1717 9.70906C39.3962 9.67114 40.2849 9.52792 41.1391 9.39123C44.3755 8.85841 46.977 8.61372 49.6829 8.57551C50.8868 8.55458 55.0321 8.89206 55.2944 9.03758C55.6565 9.21757 55.5619 9.46369 54.7735 10.3371C51.9048 13.5534 49.5125 16.3163 49.3539 16.6211C49.2462 16.8121 49.147 17.1212 49.1333 17.3099C49.1071 17.6695 49.3106 18.2716 49.5534 18.5693C49.7882 18.8575 50.2913 18.8579 50.6861 18.5884C50.8662 18.457 52.0024 17.2564 53.2266 15.8996C54.4416 14.5511 56.4529 12.3388 57.694 10.9832C58.9633 9.59345 60.044 8.33463 60.1725 8.09095C60.5967 7.2995 60.4787 6.69451 59.7969 6.10276C59.6207 5.94538 57.3971 4.62708 54.8506 3.17688C49.7503 0.25786 49.8084 0.280154 49.0652 0.650838C48.3317 1.00416 48.2338 1.53019 48.7766 2.15701C48.9658 2.36957 50.0952 3.13843 51.8249 4.21299C53.3334 5.16302 54.5619 5.97525 54.5587 6.02019C54.5449 6.20896 54.0914 6.23021 51.8658 6.11361C50.5576 6.04562 49.3922 6.00609 49.2715 6.02443C49.1514 6.03377 48.7495 6.04973 48.3736 6.05856C45.9835 6.09265 42.3106 6.5305 39.2562 7.13982C38.0706 7.37896 37.5459 7.4402 37.0624 7.40506L36.4178 7.35822L35.2897 6.57137C32.9931 4.96763 31.7267 4.32435 29.1219 3.43921C26.7423 2.62465 24.8273 2.22339 22.2774 1.99284C20.329 1.81507 19.2981 1.80339 17.6343 1.93546C13.2272 2.26573 8.64586 3.70383 5.76752 5.64527C3.33745 7.28495 1.64402 9.23116 0.519515 11.6796C0.0952985 12.5886 0.185278 13.2276 0.759444 13.5405C1.45758 13.9075 1.83148 13.6907 2.44234 12.5604C3.73191 10.1872 5.34701 8.6148 7.91212 7.22891C10.8322 5.65197 14.3727 4.68942 18.1064 4.47286C19.7931 4.3786 23.5763 4.6536 25.2988 5.00473C27.6687 5.48423 29.8146 6.22759 31.5697 7.18652C32.3494 7.60469 33.1807 8.135 33.518 8.42156C33.6954 8.56097 33.7848 8.50421 32.3675 9.23252C28.8321 11.0629 26.1632 13.4082 24.4239 16.2186C22.2899 19.6509 21.4165 23.8074 22.1672 26.9705C22.8983 30.0508 25.127 32.8244 27.6409 33.7842C28.5453 34.1301 29.984 34.2799 30.9419 34.1236ZM28.4157 31.3375C26.7551 30.7197 25.2142 28.8095 24.6128 26.6422C24.3369 25.6282 24.2743 24.964 24.3605 23.7774C24.4507 22.4195 24.687 21.3975 25.2288 20.0453C26.8996 15.8292 30.4665 12.5101 35.1327 10.8432L35.9731 10.5429L36.6197 11.385C38.4751 13.779 39.1541 16.4038 38.8783 20.0796C38.6791 22.5863 38.2672 24.0292 37.1499 26.0264C35.7468 28.5541 33.1881 30.9073 31.2658 31.4272C30.2655 31.6978 29.2952 31.6725 28.4157 31.3375Z" fill="#009DB5"/>
</g>
</g>
</g>
<defs>
<clipPath id="clip0_2008_958">
<rect width="60.2155" height="33.7815" fill="white" transform="translate(0.235352 0.449707)"/>
</clipPath>
<clipPath id="clip1_2008_958">
<rect width="60.2155" height="33.7815" fill="white" transform="translate(0.235352 0.449707)"/>
</clipPath>
<clipPath id="clip2_2008_958">
<rect width="60.2222" height="33.7815" fill="white" transform="translate(0.231934 0.449707)"/>
</clipPath>
</defs>
</svg>
