<svg width="16" height="17" viewBox="0 0 16 17" fill="none" xmlns="http://www.w3.org/2000/svg">
<path fill-rule="evenodd" clip-rule="evenodd" d="M8.71608 0.815083C8.62292 0.719532 8.51157 0.643594 8.38861 0.591744C8.26564 0.539895 8.13354 0.513184 8.00008 0.513184C7.86663 0.513184 7.73453 0.539895 7.61156 0.591744C7.48859 0.643594 7.37725 0.719532 7.28408 0.815083L6.64608 1.47008C6.52051 1.59911 6.36243 1.69183 6.18853 1.73847C6.01463 1.78512 5.83137 1.78394 5.65808 1.73508L4.77808 1.48708C4.64964 1.45094 4.51525 1.44086 4.38285 1.45746C4.25045 1.47405 4.12271 1.51697 4.00715 1.5837C3.8916 1.65042 3.79056 1.7396 3.71 1.84597C3.62945 1.95235 3.57099 2.07377 3.53808 2.20308L3.31208 3.08908C3.26778 3.2635 3.17722 3.42273 3.04997 3.54997C2.92273 3.67722 2.7635 3.76778 2.58908 3.81208L1.70308 4.03708C1.57377 4.06999 1.45235 4.12844 1.34597 4.209C1.2396 4.28956 1.15042 4.3906 1.0837 4.50615C1.01697 4.62171 0.974048 4.74945 0.957456 4.88185C0.940864 5.01425 0.950937 5.14864 0.987083 5.27708L1.23508 6.15808C1.28394 6.33137 1.28512 6.51463 1.23847 6.68853C1.19183 6.86243 1.09911 7.02051 0.970083 7.14608L0.315083 7.78408C0.219532 7.87725 0.143594 7.98859 0.0917444 8.11156C0.0398952 8.23453 0.0131836 8.36663 0.0131836 8.50008C0.0131836 8.63354 0.0398952 8.76564 0.0917444 8.88861C0.143594 9.01157 0.219532 9.12292 0.315083 9.21608L0.970083 9.85508C1.09893 9.98056 1.19155 10.1385 1.23819 10.3122C1.28482 10.4859 1.28375 10.6689 1.23508 10.8421L0.987083 11.7221C0.950937 11.8505 0.940864 11.9849 0.957456 12.1173C0.974048 12.2497 1.01697 12.3775 1.0837 12.493C1.15042 12.6086 1.2396 12.7096 1.34597 12.7902C1.45235 12.8707 1.57377 12.9292 1.70308 12.9621L2.58908 13.1881C2.7635 13.2324 2.92273 13.3229 3.04997 13.4502C3.17722 13.5774 3.26778 13.7367 3.31208 13.9111L3.53708 14.7971C3.56988 14.9265 3.62826 15.048 3.70877 15.1545C3.78928 15.261 3.8903 15.3503 4.00587 15.4171C4.12143 15.4839 4.24921 15.5269 4.38167 15.5436C4.51412 15.5602 4.64857 15.5502 4.77708 15.5141L5.65808 15.2661C5.83128 15.2171 6.01449 15.2158 6.18838 15.2622C6.36228 15.3087 6.5204 15.4012 6.64608 15.5301L7.28408 16.1851C7.37725 16.2806 7.48859 16.3566 7.61156 16.4084C7.73453 16.4603 7.86663 16.487 8.00008 16.487C8.13354 16.487 8.26564 16.4603 8.38861 16.4084C8.51157 16.3566 8.62292 16.2806 8.71608 16.1851L9.35508 15.5301C9.48067 15.4014 9.63863 15.309 9.81232 15.2625C9.98602 15.2161 10.169 15.2173 10.3421 15.2661L11.2221 15.5141C11.3506 15.5502 11.485 15.5602 11.6175 15.5436C11.75 15.5269 11.8777 15.4839 11.9933 15.4171C12.1089 15.3503 12.2099 15.261 12.2904 15.1545C12.3709 15.048 12.4293 14.9265 12.4621 14.7971L12.6881 13.9111C12.7324 13.7367 12.8229 13.5774 12.9502 13.4502C13.0774 13.3229 13.2367 13.2324 13.4111 13.1881L14.2971 12.9631C14.4265 12.9303 14.548 12.8719 14.6545 12.7914C14.761 12.7109 14.8503 12.6099 14.9171 12.4943C14.9839 12.3787 15.0269 12.251 15.0436 12.1185C15.0602 11.986 15.0502 11.8516 15.0141 11.7231L14.7661 10.8431C14.7171 10.6699 14.7158 10.4867 14.7622 10.3128C14.8087 10.1389 14.9012 9.98076 15.0301 9.85508L15.6851 9.21608C15.7806 9.12292 15.8566 9.01157 15.9084 8.88861C15.9603 8.76564 15.987 8.63354 15.987 8.50008C15.987 8.36663 15.9603 8.23453 15.9084 8.11156C15.8566 7.98859 15.7806 7.87725 15.6851 7.78408L15.0301 7.14608C14.9012 7.0204 14.8087 6.86228 14.7622 6.68838C14.7158 6.51449 14.7171 6.33128 14.7661 6.15808L15.0141 5.27808C15.0502 5.14957 15.0602 5.01512 15.0436 4.88267C15.0269 4.75021 14.9839 4.62243 14.9171 4.50687C14.8503 4.3913 14.761 4.29028 14.6545 4.20977C14.548 4.12926 14.4265 4.07088 14.2971 4.03808L13.4111 3.81208C13.2367 3.76778 13.0774 3.67722 12.9502 3.54997C12.8229 3.42273 12.7324 3.2635 12.6881 3.08908L12.4631 2.20308C12.4302 2.07377 12.3717 1.95235 12.2912 1.84597C12.2106 1.7396 12.1096 1.65042 11.994 1.5837C11.8785 1.51697 11.7507 1.47405 11.6183 1.45746C11.4859 1.44086 11.3515 1.45094 11.2231 1.48708L10.3431 1.73508C10.1697 1.78414 9.98619 1.78541 9.81209 1.73876C9.638 1.69211 9.47975 1.59928 9.35408 1.47008L8.71608 0.815083ZM11.7731 6.79008C11.9163 6.65191 11.9988 6.46249 12.0023 6.26352C12.0059 6.06454 11.9303 5.8723 11.7921 5.72908C11.6539 5.58587 11.4645 5.50341 11.2655 5.49984C11.0665 5.49628 10.8743 5.57191 10.7311 5.71008L6.59708 9.70208L5.28008 8.38708C5.13912 8.24652 4.94809 8.16771 4.74902 8.16799C4.54995 8.16827 4.35915 8.24762 4.21858 8.38858C4.07802 8.52955 3.99921 8.72057 3.99949 8.91964C3.99977 9.11871 4.07912 9.30952 4.22008 9.45008L6.05908 11.2841C6.19797 11.4228 6.38572 11.5016 6.58204 11.5035C6.77836 11.5054 6.96758 11.4302 7.10908 11.2941L11.7731 6.79008Z" fill="black"/>
</svg>
