<svg width="11" height="11" viewBox="0 0 11 11" fill="none" xmlns="http://www.w3.org/2000/svg">
<path fill-rule="evenodd" clip-rule="evenodd" d="M5.99306 0.207897C5.9289 0.142097 5.85223 0.089804 5.76755 0.0540992C5.68287 0.0183944 5.5919 0 5.5 0C5.4081 0 5.31713 0.0183944 5.23245 0.0540992C5.14777 0.089804 5.0711 0.142097 5.00694 0.207897L4.5676 0.658948C4.48112 0.747796 4.37227 0.811649 4.25252 0.843769C4.13277 0.875888 4.00656 0.875081 3.88723 0.841434L3.28124 0.670654C3.19279 0.645763 3.10025 0.638826 3.00907 0.650252C2.9179 0.661678 2.82993 0.691236 2.75036 0.737184C2.67078 0.783132 2.60121 0.844542 2.54573 0.917794C2.49026 0.991047 2.45 1.07466 2.42734 1.16371L2.27171 1.77384C2.2412 1.89394 2.17884 2.00359 2.09122 2.09122C2.00359 2.17884 1.89394 2.2412 1.77384 2.27171L1.16371 2.42665C1.07466 2.44932 0.991047 2.48957 0.917794 2.54504C0.844542 2.60052 0.783132 2.67009 0.737184 2.74967C0.691236 2.82924 0.661678 2.91721 0.650252 3.00839C0.638826 3.09956 0.645763 3.1921 0.670654 3.28055L0.841434 3.88723C0.875081 4.00656 0.875888 4.13277 0.843769 4.25252C0.811649 4.37227 0.747796 4.48112 0.658948 4.5676L0.207897 5.00694C0.142097 5.0711 0.089804 5.14777 0.0540992 5.23245C0.0183944 5.31713 0 5.4081 0 5.5C0 5.5919 0.0183944 5.68287 0.0540992 5.76755C0.089804 5.85223 0.142097 5.9289 0.207897 5.99306L0.658948 6.43309C0.747675 6.5195 0.811456 6.62824 0.843571 6.74786C0.875687 6.86747 0.874948 6.99353 0.841434 7.11277L0.670654 7.71876C0.645763 7.80721 0.638826 7.89975 0.650252 7.99093C0.661678 8.0821 0.691236 8.17007 0.737184 8.24964C0.783132 8.32922 0.844542 8.39879 0.917794 8.45427C0.991047 8.50974 1.07466 8.55 1.16371 8.57266L1.77384 8.72829C1.89394 8.7588 2.00359 8.82115 2.09122 8.90878C2.17884 8.99641 2.2412 9.10606 2.27171 9.22616L2.42665 9.83629C2.44924 9.9254 2.48944 10.0091 2.54488 10.0824C2.60032 10.1557 2.66989 10.2172 2.74947 10.2633C2.82906 10.3093 2.91705 10.3389 3.00826 10.3504C3.09947 10.3618 3.19205 10.3549 3.28055 10.33L3.88723 10.1593C4.0065 10.1255 4.13267 10.1246 4.25241 10.1566C4.37216 10.1886 4.48105 10.2523 4.5676 10.3411L5.00694 10.7921C5.0711 10.8579 5.14777 10.9102 5.23245 10.9459C5.31713 10.9816 5.4081 11 5.5 11C5.5919 11 5.68287 10.9816 5.76755 10.9459C5.85223 10.9102 5.9289 10.8579 5.99306 10.7921L6.43309 10.3411C6.51957 10.2524 6.62835 10.1888 6.74796 10.1568C6.86757 10.1248 6.9936 10.1257 7.11277 10.1593L7.71876 10.33C7.80726 10.3549 7.89984 10.3618 7.99105 10.3504C8.08226 10.3389 8.17026 10.3093 8.24984 10.2633C8.32942 10.2172 8.39899 10.1557 8.45443 10.0824C8.50987 10.0091 8.55007 9.9254 8.57266 9.83629L8.72829 9.22616C8.7588 9.10606 8.82115 8.99641 8.90878 8.90878C8.99641 8.82115 9.10606 8.7588 9.22616 8.72829L9.83629 8.57335C9.9254 8.55076 10.0091 8.51056 10.0824 8.45512C10.1557 8.39968 10.2172 8.33011 10.2633 8.25053C10.3093 8.17095 10.3389 8.08295 10.3504 7.99174C10.3618 7.90053 10.3549 7.80795 10.33 7.71945L10.1593 7.11345C10.1255 6.99418 10.1246 6.86802 10.1566 6.74828C10.1886 6.62853 10.2523 6.51964 10.3411 6.43309L10.7921 5.99306C10.8579 5.9289 10.9102 5.85223 10.9459 5.76755C10.9816 5.68287 11 5.5919 11 5.5C11 5.4081 10.9816 5.31713 10.9459 5.23245C10.9102 5.14777 10.8579 5.0711 10.7921 5.00694L10.3411 4.5676C10.2523 4.48105 10.1886 4.37216 10.1566 4.25241C10.1246 4.13267 10.1255 4.0065 10.1593 3.88723L10.33 3.28124C10.3549 3.19274 10.3618 3.10016 10.3504 3.00895C10.3389 2.91774 10.3093 2.82974 10.2633 2.75016C10.2172 2.67058 10.1557 2.60101 10.0824 2.54557C10.0091 2.49013 9.9254 2.44993 9.83629 2.42734L9.22616 2.27171C9.10606 2.2412 8.99641 2.17884 8.90878 2.09122C8.82115 2.00359 8.7588 1.89394 8.72829 1.77384L8.57335 1.16371C8.55068 1.07466 8.51043 0.991047 8.45496 0.917794C8.39948 0.844542 8.32991 0.783132 8.25033 0.737184C8.17076 0.691236 8.08279 0.661678 7.99161 0.650252C7.90044 0.638826 7.8079 0.645763 7.71945 0.670654L7.11345 0.841434C6.99403 0.875214 6.86769 0.876089 6.7478 0.843966C6.62792 0.811843 6.51894 0.747917 6.4324 0.658948L5.99306 0.207897ZM8.09819 4.32245C8.19681 4.22729 8.2536 4.09686 8.25605 3.95984C8.25851 3.82282 8.20643 3.69044 8.11128 3.59181C8.01612 3.49319 7.88569 3.43641 7.74867 3.43395C7.61165 3.4315 7.47927 3.48358 7.38064 3.57873L4.53386 6.32773L3.62693 5.42219C3.52986 5.32539 3.39831 5.27112 3.26123 5.27131C3.12415 5.2715 2.99275 5.32615 2.89595 5.42322C2.79916 5.52029 2.74489 5.65184 2.74508 5.78892C2.74527 5.92601 2.79992 6.0574 2.89699 6.1542L4.16337 7.41714C4.25901 7.5127 4.38831 7.56694 4.5235 7.56823C4.65869 7.56952 4.78899 7.51774 4.88643 7.42403L8.09819 4.32245Z" fill="#00CBA0"/>
</svg>
