<svg width="31" height="31" viewBox="0 0 31 31" fill="none" xmlns="http://www.w3.org/2000/svg">
<path d="M29.8284 19.2662H25.7353V18.2715C25.7353 17.6218 25.2027 17.0939 24.5479 17.0939H22.7074C21.6922 15.8369 20.1328 15.0377 18.4243 15.0377C17.2784 15.0377 15.7953 14.8246 15.1265 13.8274V13.2068C16.08 12.4409 16.7476 11.3396 16.9425 10.0851H17.1556C17.8483 10.0851 18.4121 9.52686 18.4121 8.84028V7.33511C18.4121 6.82108 18.0951 6.37909 17.6443 6.19019V5.25355C17.6443 3.86705 16.9846 2.55382 15.8717 1.70618C15.4979 0.573973 14.5761 0 13.1297 0H10.7719C8.28279 0 6.25791 2.00588 6.25791 4.4713V6.1908C5.80712 6.3797 5.4901 6.82168 5.4901 7.33572V8.84088C5.4901 9.52687 6.05389 10.0857 6.74657 10.0857H6.95974C7.15399 11.3408 7.82284 12.4427 8.77695 13.2086V13.828C8.10687 14.8252 6.62379 15.0383 5.47788 15.0383C2.45735 15.0383 0 17.4723 0 20.4638V26.0486C0 26.3162 0.218675 26.5329 0.48866 26.5329H15.1729V29.8412C15.1729 30.4799 15.6976 31 16.3426 31H29.8284C30.4747 31 31 30.4799 31 29.8412V20.4251C31 19.7863 30.4741 19.2662 29.8284 19.2662ZM30.0227 20.4251V23.4754C28.371 23.8738 26.4805 24.1232 24.5057 24.2043V23.41C24.5057 22.9813 24.1533 22.632 23.7208 22.632H22.4515C22.0178 22.632 21.6648 22.9807 21.6648 23.41V24.2043C19.6906 24.1232 17.8013 23.8738 16.1496 23.4754V20.4251C16.1496 20.3222 16.2376 20.235 16.342 20.235H29.8278C29.9335 20.235 30.0227 20.3222 30.0227 20.4251ZM23.5284 23.6007V25.3971C23.5284 25.6338 23.3256 25.8342 23.0861 25.8342C22.8412 25.8342 22.6421 25.6381 22.6421 25.3971V23.6007H23.5284ZM21.6244 18.0626H22.2102C22.4503 18.4301 22.6372 18.8346 22.76 19.2668H21.4131V18.2721C21.4131 18.1583 21.5096 18.0626 21.6244 18.0626ZM24.5479 18.0626C24.6615 18.0626 24.758 18.1583 24.758 18.2715V19.2662H23.7678C23.6707 18.8436 23.5241 18.4398 23.3341 18.062H24.5479V18.0626ZM11.9508 15.5372L9.98944 13.9304C10.5929 14.1828 11.2557 14.3227 11.9508 14.3227C12.6471 14.3227 13.3105 14.1822 13.9146 13.9291L11.9508 15.5372ZM9.35601 14.6684L11.1634 16.1494L9.7787 17.1889L8.78123 15.174C8.99746 15.0244 9.19048 14.8567 9.35601 14.6684ZM11.9508 17.7544C11.6387 17.7544 11.3656 17.574 11.238 17.3088L11.9508 16.773L12.6649 17.3088C12.5372 17.5746 12.2642 17.7544 11.9508 17.7544ZM12.7382 16.1494L14.5468 14.6684C14.7123 14.8567 14.9047 15.0244 15.1204 15.1734L14.1229 17.1889L12.7382 16.1494ZM17.4348 8.84088C17.4348 8.99285 17.3096 9.11697 17.1556 9.11697H17.0011V7.06144H17.1556C17.3096 7.06144 17.4348 7.18435 17.4348 7.33572V8.84088ZM10.7719 0.968731H13.1297C14.4827 0.968731 14.8229 1.553 14.9774 2.12515C15.0068 2.23414 15.0739 2.3298 15.1668 2.39519C16.1062 3.05574 16.667 4.12437 16.667 5.25416V5.32076H16.5124C15.1466 5.32076 14.2878 4.84729 13.6416 3.7387C13.5756 3.62608 13.4675 3.54434 13.3404 3.51165C13.2134 3.47896 13.0784 3.49894 12.966 3.56614C11.2074 4.61903 9.58629 5.32076 7.3916 5.32076H7.23523V4.4713C7.23523 2.53989 8.82154 0.968731 10.7719 0.968731ZM6.46742 8.84088V7.33572C6.46742 7.18677 6.59508 7.06144 6.74657 7.06144H6.90111V9.11697H6.74657C6.59508 9.11697 6.46742 8.99043 6.46742 8.84088ZM7.87843 9.32464V6.27859C9.61989 6.2023 11.1793 5.70704 13.0607 4.63477C13.7778 5.63801 14.7362 6.16597 16.0232 6.26951V9.32464C16.0232 11.5467 14.1962 13.354 11.9508 13.354C9.7054 13.354 7.87843 11.5467 7.87843 9.32464ZM0.97671 20.4632C0.97671 18.0057 2.99549 16.0065 5.47727 16.0065C6.42344 16.0065 7.2395 15.8751 7.91446 15.6214L9.16299 18.1431C9.22713 18.2733 9.34685 18.3677 9.48856 18.401C9.52582 18.4101 9.56369 18.4144 9.60156 18.4144C9.70724 18.4144 9.81108 18.3805 9.89659 18.3163L10.4512 17.8997C10.5948 18.1274 10.789 18.3187 11.0181 18.4598L9.57591 25.5636H5.17736V23.08C5.17736 22.8124 4.95868 22.5957 4.6887 22.5957C4.41871 22.5957 4.20004 22.8124 4.20004 23.08V25.563H0.97671V20.4632ZM11.952 18.7722L13.3294 25.5636H10.5734L11.952 18.7722ZM14.3257 25.5636L12.8854 18.4592C13.1138 18.3181 13.3081 18.1274 13.4516 17.8997L14.005 18.3157C14.0905 18.3799 14.1944 18.4138 14.3 18.4138C14.3379 18.4138 14.3758 18.4095 14.413 18.4004C14.5547 18.3671 14.6745 18.2727 14.7386 18.1425L15.9871 15.6202C16.6615 15.8739 17.4782 16.0053 18.4243 16.0053C19.544 16.0053 20.586 16.423 21.3856 17.1163C20.8438 17.2259 20.4358 17.7017 20.4358 18.2703V19.265H16.3426C15.6976 19.265 15.1729 19.7851 15.1729 20.4239V25.5618H14.3257V25.5636ZM29.8284 30.0307H16.342C16.2376 30.0307 16.1496 29.9435 16.1496 29.8405V24.4701C17.8184 24.8546 19.7034 25.095 21.6648 25.1737V25.3971C21.6648 26.1721 22.3025 26.803 23.0861 26.803C23.8692 26.803 24.5057 26.1721 24.5057 25.3971V25.1737C26.4677 25.0956 28.3533 24.8546 30.0227 24.4701V29.8405C30.0227 29.9435 29.9335 30.0307 29.8284 30.0307Z" fill="#009DB5"/>
</svg>
