<svg width="34" height="34" viewBox="0 0 34 34" fill="none" xmlns="http://www.w3.org/2000/svg">
<circle cx="17" cy="17" r="17" fill="#009DB5"/>
<mask id="path-2-inside-1_2008_1236" fill="white">
<path d="M25.6918 14.9756H24.435C24.3527 14.9772 24.2743 15.011 24.2167 15.0698C24.1591 15.1285 24.1268 15.2075 24.1268 15.2898C24.1268 15.3721 24.1591 15.4511 24.2167 15.5099C24.2743 15.5686 24.3527 15.6024 24.435 15.604H25.6918C25.7741 15.6024 25.8525 15.5686 25.9101 15.5099C25.9677 15.4511 26 15.3721 26 15.2898C26 15.2075 25.9677 15.1285 25.9101 15.0698C25.8525 15.011 25.7741 14.9772 25.6918 14.9756ZM25.1229 11.3059C25.0876 11.2305 25.0238 11.1722 24.9455 11.1437C24.8672 11.1153 24.7809 11.119 24.7053 11.154L23.5659 11.6852C23.4904 11.7204 23.432 11.7842 23.4035 11.8626C23.375 11.9409 23.3788 12.0273 23.4141 12.1028C23.4493 12.1784 23.5131 12.2368 23.5914 12.2653C23.6697 12.2938 23.7562 12.29 23.8317 12.2547L24.971 11.7236C25.0465 11.6883 25.105 11.6245 25.1334 11.5462C25.1619 11.4679 25.1581 11.3815 25.1229 11.3059ZM21.8694 9.47401L22.6773 8.5114C22.729 8.44738 22.7535 8.36565 22.7455 8.28377C22.7376 8.20189 22.6978 8.12639 22.6348 8.07351C22.5718 8.02063 22.4905 7.99457 22.4085 8.00094C22.3265 8.00732 22.2502 8.04561 22.1962 8.1076L21.3882 9.07019C21.3365 9.1342 21.3119 9.21596 21.3199 9.29788C21.3278 9.3798 21.3676 9.45534 21.4306 9.50825C21.4936 9.56116 21.5749 9.58721 21.657 9.58081C21.739 9.5744 21.8153 9.53605 21.8694 9.47401ZM16.5795 8.69214C9.69147 8.76815 7.47664 17.9039 13.5086 21.1321C13.0131 21.4821 12.9829 22.3903 13.3682 22.8311C13.2645 22.9628 13.1892 23.1145 13.147 23.2768C13.1048 23.439 13.0967 23.6082 13.1231 23.7738C13.1234 24.0237 13.2227 24.2633 13.3995 24.44C13.5762 24.6167 13.8158 24.7161 14.0657 24.7164H15.0084C15.0733 26.7942 18.0861 26.7931 18.1505 24.7164H19.0932C19.3432 24.7161 19.5828 24.6167 19.7595 24.44C19.9362 24.2633 20.0356 24.0237 20.0359 23.7738C20.0623 23.6082 20.0541 23.439 20.0119 23.2768C19.9697 23.1146 19.8944 22.9628 19.7907 22.8311C20.1752 22.3944 20.1452 21.4772 19.6503 21.1321C25.6855 17.9011 23.4631 8.76667 16.5795 8.69214ZM18.5375 21.5742H19.0932C19.1766 21.5743 19.2564 21.6074 19.3154 21.6663C19.3743 21.7252 19.4074 21.8051 19.4075 21.8884V22.2027C19.4074 22.286 19.3743 22.3659 19.3154 22.4248C19.2564 22.4837 19.1766 22.5168 19.0932 22.5169H14.0657C13.9824 22.5168 13.9025 22.4837 13.8436 22.4248C13.7847 22.3659 13.7516 22.286 13.7515 22.2027V21.8884C13.7516 21.8051 13.7847 21.7252 13.8436 21.6663C13.9025 21.6074 13.9824 21.5743 14.0657 21.5742H18.5375ZM17.5221 24.7173C17.5193 24.9655 17.4186 25.2026 17.2421 25.377C17.0655 25.5514 16.8273 25.6492 16.5791 25.6491C16.3309 25.649 16.0928 25.551 15.9164 25.3763C15.74 25.2017 15.6396 24.9646 15.6369 24.7164L17.5221 24.7173ZM19.4075 23.7738C19.4074 23.8571 19.3743 23.937 19.3154 23.9959C19.2564 24.0548 19.1766 24.0879 19.0932 24.088H14.0657C13.9824 24.0879 13.9025 24.0548 13.8436 23.9959C13.7847 23.937 13.7516 23.8571 13.7515 23.7738V23.4595C13.7516 23.3762 13.7847 23.2963 13.8436 23.2374C13.9025 23.1785 13.9824 23.1454 14.0657 23.1453H19.0932C19.1766 23.1454 19.2564 23.1785 19.3154 23.2374C19.3743 23.2963 19.4074 23.3762 19.4075 23.4595V23.7738ZM18.4899 20.9458H14.669C8.32226 18.6955 9.84365 9.43592 16.5796 9.3206C23.3168 9.43698 24.8357 18.6962 18.4899 20.9458Z"/>
</mask>
<path d="M25.6918 14.9756H24.435C24.3527 14.9772 24.2743 15.011 24.2167 15.0698C24.1591 15.1285 24.1268 15.2075 24.1268 15.2898C24.1268 15.3721 24.1591 15.4511 24.2167 15.5099C24.2743 15.5686 24.3527 15.6024 24.435 15.604H25.6918C25.7741 15.6024 25.8525 15.5686 25.9101 15.5099C25.9677 15.4511 26 15.3721 26 15.2898C26 15.2075 25.9677 15.1285 25.9101 15.0698C25.8525 15.011 25.7741 14.9772 25.6918 14.9756ZM25.1229 11.3059C25.0876 11.2305 25.0238 11.1722 24.9455 11.1437C24.8672 11.1153 24.7809 11.119 24.7053 11.154L23.5659 11.6852C23.4904 11.7204 23.432 11.7842 23.4035 11.8626C23.375 11.9409 23.3788 12.0273 23.4141 12.1028C23.4493 12.1784 23.5131 12.2368 23.5914 12.2653C23.6697 12.2938 23.7562 12.29 23.8317 12.2547L24.971 11.7236C25.0465 11.6883 25.105 11.6245 25.1334 11.5462C25.1619 11.4679 25.1581 11.3815 25.1229 11.3059ZM21.8694 9.47401L22.6773 8.5114C22.729 8.44738 22.7535 8.36565 22.7455 8.28377C22.7376 8.20189 22.6978 8.12639 22.6348 8.07351C22.5718 8.02063 22.4905 7.99457 22.4085 8.00094C22.3265 8.00732 22.2502 8.04561 22.1962 8.1076L21.3882 9.07019C21.3365 9.1342 21.3119 9.21596 21.3199 9.29788C21.3278 9.3798 21.3676 9.45534 21.4306 9.50825C21.4936 9.56116 21.5749 9.58721 21.657 9.58081C21.739 9.5744 21.8153 9.53605 21.8694 9.47401ZM16.5795 8.69214C9.69147 8.76815 7.47664 17.9039 13.5086 21.1321C13.0131 21.4821 12.9829 22.3903 13.3682 22.8311C13.2645 22.9628 13.1892 23.1145 13.147 23.2768C13.1048 23.439 13.0967 23.6082 13.1231 23.7738C13.1234 24.0237 13.2227 24.2633 13.3995 24.44C13.5762 24.6167 13.8158 24.7161 14.0657 24.7164H15.0084C15.0733 26.7942 18.0861 26.7931 18.1505 24.7164H19.0932C19.3432 24.7161 19.5828 24.6167 19.7595 24.44C19.9362 24.2633 20.0356 24.0237 20.0359 23.7738C20.0623 23.6082 20.0541 23.439 20.0119 23.2768C19.9697 23.1146 19.8944 22.9628 19.7907 22.8311C20.1752 22.3944 20.1452 21.4772 19.6503 21.1321C25.6855 17.9011 23.4631 8.76667 16.5795 8.69214ZM18.5375 21.5742H19.0932C19.1766 21.5743 19.2564 21.6074 19.3154 21.6663C19.3743 21.7252 19.4074 21.8051 19.4075 21.8884V22.2027C19.4074 22.286 19.3743 22.3659 19.3154 22.4248C19.2564 22.4837 19.1766 22.5168 19.0932 22.5169H14.0657C13.9824 22.5168 13.9025 22.4837 13.8436 22.4248C13.7847 22.3659 13.7516 22.286 13.7515 22.2027V21.8884C13.7516 21.8051 13.7847 21.7252 13.8436 21.6663C13.9025 21.6074 13.9824 21.5743 14.0657 21.5742H18.5375ZM17.5221 24.7173C17.5193 24.9655 17.4186 25.2026 17.2421 25.377C17.0655 25.5514 16.8273 25.6492 16.5791 25.6491C16.3309 25.649 16.0928 25.551 15.9164 25.3763C15.74 25.2017 15.6396 24.9646 15.6369 24.7164L17.5221 24.7173ZM19.4075 23.7738C19.4074 23.8571 19.3743 23.937 19.3154 23.9959C19.2564 24.0548 19.1766 24.0879 19.0932 24.088H14.0657C13.9824 24.0879 13.9025 24.0548 13.8436 23.9959C13.7847 23.937 13.7516 23.8571 13.7515 23.7738V23.4595C13.7516 23.3762 13.7847 23.2963 13.8436 23.2374C13.9025 23.1785 13.9824 23.1454 14.0657 23.1453H19.0932C19.1766 23.1454 19.2564 23.1785 19.3154 23.2374C19.3743 23.2963 19.4074 23.3762 19.4075 23.4595V23.7738ZM18.4899 20.9458H14.669C8.32226 18.6955 9.84365 9.43592 16.5796 9.3206C23.3168 9.43698 24.8357 18.6962 18.4899 20.9458Z" fill="white"/>
<path d="M25.6918 14.9756L25.7503 11.9762L25.7211 11.9756H25.6918V14.9756ZM24.435 14.9756V11.9756H24.4057L24.3764 11.9762L24.435 14.9756ZM24.435 15.604L24.3766 18.6035L24.4058 18.604H24.435V15.604ZM25.6918 15.604V18.604H25.7211L25.7503 18.6035L25.6918 15.604ZM26 15.2898H29H26ZM25.1229 11.3059L27.842 10.0384L27.839 10.0319L25.1229 11.3059ZM24.7053 11.154L23.4423 8.43284L23.4377 8.435L24.7053 11.154ZM23.5659 11.6852L22.2983 8.96616L22.2975 8.96658L23.5659 11.6852ZM23.8317 12.2547L22.5641 9.53569L22.5632 9.5361L23.8317 12.2547ZM24.971 11.7236L26.2387 14.4426L26.2405 14.4417L24.971 11.7236ZM21.8694 9.47401L24.1311 11.445L24.1494 11.424L24.1672 11.4027L21.8694 9.47401ZM22.6773 8.5114L24.9752 10.4401L24.9938 10.4179L25.012 10.3953L22.6773 8.5114ZM22.1962 8.1076L19.9357 6.13514L19.9168 6.15684L19.8983 6.1789L22.1962 8.1076ZM21.3882 9.07019L19.0904 7.14149L19.0724 7.1629L19.0548 7.18465L21.3882 9.07019ZM16.5795 8.69214L16.612 5.69232L16.5792 5.69196L16.5464 5.69232L16.5795 8.69214ZM13.5086 21.1321L15.2395 23.5824L19.2075 20.7794L14.9242 18.487L13.5086 21.1321ZM13.3682 22.8311L15.7253 24.6869L17.2653 22.7311L15.627 20.8568L13.3682 22.8311ZM13.1231 23.7738L16.1231 23.7706L16.1228 23.5345L16.0857 23.3013L13.1231 23.7738ZM14.0657 24.7164L14.0625 27.7164H14.0657V24.7164ZM15.0084 24.7164L18.007 24.6228L17.9162 21.7164H15.0084V24.7164ZM18.1505 24.7164V21.7164H15.2421L15.152 24.6235L18.1505 24.7164ZM19.0932 24.7164V27.7164L19.0965 27.7164L19.0932 24.7164ZM20.0359 23.7738L17.0732 23.302L17.0362 23.5348L17.0359 23.7705L20.0359 23.7738ZM19.7907 22.8311L17.5391 20.8486L15.8883 22.7235L17.4333 24.6865L19.7907 22.8311ZM19.6503 21.1321L18.2344 18.4872L13.9232 20.7953L17.9341 23.5927L19.6503 21.1321ZM19.0932 21.5742L19.0952 18.5742H19.0932V21.5742ZM19.4075 21.8884H22.4075L22.4075 21.8864L19.4075 21.8884ZM19.4075 22.2027L22.4075 22.2047V22.2027H19.4075ZM19.0932 22.5169V25.5169L19.0952 25.5169L19.0932 22.5169ZM14.0657 22.5169L14.0637 25.5169H14.0657V22.5169ZM13.7515 22.2027H10.7515L10.7515 22.2047L13.7515 22.2027ZM13.7515 21.8884L10.7515 21.8864V21.8884H13.7515ZM14.0657 21.5742V18.5742L14.0637 18.5742L14.0657 21.5742ZM17.5221 24.7173L20.5219 24.7521L20.5571 21.7188L17.5236 21.7173L17.5221 24.7173ZM15.6369 24.7164L15.6384 21.7164L12.6049 21.7149L12.6371 24.7482L15.6369 24.7164ZM19.4075 23.7738L22.4075 23.7758V23.7738H19.4075ZM19.3154 23.9959L17.194 21.8746L19.3154 23.9959ZM19.0932 24.088V27.088H19.0952L19.0932 24.088ZM14.0657 24.088L14.0637 27.088H14.0657V24.088ZM13.8436 23.9959L15.9649 21.8746L13.8436 23.9959ZM13.7515 23.7738H10.7515L10.7515 23.7758L13.7515 23.7738ZM13.7515 23.4595L10.7515 23.4575V23.4595H13.7515ZM14.0657 23.1453V20.1453L14.0637 20.1453L14.0657 23.1453ZM19.0932 23.1453L19.0952 20.1453H19.0932V23.1453ZM19.4075 23.4595H22.4075L22.4075 23.4575L19.4075 23.4595ZM18.4899 20.9458V23.9458H19.0059L19.4923 23.7734L18.4899 20.9458ZM14.669 20.9458L13.6665 23.7733L14.1529 23.9458H14.669V20.9458ZM16.5796 9.3206L16.6314 6.32105L16.5798 6.32016L16.5282 6.32104L16.5796 9.3206ZM25.6918 11.9756H24.435V17.9756H25.6918V11.9756ZM24.3764 11.9762C23.5088 11.9931 22.6824 12.3497 22.0748 12.9693L26.3587 17.1703C25.8663 17.6724 25.1966 17.9613 24.4935 17.975L24.3764 11.9762ZM22.0748 12.9693C21.4672 13.5889 21.1268 14.4221 21.1268 15.2899L27.1268 15.2897C27.1268 15.993 26.851 16.6682 26.3587 17.1703L22.0748 12.9693ZM21.1268 15.2899C21.1268 16.1578 21.4673 16.9909 22.0749 17.6105L26.3586 13.4093C26.8509 13.9113 27.1268 14.5865 27.1268 15.2897L21.1268 15.2899ZM22.0749 17.6105C22.6825 18.2301 23.509 18.5866 24.3766 18.6035L24.4934 12.6046C25.1965 12.6183 25.8661 12.9072 26.3586 13.4093L22.0749 17.6105ZM24.435 18.604H25.6918V12.604H24.435V18.604ZM25.7503 18.6035C26.618 18.5866 27.4444 18.23 28.052 17.6104L23.7682 13.4093C24.2606 12.9072 24.9303 12.6183 25.6334 12.6046L25.7503 18.6035ZM28.052 17.6104C28.6596 16.9908 29 16.1576 29 15.2898H23C23 14.5866 23.2758 13.9114 23.7682 13.4093L28.052 17.6104ZM29 15.2898C29 14.422 28.6596 13.5888 28.052 12.9692L23.7682 17.1703C23.2758 16.6682 23 15.993 23 15.2898H29ZM28.052 12.9692C27.4444 12.3496 26.618 11.9931 25.7503 11.9762L25.6334 17.975C24.9303 17.9613 24.2606 17.6724 23.7682 17.1703L28.052 12.9692ZM27.839 10.0319C27.4666 9.2381 26.7949 8.62412 25.9709 8.32442L23.9201 13.9631C23.2526 13.7203 22.7085 13.223 22.4069 12.5799L27.839 10.0319ZM25.9709 8.32442C25.1469 8.02472 24.2377 8.0637 23.4423 8.43284L25.9683 13.8752C25.324 14.1742 24.5876 14.2058 23.9201 13.9631L25.9709 8.32442ZM23.4377 8.435L22.2983 8.96616L24.8336 14.4042L25.9729 13.8731L23.4377 8.435ZM22.2975 8.96658C21.5009 9.33824 20.8846 10.0111 20.5842 10.8372L26.2228 12.888C25.9794 13.5574 25.4799 14.1026 24.8344 14.4038L22.2975 8.96658ZM20.5842 10.8372C20.2837 11.6632 20.3238 12.5748 20.6954 13.3713L26.1327 10.8343C26.4339 11.4798 26.4663 12.2186 26.2228 12.888L20.5842 10.8372ZM20.6954 13.3713C21.0671 14.1679 21.74 14.7842 22.566 15.0846L24.6168 9.44596C25.2862 9.68942 25.8315 10.1888 26.1327 10.8343L20.6954 13.3713ZM22.566 15.0846C23.3921 15.385 24.3036 15.345 25.1002 14.9734L22.5632 9.5361C23.2087 9.23491 23.9474 9.20249 24.6168 9.44596L22.566 15.0846ZM25.0993 14.9738L26.2387 14.4426L23.7034 9.00452L22.5641 9.53569L25.0993 14.9738ZM26.2405 14.4417C27.0366 14.0699 27.6525 13.3973 27.9528 12.5716L22.3141 10.5208C22.5575 9.85172 23.0565 9.30665 23.7016 9.00538L26.2405 14.4417ZM27.9528 12.5716C28.2531 11.7459 28.2132 10.8347 27.842 10.0384L22.4039 12.5735C22.1031 11.9282 22.0708 11.1899 22.3141 10.5208L27.9528 12.5716ZM24.1672 11.4027L24.9752 10.4401L20.3795 6.58272L19.5715 7.54532L24.1672 11.4027ZM25.012 10.3953C25.557 9.71991 25.8154 8.85763 25.7315 7.99376L19.7596 8.57378C19.6916 7.87367 19.9009 7.17486 20.3426 6.62748L25.012 10.3953ZM25.7315 7.99376C25.6476 7.12991 25.2281 6.33345 24.5633 5.77553L20.7062 10.3715C20.1675 9.91934 19.8276 9.27387 19.7596 8.57378L25.7315 7.99376ZM24.5633 5.77553C23.8985 5.2176 23.0414 4.94272 22.1761 5.00996L22.6409 10.9919C21.9397 11.0464 21.245 10.8237 20.7062 10.3715L24.5633 5.77553ZM22.1761 5.00996C21.3108 5.07721 20.5064 5.4812 19.9357 6.13514L24.4566 10.08C23.9941 10.61 23.3422 10.9374 22.6409 10.9919L22.1761 5.00996ZM19.8983 6.1789L19.0904 7.14149L23.6861 10.9989L24.494 10.0363L19.8983 6.1789ZM19.0548 7.18465C18.5091 7.86 18.2502 8.72255 18.3338 9.58683L24.3059 9.00893C24.3737 9.70937 24.1639 10.4084 23.7216 10.9557L19.0548 7.18465ZM18.3338 9.58683C18.4174 10.4511 18.8369 11.248 19.502 11.8062L23.3592 7.21029C23.8982 7.66266 24.2381 8.3085 24.3059 9.00893L18.3338 9.58683ZM19.502 11.8062C20.1671 12.3644 21.0247 12.6393 21.8904 12.5717L21.4236 6.5899C22.1251 6.53515 22.8202 6.75792 23.3592 7.21029L19.502 11.8062ZM21.8904 12.5717C22.7561 12.5042 23.5606 12.0996 24.1311 11.445L19.6077 7.50306C20.07 6.97255 20.722 6.64465 21.4236 6.5899L21.8904 12.5717ZM16.5464 5.69232C6.55664 5.80256 3.32412 19.0841 12.0931 23.7771L14.9242 18.487C11.6291 16.7236 12.8263 11.7337 16.6126 11.692L16.5464 5.69232ZM11.7777 18.6818C10.554 19.5462 10.1731 20.8573 10.1145 21.7517C10.0558 22.6499 10.2654 23.8397 11.1095 24.8054L15.627 20.8568C16.0858 21.3817 16.1179 21.897 16.1017 22.1434C16.0859 22.386 15.9678 23.0679 15.2395 23.5824L11.7777 18.6818ZM11.0112 20.9753C10.6513 21.4323 10.39 21.9588 10.2436 22.5217L16.0505 24.0318C15.9884 24.2703 15.8777 24.4934 15.7253 24.6869L11.0112 20.9753ZM10.2436 22.5217C10.0972 23.0846 10.0689 23.6718 10.1605 24.2462L16.0857 23.3013C16.1245 23.5447 16.1125 23.7934 16.0505 24.0318L10.2436 22.5217ZM10.1231 23.7769C10.1242 24.8214 10.5396 25.8227 11.2781 26.5613L15.5208 22.3187C15.9059 22.7038 16.1225 23.226 16.1231 23.7706L10.1231 23.7769ZM11.2781 26.5613C12.0167 27.2999 13.018 27.7153 14.0625 27.7164L14.0689 21.7164C14.6136 21.717 15.1357 21.9336 15.5208 22.3187L11.2781 26.5613ZM14.0657 27.7164H15.0084V21.7164H14.0657V27.7164ZM12.0099 24.8101C12.196 30.7703 20.9648 30.7548 21.1491 24.8094L15.152 24.6235C15.16 24.3645 15.2912 23.9596 15.6499 23.6412C15.9633 23.363 16.31 23.2744 16.5792 23.2743C16.8483 23.2743 17.1953 23.3628 17.5089 23.6411C17.8679 23.9597 17.9989 24.3645 18.007 24.6228L12.0099 24.8101ZM18.1505 27.7164H19.0932V21.7164H18.1505V27.7164ZM19.0965 27.7164C20.1409 27.7153 21.1423 27.2999 21.8808 26.5613L17.6382 22.3187C18.0233 21.9336 18.5454 21.717 19.09 21.7164L19.0965 27.7164ZM21.8808 26.5613C22.6193 25.8228 23.0348 24.8215 23.0359 23.777L17.0359 23.7705C17.0365 23.2259 17.2531 22.7038 17.6382 22.3187L21.8808 26.5613ZM22.9986 24.2455C23.09 23.6713 23.0616 23.0844 22.9153 22.5216L17.1085 24.0319C17.0465 23.7937 17.0345 23.5452 17.0732 23.302L22.9986 24.2455ZM22.9153 22.5216C22.7689 21.9589 22.5077 21.4326 22.1481 20.9757L17.4333 24.6865C17.281 24.4931 17.1705 24.2702 17.1085 24.0319L22.9153 22.5216ZM22.0423 24.8136C22.8982 23.8415 23.1019 22.6414 23.0439 21.7523C22.9864 20.869 22.6112 19.5396 21.3665 18.6714L17.9341 23.5927C17.1843 23.0697 17.0716 22.3714 17.0566 22.1423C17.0413 21.9072 17.0677 21.384 17.5391 20.8486L22.0423 24.8136ZM21.0662 23.7769C29.8407 19.0794 26.5947 5.8004 16.612 5.69232L16.547 11.692C20.3315 11.7329 21.5303 16.7227 18.2344 18.4872L21.0662 23.7769ZM18.5375 24.5742H19.0932V18.5742H18.5375V24.5742ZM19.0912 24.5742C18.3796 24.5737 17.6972 24.2908 17.194 23.7876L21.4367 19.545C20.8156 18.924 19.9735 18.5748 19.0952 18.5742L19.0912 24.5742ZM17.194 23.7876C16.6908 23.2844 16.4079 22.6021 16.4075 21.8904L22.4075 21.8864C22.4069 21.0082 22.0577 20.166 21.4367 19.545L17.194 23.7876ZM16.4075 21.8884V22.2027H22.4075V21.8884H16.4075ZM16.4075 22.2007C16.4079 21.489 16.6908 20.8067 17.194 20.3035L21.4367 24.5461C22.0577 23.9251 22.4069 23.083 22.4075 22.2047L16.4075 22.2007ZM17.194 20.3035C17.6972 19.8003 18.3796 19.5174 19.0912 19.5169L19.0952 25.5169C19.9735 25.5163 20.8157 25.1671 21.4367 24.5461L17.194 20.3035ZM19.0932 19.5169H14.0657V25.5169H19.0932V19.5169ZM14.0677 19.5169C14.7794 19.5174 15.4617 19.8003 15.9649 20.3035L11.7223 24.5461C12.3433 25.1671 13.1854 25.5163 14.0637 25.5169L14.0677 19.5169ZM15.9649 20.3035C16.4681 20.8067 16.751 21.489 16.7515 22.2007L10.7515 22.2047C10.7521 23.0829 11.1012 23.9251 11.7223 24.5461L15.9649 20.3035ZM16.7515 22.2027V21.8884H10.7515V22.2027H16.7515ZM16.7515 21.8904C16.751 22.6021 16.4681 23.2844 15.9649 23.7876L11.7223 19.545C11.1012 20.166 10.7521 21.0082 10.7515 21.8864L16.7515 21.8904ZM15.9649 23.7876C15.4617 24.2908 14.7793 24.5737 14.0677 24.5742L14.0637 18.5742C13.1855 18.5748 12.3433 18.924 11.7223 19.545L15.9649 23.7876ZM14.0657 24.5742H18.5375V18.5742H14.0657V24.5742ZM14.5223 24.6826C14.5286 24.1409 14.7483 23.6236 15.1336 23.2429L19.3505 27.5111C20.089 26.7815 20.5099 25.7901 20.5219 24.7521L14.5223 24.6826ZM15.1336 23.2429C15.5189 22.8622 16.0389 22.6488 16.5805 22.6491L16.5776 28.6491C17.6157 28.6496 18.6121 28.2407 19.3505 27.5111L15.1336 23.2429ZM16.5805 22.6491C17.1222 22.6493 17.642 22.8632 18.0269 23.2443L13.8058 27.5084C14.5435 28.2387 15.5395 28.6486 16.5776 28.6491L16.5805 22.6491ZM18.0269 23.2443C18.4119 23.6254 18.631 24.1429 18.6368 24.6846L12.6371 24.7482C12.6481 25.7863 13.0681 26.7781 13.8058 27.5084L18.0269 23.2443ZM15.6355 27.7164L17.5207 27.7173L17.5236 21.7173L15.6384 21.7164L15.6355 27.7164ZM16.4075 23.7718C16.4079 23.0601 16.6908 22.3778 17.194 21.8746L21.4367 26.1172C22.0577 25.4962 22.4069 24.6541 22.4075 23.7758L16.4075 23.7718ZM17.194 21.8746C17.6972 21.3714 18.3796 21.0885 19.0912 21.088L19.0952 27.088C19.9735 27.0874 20.8157 26.7382 21.4367 26.1172L17.194 21.8746ZM19.0932 21.088H14.0657V27.088H19.0932V21.088ZM14.0677 21.088C14.7794 21.0885 15.4617 21.3714 15.9649 21.8746L11.7223 26.1172C12.3433 26.7382 13.1854 27.0874 14.0637 27.088L14.0677 21.088ZM15.9649 21.8746C16.4681 22.3778 16.751 23.0601 16.7515 23.7718L10.7515 23.7758C10.7521 24.654 11.1012 25.4962 11.7223 26.1172L15.9649 21.8746ZM16.7515 23.7738V23.4595H10.7515V23.7738H16.7515ZM16.7515 23.4615C16.751 24.1732 16.4681 24.8555 15.9649 25.3587L11.7223 21.1161C11.1012 21.7371 10.7521 22.5793 10.7515 23.4575L16.7515 23.4615ZM15.9649 25.3587C15.4617 25.8619 14.7793 26.1448 14.0677 26.1453L14.0637 20.1453C13.1855 20.1459 12.3433 20.495 11.7223 21.1161L15.9649 25.3587ZM14.0657 26.1453H19.0932V20.1453H14.0657V26.1453ZM19.0912 26.1453C18.3796 26.1448 17.6972 25.8619 17.194 25.3587L21.4367 21.1161C20.8156 20.4951 19.9735 20.1459 19.0952 20.1453L19.0912 26.1453ZM17.194 25.3587C16.6908 24.8555 16.4079 24.1732 16.4075 23.4615L22.4075 23.4575C22.4069 22.5793 22.0577 21.7371 21.4367 21.1161L17.194 25.3587ZM16.4075 23.4595V23.7738H22.4075V23.4595H16.4075ZM18.4899 17.9458H14.669V23.9458H18.4899V17.9458ZM15.6715 18.1182C12.4968 16.9927 13.2119 12.3787 16.6309 12.3202L16.5282 6.32104C6.47536 6.49314 4.14771 20.3984 13.6665 23.7733L15.6715 18.1182ZM16.5278 12.3202C19.9477 12.3792 20.6618 16.9929 17.4876 18.1182L19.4923 23.7734C29.0096 20.3995 26.6858 6.49473 16.6314 6.32105L16.5278 12.3202Z" fill="white" mask="url(#path-2-inside-1_2008_1236)"/>
<mask id="path-4-inside-2_2008_1236" fill="white">
<path d="M16.9399 10.8908C16.5851 10.8414 16.2237 10.8681 15.8799 10.969C15.5362 11.07 15.2178 11.2429 14.946 11.4763C14.6741 11.7097 14.4551 11.9983 14.3034 12.3229C14.1516 12.6475 14.0707 13.0006 14.0659 13.3589V13.7188C14.0687 13.967 14.1693 14.204 14.3457 14.3785C14.5222 14.553 14.7604 14.6509 15.0086 14.6509C15.2568 14.6509 15.495 14.553 15.6714 14.3785C15.8479 14.204 15.9484 13.9669 15.9512 13.7188V13.3589C15.9514 13.2044 16.0127 13.0563 16.1219 12.9471C16.2311 12.8378 16.3792 12.7764 16.5336 12.7762H16.9399C17.0944 12.7764 17.2425 12.8378 17.3516 12.9471C17.4608 13.0563 17.5222 13.2044 17.5223 13.3589V13.7188C17.5124 13.8641 17.4565 14.0024 17.3629 14.1139C17.2692 14.2254 17.1426 14.3043 17.0013 14.3393C16.0738 14.7809 15.2432 16.148 15.8315 17.1138C15.6198 17.2711 15.4631 17.4912 15.3837 17.7426C15.3042 17.9941 15.3061 18.2642 15.3889 18.5145C15.4718 18.7649 15.6314 18.9828 15.8452 19.1372C16.059 19.2917 16.316 19.3748 16.5797 19.3748C16.8434 19.3748 17.1004 19.2917 17.3142 19.1372C17.5279 18.9828 17.6876 18.7649 17.7704 18.5145C17.8533 18.2642 17.8551 17.9941 17.7757 17.7426C17.6962 17.4912 17.5395 17.2711 17.3279 17.1138C17.6263 16.7935 17.3853 16.2333 17.8439 16.0261C20.3456 15.0274 19.746 10.874 16.9399 10.8908ZM16.5797 18.7463C16.4146 18.7439 16.2571 18.6767 16.1412 18.5591C16.0253 18.4415 15.9603 18.283 15.9603 18.1179C15.9603 17.9528 16.0253 17.7943 16.1412 17.6767C16.2571 17.5591 16.4146 17.4918 16.5797 17.4894C16.7448 17.4918 16.9023 17.5591 17.0182 17.6767C17.1341 17.7943 17.1991 17.9528 17.1991 18.1179C17.1991 18.283 17.1341 18.4415 17.0182 18.5591C16.9023 18.6767 16.7448 18.7439 16.5797 18.7463ZM18.7792 13.7188C18.7762 14.0985 18.6584 14.4683 18.4413 14.7798C18.2242 15.0912 17.918 15.3297 17.5628 15.4639C17.3612 15.5638 17.1917 15.7183 17.0735 15.9097C16.9552 16.1011 16.893 16.3218 16.8939 16.5468C16.8939 16.6301 16.8608 16.71 16.8019 16.769C16.7429 16.8279 16.663 16.861 16.5797 16.861C16.4963 16.861 16.4164 16.8279 16.3575 16.769C16.2986 16.71 16.2655 16.6301 16.2655 16.5468C16.2643 16.205 16.359 15.8696 16.5386 15.5788C16.7183 15.288 16.9759 15.0534 17.2821 14.9014C17.5312 14.8181 17.7485 14.6596 17.904 14.4479C18.0595 14.2362 18.1457 13.9815 18.1508 13.7188V13.3589C18.1504 13.0378 18.0228 12.73 17.7958 12.5029C17.5688 12.2759 17.261 12.1481 16.9399 12.1477H16.5336C16.2126 12.1481 15.9048 12.2759 15.6778 12.5029C15.4508 12.73 15.3231 13.0378 15.3228 13.3589V13.7188C15.3216 13.8013 15.2879 13.8801 15.2291 13.938C15.1703 13.9959 15.0911 14.0284 15.0086 14.0284C14.926 14.0284 14.8468 13.9959 14.788 13.938C14.7292 13.8801 14.6956 13.8013 14.6944 13.7188C14.3992 10.754 19.0695 10.7523 18.7792 13.7188Z"/>
</mask>
<path d="M16.9399 10.8908C16.5851 10.8414 16.2237 10.8681 15.8799 10.969C15.5362 11.07 15.2178 11.2429 14.946 11.4763C14.6741 11.7097 14.4551 11.9983 14.3034 12.3229C14.1516 12.6475 14.0707 13.0006 14.0659 13.3589V13.7188C14.0687 13.967 14.1693 14.204 14.3457 14.3785C14.5222 14.553 14.7604 14.6509 15.0086 14.6509C15.2568 14.6509 15.495 14.553 15.6714 14.3785C15.8479 14.204 15.9484 13.9669 15.9512 13.7188V13.3589C15.9514 13.2044 16.0127 13.0563 16.1219 12.9471C16.2311 12.8378 16.3792 12.7764 16.5336 12.7762H16.9399C17.0944 12.7764 17.2425 12.8378 17.3516 12.9471C17.4608 13.0563 17.5222 13.2044 17.5223 13.3589V13.7188C17.5124 13.8641 17.4565 14.0024 17.3629 14.1139C17.2692 14.2254 17.1426 14.3043 17.0013 14.3393C16.0738 14.7809 15.2432 16.148 15.8315 17.1138C15.6198 17.2711 15.4631 17.4912 15.3837 17.7426C15.3042 17.9941 15.3061 18.2642 15.3889 18.5145C15.4718 18.7649 15.6314 18.9828 15.8452 19.1372C16.059 19.2917 16.316 19.3748 16.5797 19.3748C16.8434 19.3748 17.1004 19.2917 17.3142 19.1372C17.5279 18.9828 17.6876 18.7649 17.7704 18.5145C17.8533 18.2642 17.8551 17.9941 17.7757 17.7426C17.6962 17.4912 17.5395 17.2711 17.3279 17.1138C17.6263 16.7935 17.3853 16.2333 17.8439 16.0261C20.3456 15.0274 19.746 10.874 16.9399 10.8908ZM16.5797 18.7463C16.4146 18.7439 16.2571 18.6767 16.1412 18.5591C16.0253 18.4415 15.9603 18.283 15.9603 18.1179C15.9603 17.9528 16.0253 17.7943 16.1412 17.6767C16.2571 17.5591 16.4146 17.4918 16.5797 17.4894C16.7448 17.4918 16.9023 17.5591 17.0182 17.6767C17.1341 17.7943 17.1991 17.9528 17.1991 18.1179C17.1991 18.283 17.1341 18.4415 17.0182 18.5591C16.9023 18.6767 16.7448 18.7439 16.5797 18.7463ZM18.7792 13.7188C18.7762 14.0985 18.6584 14.4683 18.4413 14.7798C18.2242 15.0912 17.918 15.3297 17.5628 15.4639C17.3612 15.5638 17.1917 15.7183 17.0735 15.9097C16.9552 16.1011 16.893 16.3218 16.8939 16.5468C16.8939 16.6301 16.8608 16.71 16.8019 16.769C16.7429 16.8279 16.663 16.861 16.5797 16.861C16.4963 16.861 16.4164 16.8279 16.3575 16.769C16.2986 16.71 16.2655 16.6301 16.2655 16.5468C16.2643 16.205 16.359 15.8696 16.5386 15.5788C16.7183 15.288 16.9759 15.0534 17.2821 14.9014C17.5312 14.8181 17.7485 14.6596 17.904 14.4479C18.0595 14.2362 18.1457 13.9815 18.1508 13.7188V13.3589C18.1504 13.0378 18.0228 12.73 17.7958 12.5029C17.5688 12.2759 17.261 12.1481 16.9399 12.1477H16.5336C16.2126 12.1481 15.9048 12.2759 15.6778 12.5029C15.4508 12.73 15.3231 13.0378 15.3228 13.3589V13.7188C15.3216 13.8013 15.2879 13.8801 15.2291 13.938C15.1703 13.9959 15.0911 14.0284 15.0086 14.0284C14.926 14.0284 14.8468 13.9959 14.788 13.938C14.7292 13.8801 14.6956 13.8013 14.6944 13.7188C14.3992 10.754 19.0695 10.7523 18.7792 13.7188Z" fill="white"/>
<path d="M16.9399 10.8908L16.6641 12.8717L16.8073 12.8917L16.9519 12.8908L16.9399 10.8908ZM14.0659 13.3589L12.0661 13.3322L12.0659 13.3456V13.3589H14.0659ZM14.0659 13.7188H12.0659V13.7301L12.066 13.7413L14.0659 13.7188ZM15.9512 13.7188L17.9511 13.7413L17.9512 13.73V13.7188H15.9512ZM15.9512 13.3589L13.9512 13.3574V13.3589H15.9512ZM16.5336 12.7762V10.7762L16.5311 10.7762L16.5336 12.7762ZM16.9399 12.7762L16.9425 10.7762H16.9399V12.7762ZM17.5223 13.3589H19.5223L19.5223 13.3574L17.5223 13.3589ZM17.5223 13.7188L19.5176 13.8559L19.5223 13.7874V13.7188H17.5223ZM17.0013 14.3393L16.5214 12.3977L16.3246 12.4463L16.1415 12.5335L17.0013 14.3393ZM15.8315 17.1138L17.0245 18.719L18.4883 17.6311L17.5396 16.0734L15.8315 17.1138ZM17.3279 17.1138L15.8645 15.7506L14.3411 17.3859L16.1348 18.719L17.3279 17.1138ZM17.8439 16.0261L17.1024 14.1686L17.0611 14.1851L17.0205 14.2035L17.8439 16.0261ZM16.5797 18.7463L16.5506 20.7461L16.5796 20.7465L16.6086 20.7461L16.5797 18.7463ZM16.5797 17.4894L16.6087 15.4897L16.5797 15.4892L16.5508 15.4897L16.5797 17.4894ZM18.7792 13.7188L16.7887 13.524L16.78 13.6133L16.7793 13.703L18.7792 13.7188ZM17.5628 15.4639L16.856 13.5929L16.7633 13.628L16.6745 13.672L17.5628 15.4639ZM16.8939 16.5468H18.8939L18.8939 16.5391L16.8939 16.5468ZM16.2655 16.5468H18.2655L18.2654 16.5402L16.2655 16.5468ZM17.2821 14.9014L16.6474 13.0048L16.5167 13.0486L16.3931 13.1098L17.2821 14.9014ZM18.1508 13.7188L20.1504 13.7572L20.1508 13.738V13.7188H18.1508ZM18.1508 13.3589H20.1508L20.1508 13.3568L18.1508 13.3589ZM16.9399 12.1477L16.9425 10.1477H16.9399V12.1477ZM16.5336 12.1477V10.1477L16.531 10.1477L16.5336 12.1477ZM15.3228 13.3589L13.3228 13.3568V13.3589H15.3228ZM15.3228 13.7188L17.3226 13.7485L17.3228 13.7336V13.7188H15.3228ZM14.6944 13.7188L16.6941 13.6892L16.6929 13.6047L16.6845 13.5207L14.6944 13.7188ZM17.2158 8.90995C16.5799 8.82141 15.9325 8.86916 15.3165 9.05003L16.4434 12.888C16.515 12.867 16.5902 12.8614 16.6641 12.8717L17.2158 8.90995ZM15.3165 9.05003C14.7005 9.2309 14.13 9.54075 13.643 9.95901L16.249 12.9936C16.3056 12.945 16.3718 12.909 16.4434 12.888L15.3165 9.05003ZM13.643 9.95901C13.1559 10.3773 12.7634 10.8944 12.4916 11.4759L16.1152 13.1699C16.1468 13.1023 16.1924 13.0422 16.249 12.9936L13.643 9.95901ZM12.4916 11.4759C12.2197 12.0575 12.0747 12.6903 12.0661 13.3322L16.0657 13.3856C16.0667 13.311 16.0836 13.2374 16.1152 13.1699L12.4916 11.4759ZM12.0659 13.3589V13.7188H16.0659V13.3589H12.0659ZM12.066 13.7413C12.0748 14.516 12.3886 15.256 12.9395 15.8007L15.752 12.9564C15.9499 13.1521 16.0627 13.4179 16.0658 13.6963L12.066 13.7413ZM12.9395 15.8007C13.4904 16.3454 14.2339 16.6509 15.0086 16.6509L15.0086 12.6509C15.2869 12.6509 15.554 12.7607 15.752 12.9564L12.9395 15.8007ZM15.0086 16.6509C15.7833 16.6509 16.5268 16.3454 17.0777 15.8006L14.2652 12.9564C14.4631 12.7607 14.7302 12.6509 15.0086 12.6509L15.0086 16.6509ZM17.0777 15.8006C17.6286 15.2559 17.9424 14.5159 17.9511 13.7413L13.9514 13.6963C13.9545 13.418 14.0673 13.1521 14.2652 12.9564L17.0777 15.8006ZM17.9512 13.7188V13.3589H13.9512V13.7188H17.9512ZM17.9512 13.3604C17.951 13.7357 17.8018 14.0955 17.5365 14.3609L14.7073 11.5332C14.2237 12.0171 13.9518 12.6732 13.9512 13.3574L17.9512 13.3604ZM17.5365 14.3609C17.2712 14.6263 16.9115 14.7757 16.5362 14.7762L16.5311 10.7762C15.8469 10.777 15.191 11.0493 14.7073 11.5332L17.5365 14.3609ZM16.5336 14.7762H16.9399V10.7762H16.5336V14.7762ZM16.9373 14.7762C16.5621 14.7757 16.2023 14.6263 15.937 14.3609L18.7662 11.5332C18.2826 11.0493 17.6267 10.777 16.9425 10.7762L16.9373 14.7762ZM15.937 14.3609C15.6718 14.0955 15.5226 13.7357 15.5223 13.3604L19.5223 13.3574C19.5218 12.6732 19.2499 12.0172 18.7662 11.5332L15.937 14.3609ZM15.5223 13.3589V13.7188H19.5223V13.3589H15.5223ZM15.527 13.5817C15.5461 13.3045 15.6526 13.0405 15.8313 12.8277L18.8944 15.4001C19.2604 14.9643 19.4786 14.4236 19.5176 13.8559L15.527 13.5817ZM15.8313 12.8277C16.01 12.6149 16.2517 12.4644 16.5214 12.3977L17.4811 16.2808C18.0336 16.1443 18.5285 15.8359 18.8944 15.4001L15.8313 12.8277ZM16.1415 12.5335C15.2212 12.9716 14.4721 13.7801 14.047 14.6601C13.6213 15.5417 13.3537 16.8906 14.1234 18.1542L17.5396 16.0734C17.5765 16.134 17.6027 16.1994 17.6182 16.2628C17.6333 16.3248 17.6355 16.3745 17.6344 16.406C17.6324 16.4629 17.6203 16.459 17.6489 16.3998C17.6764 16.3429 17.7226 16.2751 17.7804 16.2154C17.8407 16.1533 17.8768 16.1375 17.861 16.145L16.1415 12.5335ZM14.6385 15.5086C14.0893 15.9168 13.6828 16.4876 13.4766 17.1401L17.2908 18.3452C17.2435 18.4947 17.1504 18.6255 17.0245 18.719L14.6385 15.5086ZM13.4766 17.1401C13.2705 17.7925 13.2752 18.4933 13.4902 19.1429L17.2876 17.8862C17.3369 18.0351 17.338 18.1957 17.2908 18.3452L13.4766 17.1401ZM13.4902 19.1429C13.7051 19.7925 14.1194 20.3578 14.674 20.7584L17.0164 17.516C17.1435 17.6078 17.2384 17.7374 17.2876 17.8862L13.4902 19.1429ZM14.674 20.7584C15.2286 21.1591 15.8955 21.3748 16.5797 21.3748V17.3748C16.7365 17.3748 16.8893 17.4242 17.0164 17.516L14.674 20.7584ZM16.5797 21.3748C17.2639 21.3748 17.9307 21.1591 18.4854 20.7584L16.143 17.516C16.2701 17.4242 16.4229 17.3748 16.5797 17.3748V21.3748ZM18.4854 20.7584C19.04 20.3578 19.4542 19.7925 19.6692 19.1429L15.8717 17.8862C15.921 17.7374 16.0159 17.6078 16.143 17.516L18.4854 20.7584ZM19.6692 19.1429C19.8841 18.4933 19.8889 17.7925 19.6827 17.1401L15.8686 18.3452C15.8214 18.1957 15.8224 18.0351 15.8717 17.8862L19.6692 19.1429ZM19.6827 17.1401C19.4766 16.4876 19.07 15.9168 18.5209 15.5086L16.1348 18.719C16.009 18.6255 15.9158 18.4947 15.8686 18.3452L19.6827 17.1401ZM18.7913 18.4771C19.1686 18.072 19.3283 17.6346 19.404 17.347C19.441 17.2066 19.4626 17.0829 19.4752 17.0059C19.4815 16.9673 19.4872 16.9296 19.4907 16.907C19.4948 16.8801 19.4968 16.867 19.4985 16.8568C19.5022 16.8345 19.4985 16.863 19.4845 16.9131C19.4698 16.966 19.4379 17.0653 19.3735 17.1851C19.3064 17.3099 19.2097 17.4466 19.0754 17.5734C18.9409 17.7003 18.7984 17.7895 18.6674 17.8487L17.0205 14.2035C16.4908 14.4428 16.0969 14.8322 15.85 15.2918C15.6388 15.6847 15.5762 16.0601 15.5531 16.1983C15.5126 16.4409 15.5312 16.3463 15.5358 16.3287C15.5584 16.2427 15.6363 15.9955 15.8645 15.7506L18.7913 18.4771ZM18.5854 17.8836C20.923 16.9504 21.6536 14.5923 21.3566 12.758C21.0532 10.8839 19.5588 8.87511 16.9279 8.89087L16.9519 12.8908C17.1203 12.8898 17.1789 12.9369 17.2185 12.9756C17.2842 13.04 17.3728 13.1798 17.408 13.3973C17.4432 13.6142 17.4084 13.811 17.3464 13.9413C17.2958 14.0478 17.2278 14.1186 17.1024 14.1686L18.5854 17.8836ZM16.6087 16.7465C16.969 16.7518 17.3127 16.8986 17.5656 17.1552L14.7167 19.963C15.2014 20.4548 15.8602 20.7361 16.5506 20.7461L16.6087 16.7465ZM17.5656 17.1552C17.8185 17.4118 17.9603 17.7576 17.9603 18.1179L13.9603 18.1178C13.9603 18.8084 14.232 19.4712 14.7167 19.963L17.5656 17.1552ZM17.9603 18.1179C17.9603 18.4782 17.8185 18.824 17.5656 19.0807L14.7168 16.2727C14.2321 16.7645 13.9603 17.4273 13.9603 18.1178L17.9603 18.1179ZM17.5656 19.0807C17.3126 19.3373 16.9689 19.484 16.6086 19.4892L16.5508 15.4897C15.8603 15.4996 15.2015 15.7809 14.7168 16.2727L17.5656 19.0807ZM16.5507 19.4892C16.1904 19.484 15.8467 19.3372 15.5938 19.0806L18.4427 16.2728C17.958 15.781 17.2992 15.4997 16.6087 15.4897L16.5507 19.4892ZM15.5938 19.0806C15.3409 18.824 15.1991 18.4782 15.1991 18.1179L19.1991 18.1179C19.1991 17.4274 18.9274 16.7646 18.4427 16.2728L15.5938 19.0806ZM15.1991 18.1179C15.1991 17.7576 15.3409 17.4117 15.5938 17.1551L18.4426 19.963C18.9273 19.4713 19.1991 18.8085 19.1991 18.1179L15.1991 18.1179ZM15.5938 17.1551C15.8467 16.8985 16.1905 16.7517 16.5507 16.7465L16.6086 20.7461C17.2991 20.7361 17.9579 20.4548 18.4426 19.963L15.5938 17.1551ZM16.7793 13.703C16.7795 13.6791 16.7869 13.6557 16.8006 13.6361L20.0821 15.9234C20.53 15.2809 20.773 14.5178 20.7791 13.7346L16.7793 13.703ZM16.8006 13.6361C16.8143 13.6165 16.8336 13.6014 16.856 13.5929L18.2696 17.3348C19.0024 17.058 19.6342 16.566 20.0821 15.9234L16.8006 13.6361ZM16.6745 13.672C16.1379 13.938 15.6867 14.3491 15.3719 14.8586L18.775 16.9607C18.6968 17.0874 18.5846 17.1896 18.4512 17.2558L16.6745 13.672ZM15.3719 14.8586C15.0572 15.3681 14.8916 15.9556 14.8939 16.5545L18.8939 16.5391C18.8945 16.688 18.8533 16.8341 18.775 16.9607L15.3719 14.8586ZM14.8939 16.5468C14.8939 16.0997 15.0715 15.6709 15.3876 15.3548L18.2161 18.1832C18.6501 17.7492 18.8939 17.1606 18.8939 16.5468H14.8939ZM15.3876 15.3548C15.7038 15.0386 16.1326 14.861 16.5797 14.861V18.861C17.1934 18.861 17.7821 18.6172 18.2161 18.1832L15.3876 15.3548ZM16.5797 14.861C17.0268 14.861 17.4556 15.0386 17.7717 15.3548L14.9433 18.1832C15.3773 18.6172 15.9659 18.861 16.5797 18.861V14.861ZM17.7717 15.3548C18.0879 15.6709 18.2655 16.0997 18.2655 16.5468H14.2655C14.2655 17.1606 14.5093 17.7492 14.9433 18.1832L17.7717 15.3548ZM18.2654 16.5402C18.2655 16.5719 18.2568 16.6031 18.2401 16.6301L14.8372 14.5276C14.4612 15.1362 14.2631 15.838 14.2655 16.5534L18.2654 16.5402ZM18.2401 16.6301C18.2234 16.6571 18.1994 16.6789 18.171 16.693L16.3931 13.1098C15.7523 13.4278 15.2133 13.919 14.8372 14.5276L18.2401 16.6301ZM17.9167 16.7981C18.5573 16.5837 19.1159 16.1763 19.5159 15.6319L16.2921 13.2639C16.381 13.1429 16.5051 13.0524 16.6474 13.0048L17.9167 16.7981ZM19.5159 15.6319C19.9158 15.0875 20.1374 14.4326 20.1504 13.7572L16.1511 13.6804C16.154 13.5303 16.2033 13.3849 16.2921 13.2639L19.5159 15.6319ZM20.1508 13.7188V13.3589H16.1508V13.7188H20.1508ZM20.1508 13.3568C20.1499 12.5061 19.8116 11.6905 19.2102 11.0889L16.3814 13.917C16.2339 13.7695 16.151 13.5695 16.1508 13.361L20.1508 13.3568ZM19.2102 11.0889C18.6087 10.4873 17.7932 10.1488 16.9425 10.1477L16.9373 14.1477C16.7288 14.1474 16.5288 14.0645 16.3814 13.917L19.2102 11.0889ZM16.9399 10.1477H16.5336V14.1477H16.9399V10.1477ZM16.531 10.1477C15.6803 10.1488 14.8648 10.4873 14.2634 11.0889L17.0922 13.917C16.9447 14.0645 16.7448 14.1474 16.5362 14.1477L16.531 10.1477ZM14.2634 11.0889C13.662 11.6905 13.3237 12.5061 13.3228 13.3568L17.3228 13.361C17.3226 13.5695 17.2396 13.7695 17.0922 13.917L14.2634 11.0889ZM13.3228 13.3589V13.7188H17.3228V13.3589H13.3228ZM13.323 13.6892C13.3296 13.2464 13.5101 12.8241 13.8254 12.5133L16.6328 15.3627C17.0658 14.9361 17.3136 14.3562 17.3226 13.7485L13.323 13.6892ZM13.8254 12.5133C14.1408 12.2026 14.5658 12.0284 15.0086 12.0284V16.0284C15.6164 16.0284 16.1998 15.7893 16.6328 15.3627L13.8254 12.5133ZM15.0086 12.0284C15.4513 12.0284 15.8763 12.2026 16.1917 12.5133L13.3843 15.3627C13.8173 15.7893 14.4007 16.0284 15.0086 16.0284V12.0284ZM16.1917 12.5133C16.5071 12.8241 16.6876 13.2464 16.6941 13.6892L12.6946 13.7485C12.7036 14.3562 12.9514 14.9361 13.3843 15.3627L16.1917 12.5133ZM16.6845 13.5207C16.679 13.465 16.6811 13.4316 16.6827 13.4173C16.6842 13.4035 16.6855 13.4045 16.6814 13.4162C16.6772 13.4281 16.6696 13.4443 16.658 13.462C16.6466 13.4794 16.6343 13.4934 16.6235 13.5036C16.6023 13.5237 16.5957 13.5211 16.6191 13.5126C16.6435 13.5037 16.6843 13.4946 16.7353 13.4946C16.7864 13.4946 16.8273 13.5037 16.8519 13.5126C16.8756 13.5213 16.8694 13.524 16.8485 13.5043C16.8379 13.4943 16.8258 13.4805 16.8145 13.4634C16.8031 13.446 16.7957 13.43 16.7915 13.4184C16.7874 13.4069 16.7888 13.4061 16.7904 13.4202C16.792 13.4347 16.7942 13.4682 16.7887 13.524L20.7697 13.9136C20.8981 12.6016 20.4691 11.422 19.5953 10.5965C18.7732 9.81992 17.7063 9.4944 16.7346 9.49458C15.7629 9.49476 14.6959 9.82067 13.8743 10.5981C13.0008 11.4247 12.5736 12.6053 12.7042 13.917L16.6845 13.5207Z" fill="white" mask="url(#path-4-inside-2_2008_1236)"/>
</svg>
