<svg width="10" height="9" viewBox="0 0 10 9" fill="none" xmlns="http://www.w3.org/2000/svg">
<path d="M9.99984 4.50021C9.99659 4.14947 9.85527 3.81414 9.6065 3.56687L6.7465 0.700209C6.6216 0.576042 6.45263 0.506348 6.2765 0.506348C6.10038 0.506348 5.93141 0.576042 5.8065 0.700209C5.74402 0.762185 5.69442 0.835919 5.66058 0.917158C5.62673 0.998397 5.60931 1.08553 5.60931 1.17354C5.60931 1.26155 5.62673 1.34869 5.66058 1.42993C5.69442 1.51117 5.74402 1.5849 5.8065 1.64687L7.99984 3.83354H1.33317C1.15636 3.83354 0.98679 3.90378 0.861766 4.0288C0.736742 4.15383 0.666504 4.32339 0.666504 4.50021C0.666504 4.67702 0.736742 4.84658 0.861766 4.97161C0.98679 5.09663 1.15636 5.16687 1.33317 5.16687H7.99984L5.8065 7.3602C5.68097 7.48485 5.61009 7.65427 5.60947 7.83118C5.60884 8.00809 5.67852 8.178 5.80317 8.30353C5.92782 8.42907 6.09724 8.49995 6.27415 8.50057C6.45106 8.5012 6.62097 8.43152 6.7465 8.30687L9.6065 5.4402C9.8569 5.1913 9.99835 4.85326 9.99984 4.50021Z" fill="#374957"/>
</svg>
