<svg width="30" height="27" viewBox="0 0 30 27" fill="none" xmlns="http://www.w3.org/2000/svg">
<g clip-path="url(#clip0_2008_1119)">
<g clip-path="url(#clip1_2008_1119)">
<g clip-path="url(#clip2_2008_1119)">
<path d="M27.5431 13.6668C27.5431 6.49314 21.7277 0.677734 14.554 0.677734C7.38035 0.677734 1.56494 6.49314 1.56494 13.6668C1.56494 20.8405 7.38035 26.6559 14.554 26.6559C21.7277 26.6559 27.5431 20.8405 27.5431 13.6668Z" fill="#E7E7E7"/>
<path fill-rule="evenodd" clip-rule="evenodd" d="M20.0701 8.67694L12.32 16.1565L10.2634 13.9592C9.88455 13.602 9.28921 13.5804 8.85624 13.8834C8.4341 14.1973 8.31503 14.7494 8.57481 15.1932L11.0103 19.1548C11.2484 19.5229 11.6597 19.7502 12.1252 19.7502C12.5689 19.7502 12.9911 19.5229 13.2292 19.1548C13.6189 18.6461 21.0551 9.78101 21.0551 9.78101C22.0293 8.78518 20.8495 7.90842 20.0701 8.66612V8.67694Z" fill="black"/>
</g>
</g>
</g>
<defs>
<clipPath id="clip0_2008_1119">
<rect width="29.0407" height="25.9782" fill="white" transform="translate(0.0336914 0.677734)"/>
</clipPath>
<clipPath id="clip1_2008_1119">
<rect width="29.0407" height="25.9782" fill="white" transform="translate(0.0336914 0.677734)"/>
</clipPath>
<clipPath id="clip2_2008_1119">
<rect width="25.9782" height="25.9782" fill="white" transform="translate(1.56494 0.677734)"/>
</clipPath>
</defs>
</svg>
