<svg width="30" height="27" viewBox="0 0 30 27" fill="none" xmlns="http://www.w3.org/2000/svg">
<g clip-path="url(#clip0_2008_1133)">
<g clip-path="url(#clip1_2008_1133)">
<g clip-path="url(#clip2_2008_1133)">
<path d="M28.3092 13.6668C28.3092 6.49314 22.4938 0.677734 15.3201 0.677734C8.14646 0.677734 2.33105 6.49314 2.33105 13.6668C2.33105 20.8405 8.14646 26.6559 15.3201 26.6559C22.4938 26.6559 28.3092 20.8405 28.3092 13.6668Z" fill="#009DB5"/>
<path fill-rule="evenodd" clip-rule="evenodd" d="M20.8362 8.67694L13.0861 16.1565L11.0295 13.9592C10.6507 13.602 10.0553 13.5804 9.62236 13.8834C9.20021 14.1973 9.08114 14.7494 9.34093 15.1932L11.7764 19.1548C12.0145 19.5229 12.4258 19.7502 12.8913 19.7502C13.335 19.7502 13.7572 19.5229 13.9953 19.1548C14.385 18.6461 21.8212 9.78101 21.8212 9.78101C22.7954 8.78518 21.6156 7.90842 20.8362 8.66612V8.67694Z" fill="#E8F6F8"/>
</g>
</g>
</g>
<defs>
<clipPath id="clip0_2008_1133">
<rect width="29.0407" height="25.9782" fill="white" transform="translate(0.799805 0.677734)"/>
</clipPath>
<clipPath id="clip1_2008_1133">
<rect width="29.0407" height="25.9782" fill="white" transform="translate(0.799805 0.677734)"/>
</clipPath>
<clipPath id="clip2_2008_1133">
<rect width="25.9782" height="25.9782" fill="white" transform="translate(2.33105 0.677734)"/>
</clipPath>
</defs>
</svg>
