<svg width="34" height="34" viewBox="0 0 34 34" fill="none" xmlns="http://www.w3.org/2000/svg">
<circle cx="17" cy="17" r="17" fill="#009DB5"/>
<path d="M17.288 8.08C18.92 8.08 20.224 8.528 21.2 9.424C22.192 10.32 22.688 11.544 22.688 13.096C22.688 14.712 22.176 15.928 21.152 16.744C20.128 17.56 18.768 17.968 17.072 17.968L16.976 19.864H14.6L14.48 16.096H15.272C16.824 16.096 18.008 15.888 18.824 15.472C19.656 15.056 20.072 14.264 20.072 13.096C20.072 12.248 19.824 11.584 19.328 11.104C18.848 10.624 18.176 10.384 17.312 10.384C16.448 10.384 15.768 10.616 15.272 11.08C14.776 11.544 14.528 12.192 14.528 13.024H11.96C11.96 12.064 12.176 11.208 12.608 10.456C13.04 9.704 13.656 9.12 14.456 8.704C15.272 8.288 16.216 8.08 17.288 8.08ZM15.752 25.168C15.256 25.168 14.84 25 14.504 24.664C14.168 24.328 14 23.912 14 23.416C14 22.92 14.168 22.504 14.504 22.168C14.84 21.832 15.256 21.664 15.752 21.664C16.232 21.664 16.64 21.832 16.976 22.168C17.312 22.504 17.48 22.92 17.48 23.416C17.48 23.912 17.312 24.328 16.976 24.664C16.64 25 16.232 25.168 15.752 25.168Z" fill="white"/>
</svg>
