<svg width="7" height="7" viewBox="0 0 7 7" fill="none" xmlns="http://www.w3.org/2000/svg">
<path d="M6.82511 3.23305L5.41668 4.32651L5.83859 5.95448C5.86091 6.03959 5.85454 6.12866 5.82027 6.21057C5.786 6.29247 5.72535 6.36357 5.6459 6.41497C5.56646 6.46638 5.47174 6.49581 5.37359 6.49958C5.27545 6.50336 5.17823 6.48132 5.09409 6.43621L3.49797 5.575L1.90529 6.43621C1.82115 6.48132 1.72393 6.50336 1.62578 6.49958C1.52763 6.49581 1.43292 6.46638 1.35347 6.41497C1.27402 6.36357 1.21338 6.29247 1.1791 6.21057C1.14483 6.12866 1.13846 6.03959 1.16079 5.95448L1.58207 4.32818L0.173328 3.23305C0.0988183 3.17588 0.04494 3.10042 0.0184495 3.01612C-0.00804089 2.93182 -0.00596415 2.84244 0.0244193 2.75919C0.0548027 2.67594 0.11214 2.60252 0.189242 2.54814C0.266343 2.49376 0.359776 2.46084 0.457824 2.45351L2.3147 2.31044L3.03953 0.772477C3.07738 0.691778 3.14122 0.622845 3.22303 0.574358C3.30483 0.525872 3.40092 0.5 3.49922 0.5C3.59751 0.5 3.69361 0.525872 3.77541 0.574358C3.85721 0.622845 3.92106 0.691778 3.95891 0.772477L4.68592 2.31044L6.54218 2.45351C6.64022 2.46084 6.73366 2.49376 6.81076 2.54814C6.88786 2.60252 6.9452 2.67594 6.97558 2.75919C7.00596 2.84244 7.00804 2.93182 6.98155 3.01612C6.95506 3.10042 6.90118 3.17588 6.82667 3.23305H6.82511Z" fill="#00CBA0"/>
</svg>
