<svg width="184" height="116" viewBox="0 0 184 116" fill="none" xmlns="http://www.w3.org/2000/svg">
<mask id="path-1-inside-1_2008_1191" fill="white">
<path d="M76.0126 25.7982C67.875 28.9557 62.4655 35.445 57.9575 41.7826C55.3927 45.325 53.7088 49.4275 53.0453 53.7503C52.7734 56.0607 52.9004 58.4007 53.4208 60.6681C47.6109 62.433 41.4532 62.7254 35.5021 61.5189C30.1075 60.1882 25.1567 57.4651 21.1442 53.6216C17.3776 50.0376 14.222 45.8623 11.8019 41.2607C9.62201 37.1307 7.86481 32.7911 6.55711 28.3079C4.66877 21.6297 3.16132 14.8496 2.04205 8.00039C1.17654 3.11095 0.645066 0.418527 0.377155 0.48417C0.0999154 3.09103 0.163763 5.72291 0.567157 8.31325C1.08262 15.3906 2.15774 22.4161 3.78249 29.3237C5.99368 39.6733 10.9872 49.2234 18.2249 56.9448C22.6093 61.437 28.0985 64.6966 34.1412 66.3962C40.8065 67.9742 47.7613 67.854 54.368 66.0466C54.6841 65.9795 55.0078 65.8448 55.3329 65.7582C55.3868 65.8853 55.4483 66.0091 55.5172 66.1287C59.1623 72.2946 64.358 77.3988 70.5876 80.9339L72.6322 82.3101C73.3746 82.6546 74.0522 83.0877 74.7479 83.4818C76.1679 84.2595 77.5684 85.0281 78.9598 85.8162L83.2191 87.7926C84.5981 88.4612 86.0185 89.0409 87.4714 89.5283C88.913 90.0548 90.3246 90.5436 91.7271 91.052C93.1297 91.5603 94.5552 91.8656 95.9158 92.2595C97.2764 92.6535 98.6852 93.046 100.141 93.3889C101.596 93.7319 102.884 93.9256 104.231 94.1947C113.57 95.9196 123.074 96.586 132.563 96.1813C136.617 96.0919 140.345 95.6843 143.757 95.392C147.17 95.0996 150.277 94.5945 153.096 94.0978C160.591 92.9281 167.978 91.146 175.182 88.7696L175.802 88.5587L174.757 89.736L172.445 92.415L168.104 97.524C165.367 100.813 162.969 103.832 161.001 106.433C157.096 111.626 154.972 115.128 155.531 115.767C156.089 116.406 159.312 113.912 164.001 109.487C166.336 107.27 169.061 104.569 172.007 101.496L176.626 96.6583L179.027 94.0442C180.004 93.0379 180.891 91.9479 181.678 90.7867C182.235 89.9679 182.654 89.0638 182.92 88.11C183.199 87.0169 183.208 85.8725 182.948 84.7749C182.536 83.2569 181.768 81.8589 180.709 80.6965C179.333 78.9843 177.834 77.3757 176.222 75.8838C173.549 73.3615 170.572 71.1823 167.36 69.3969C161.866 66.3965 157.975 65.8259 157.661 66.606C157.346 67.3861 160.396 69.5135 164.87 73.2279C167.467 75.4149 169.921 77.7671 172.216 80.2699C173.106 81.2525 173.994 82.3059 174.881 83.43L174.267 83.525C170.171 84.165 163.498 85.6511 152.554 87.0789C149.837 87.4569 146.839 87.7276 143.543 88.0743C140.248 88.4211 136.688 88.6214 132.815 88.6285C123.821 88.9087 114.824 88.228 105.975 86.5982C104.734 86.3549 103.446 86.1131 102.146 85.8426C100.847 85.5722 99.583 85.1755 98.2914 84.8374C96.9998 84.4993 95.6511 84.1821 94.3463 83.7191L90.4122 82.321C89.0447 81.8714 87.7064 81.3376 86.4049 80.7227L82.4973 78.9094C81.1687 78.2929 79.9126 77.5201 78.6098 76.7968L76.7194 75.7534L74.9016 74.5537C73.6337 73.7042 72.3567 72.8741 71.0887 72.0246C69.8887 71.1564 68.7356 70.225 67.6344 69.2344C65.8138 67.6198 64.2115 65.7747 62.8678 63.7458C66.8062 62.3203 70.6984 60.6359 74.6178 58.8928C78.1437 57.3313 81.4617 55.3375 84.4956 52.9573C86.1648 51.6013 87.6453 50.0284 88.8979 48.2803C90.2316 46.4034 91.2089 44.2974 91.781 42.0672C92.3918 39.8194 92.5525 37.4732 92.254 35.1631C91.9315 32.7361 90.8844 30.4627 89.2496 28.6401C87.5963 26.879 85.4078 25.7131 83.0239 25.3237C80.7329 25.0124 78.4003 25.2861 76.2436 26.1191L76.0126 25.7982ZM84.6617 33.5635C85.4514 34.5696 85.9777 35.7567 86.1929 37.0175C86.4081 38.2783 86.3053 39.5728 85.894 40.7839C85.5184 42.1808 84.905 43.5027 84.0808 44.6915C83.1801 45.9613 82.1263 47.1152 80.9432 48.127C78.3334 50.2257 75.467 51.9835 72.4133 53.3582C68.4422 55.3148 64.4761 57.1074 60.4819 58.602C60.1722 57.2302 60.0822 55.8179 60.2152 54.4179C60.6976 51.3819 61.8804 48.5 63.67 46.0005C64.6025 44.6049 65.6599 43.196 66.7851 41.7947C67.8332 40.4583 68.968 39.1922 70.1822 38.0047C72.403 35.7114 75.0591 33.8845 77.9948 32.6306C79.0403 32.07 80.2359 31.8532 81.4117 32.0109C82.5875 32.1686 83.6837 32.6928 84.5445 33.5091"/>
</mask>
<path d="M76.0126 25.7982C67.875 28.9557 62.4655 35.445 57.9575 41.7826C55.3927 45.325 53.7088 49.4275 53.0453 53.7503C52.7734 56.0607 52.9004 58.4007 53.4208 60.6681C47.6109 62.433 41.4532 62.7254 35.5021 61.5189C30.1075 60.1882 25.1567 57.4651 21.1442 53.6216C17.3776 50.0376 14.222 45.8623 11.8019 41.2607C9.62201 37.1307 7.86481 32.7911 6.55711 28.3079C4.66877 21.6297 3.16132 14.8496 2.04205 8.00039C1.17654 3.11095 0.645066 0.418527 0.377155 0.48417C0.0999154 3.09103 0.163763 5.72291 0.567157 8.31325C1.08262 15.3906 2.15774 22.4161 3.78249 29.3237C5.99368 39.6733 10.9872 49.2234 18.2249 56.9448C22.6093 61.437 28.0985 64.6966 34.1412 66.3962C40.8065 67.9742 47.7613 67.854 54.368 66.0466C54.6841 65.9795 55.0078 65.8448 55.3329 65.7582C55.3868 65.8853 55.4483 66.0091 55.5172 66.1287C59.1623 72.2946 64.358 77.3988 70.5876 80.9339L72.6322 82.3101C73.3746 82.6546 74.0522 83.0877 74.7479 83.4818C76.1679 84.2595 77.5684 85.0281 78.9598 85.8162L83.2191 87.7926C84.5981 88.4612 86.0185 89.0409 87.4714 89.5283C88.913 90.0548 90.3246 90.5436 91.7271 91.052C93.1297 91.5603 94.5552 91.8656 95.9158 92.2595C97.2764 92.6535 98.6852 93.046 100.141 93.3889C101.596 93.7319 102.884 93.9256 104.231 94.1947C113.57 95.9196 123.074 96.586 132.563 96.1813C136.617 96.0919 140.345 95.6843 143.757 95.392C147.17 95.0996 150.277 94.5945 153.096 94.0978C160.591 92.9281 167.978 91.146 175.182 88.7696L175.802 88.5587L174.757 89.736L172.445 92.415L168.104 97.524C165.367 100.813 162.969 103.832 161.001 106.433C157.096 111.626 154.972 115.128 155.531 115.767C156.089 116.406 159.312 113.912 164.001 109.487C166.336 107.27 169.061 104.569 172.007 101.496L176.626 96.6583L179.027 94.0442C180.004 93.0379 180.891 91.9479 181.678 90.7867C182.235 89.9679 182.654 89.0638 182.92 88.11C183.199 87.0169 183.208 85.8725 182.948 84.7749C182.536 83.2569 181.768 81.8589 180.709 80.6965C179.333 78.9843 177.834 77.3757 176.222 75.8838C173.549 73.3615 170.572 71.1823 167.36 69.3969C161.866 66.3965 157.975 65.8259 157.661 66.606C157.346 67.3861 160.396 69.5135 164.87 73.2279C167.467 75.4149 169.921 77.7671 172.216 80.2699C173.106 81.2525 173.994 82.3059 174.881 83.43L174.267 83.525C170.171 84.165 163.498 85.6511 152.554 87.0789C149.837 87.4569 146.839 87.7276 143.543 88.0743C140.248 88.4211 136.688 88.6214 132.815 88.6285C123.821 88.9087 114.824 88.228 105.975 86.5982C104.734 86.3549 103.446 86.1131 102.146 85.8426C100.847 85.5722 99.583 85.1755 98.2914 84.8374C96.9998 84.4993 95.6511 84.1821 94.3463 83.7191L90.4122 82.321C89.0447 81.8714 87.7064 81.3376 86.4049 80.7227L82.4973 78.9094C81.1687 78.2929 79.9126 77.5201 78.6098 76.7968L76.7194 75.7534L74.9016 74.5537C73.6337 73.7042 72.3567 72.8741 71.0887 72.0246C69.8887 71.1564 68.7356 70.225 67.6344 69.2344C65.8138 67.6198 64.2115 65.7747 62.8678 63.7458C66.8062 62.3203 70.6984 60.6359 74.6178 58.8928C78.1437 57.3313 81.4617 55.3375 84.4956 52.9573C86.1648 51.6013 87.6453 50.0284 88.8979 48.2803C90.2316 46.4034 91.2089 44.2974 91.781 42.0672C92.3918 39.8194 92.5525 37.4732 92.254 35.1631C91.9315 32.7361 90.8844 30.4627 89.2496 28.6401C87.5963 26.879 85.4078 25.7131 83.0239 25.3237C80.7329 25.0124 78.4003 25.2861 76.2436 26.1191L76.0126 25.7982ZM84.6617 33.5635C85.4514 34.5696 85.9777 35.7567 86.1929 37.0175C86.4081 38.2783 86.3053 39.5728 85.894 40.7839C85.5184 42.1808 84.905 43.5027 84.0808 44.6915C83.1801 45.9613 82.1263 47.1152 80.9432 48.127C78.3334 50.2257 75.467 51.9835 72.4133 53.3582C68.4422 55.3148 64.4761 57.1074 60.4819 58.602C60.1722 57.2302 60.0822 55.8179 60.2152 54.4179C60.6976 51.3819 61.8804 48.5 63.67 46.0005C64.6025 44.6049 65.6599 43.196 66.7851 41.7947C67.8332 40.4583 68.968 39.1922 70.1822 38.0047C72.403 35.7114 75.0591 33.8845 77.9948 32.6306C79.0403 32.07 80.2359 31.8532 81.4117 32.0109C82.5875 32.1686 83.6837 32.6928 84.5445 33.5091" fill="#009DB5"/>
<path d="M76.0126 25.7982L76.8241 25.214L76.3721 24.5861L75.6508 24.8659L76.0126 25.7982ZM57.9575 41.7826L58.7675 42.3691L58.7724 42.3623L57.9575 41.7826ZM53.0453 53.7503L52.0569 53.5986L52.0543 53.6159L52.0522 53.6334L53.0453 53.7503ZM53.4208 60.6681L53.7115 61.6249L54.6042 61.3537L54.3955 60.4444L53.4208 60.6681ZM35.5021 61.5189L35.2626 62.4898L35.2829 62.4948L35.3034 62.499L35.5021 61.5189ZM21.1442 53.6216L21.8359 52.8995L21.8335 52.8972L21.1442 53.6216ZM11.8019 41.2607L12.6869 40.7952L12.6862 40.7939L11.8019 41.2607ZM6.55711 28.3079L5.59481 28.58L5.59712 28.588L6.55711 28.3079ZM2.04205 8.00039L3.02905 7.8391L3.02674 7.82608L2.04205 8.00039ZM0.377155 0.48417L0.13918 -0.487104L-0.542963 -0.319968L-0.617237 0.378414L0.377155 0.48417ZM0.567157 8.31325L1.56452 8.24061L1.56154 8.1998L1.55525 8.15937L0.567157 8.31325ZM3.78249 29.3237L4.76042 29.1148L4.75828 29.1047L4.75593 29.0947L3.78249 29.3237ZM18.2249 56.9448L17.4953 57.6287L17.5022 57.636L17.5092 57.6433L18.2249 56.9448ZM34.1412 66.3962L33.8705 67.3589L33.8905 67.3645L33.9108 67.3693L34.1412 66.3962ZM54.368 66.0466L54.1605 65.0683L54.1321 65.0744L54.1042 65.082L54.368 66.0466ZM55.3329 65.7582L56.2537 65.3681L55.9148 64.5684L55.0756 64.7919L55.3329 65.7582ZM55.5172 66.1287L54.6505 66.6277L54.6563 66.6376L55.5172 66.1287ZM70.5876 80.9339L71.1459 80.1043L71.1143 80.083L71.0811 80.0642L70.5876 80.9339ZM72.6322 82.3101L72.0738 83.1397L72.1394 83.1839L72.2112 83.2172L72.6322 82.3101ZM74.7479 83.4818L74.255 84.3519L74.2613 84.3554L74.2676 84.3589L74.7479 83.4818ZM78.9598 85.8162L78.467 86.6863L78.5022 86.7063L78.5389 86.7233L78.9598 85.8162ZM83.2191 87.7926L83.6554 86.8928L83.6477 86.8891L83.6401 86.8855L83.2191 87.7926ZM87.4714 89.5283L87.8145 88.589L87.802 88.5845L87.7895 88.5803L87.4714 89.5283ZM104.231 94.1947L104.035 95.1753L104.042 95.1767L104.049 95.178L104.231 94.1947ZM132.563 96.1813L132.541 95.1816L132.531 95.1818L132.52 95.1823L132.563 96.1813ZM153.096 94.0978L152.942 93.1098L152.932 93.1113L152.922 93.113L153.096 94.0978ZM175.182 88.7696L175.495 89.7193L175.504 89.7163L175.182 88.7696ZM175.802 88.5587L176.55 89.2225L179.059 86.3949L175.48 87.6119L175.802 88.5587ZM174.757 89.736L174.009 89.0721L174 89.0827L174.757 89.736ZM172.445 92.415L171.688 91.7617L171.683 91.7675L172.445 92.415ZM168.104 97.524L167.342 96.8764L167.335 96.8843L168.104 97.524ZM161.001 106.433L160.204 105.83L160.202 105.832L161.001 106.433ZM164.001 109.487L164.687 110.215L164.689 110.212L164.001 109.487ZM172.007 101.496L172.729 102.188L172.73 102.187L172.007 101.496ZM176.626 96.6583L177.349 97.3489L177.356 97.3419L177.363 97.3347L176.626 96.6583ZM179.027 94.0442L178.309 93.3476L178.299 93.3576L178.29 93.3679L179.027 94.0442ZM181.678 90.7867L180.851 90.2244L180.85 90.2257L181.678 90.7867ZM182.92 88.11L183.883 88.3784L183.886 88.3678L183.889 88.3571L182.92 88.11ZM182.948 84.7749L183.921 84.544L183.917 84.5284L183.913 84.5129L182.948 84.7749ZM180.709 80.6965L179.929 81.3227L179.949 81.347L179.97 81.3701L180.709 80.6965ZM176.222 75.8838L175.536 76.6112L175.543 76.6177L176.222 75.8838ZM167.36 69.3969L167.845 68.5228L167.839 68.5193L167.36 69.3969ZM164.87 73.2279L165.514 72.463L165.508 72.4586L164.87 73.2279ZM172.216 80.2699L172.957 79.5987L172.953 79.594L172.216 80.2699ZM174.881 83.43L175.034 84.4182L176.728 84.156L175.666 82.8104L174.881 83.43ZM174.267 83.525L174.114 82.5368L174.113 82.537L174.267 83.525ZM152.554 87.0789L152.424 86.0872L152.416 86.0884L152.554 87.0789ZM132.815 88.6285L132.813 87.6285L132.798 87.6285L132.784 87.629L132.815 88.6285ZM105.975 86.5982L105.783 87.5796L105.794 87.5816L105.975 86.5982ZM94.3463 83.7191L94.0114 84.6613L94.0118 84.6615L94.3463 83.7191ZM90.4122 82.321L90.7471 81.3787L90.7358 81.3748L90.7245 81.371L90.4122 82.321ZM86.4049 80.7227L86.8321 79.8185L86.8258 79.8156L86.4049 80.7227ZM78.6098 76.7968L79.0952 75.9225L79.093 75.9213L78.6098 76.7968ZM76.7194 75.7534L76.1686 76.588L76.2016 76.6098L76.2362 76.6289L76.7194 75.7534ZM74.9016 74.5537L74.345 75.3845L74.3508 75.3884L74.9016 74.5537ZM71.0887 72.0246L70.5026 72.8348L70.5172 72.8453L70.5321 72.8553L71.0887 72.0246ZM67.6344 69.2344L68.3033 68.491L68.298 68.4863L67.6344 69.2344ZM62.8678 63.7458L62.5275 62.8055L61.3323 63.2382L62.0341 64.298L62.8678 63.7458ZM74.6178 58.8928L74.2129 57.9785L74.2115 57.9791L74.6178 58.8928ZM84.4956 52.9573L85.1129 53.744L85.1195 53.7388L85.1261 53.7334L84.4956 52.9573ZM88.8979 48.2803L89.7108 48.8627L89.7131 48.8595L88.8979 48.2803ZM91.781 42.0672L90.816 41.8049L90.8141 41.8118L90.8123 41.8187L91.781 42.0672ZM92.254 35.1631L93.2457 35.035L93.2453 35.0314L92.254 35.1631ZM89.2496 28.6401L89.994 27.9724L89.9864 27.9639L89.9787 27.9556L89.2496 28.6401ZM83.0239 25.3237L83.1851 24.3368L83.1718 24.3346L83.1585 24.3328L83.0239 25.3237ZM76.2436 26.1191L75.432 26.7034L75.8833 27.3303L76.6039 27.052L76.2436 26.1191ZM85.894 40.7839L84.9471 40.4623L84.9367 40.4929L84.9283 40.5242L85.894 40.7839ZM84.0808 44.6915L84.8965 45.27L84.9026 45.2613L84.0808 44.6915ZM80.9432 48.127L81.5698 48.9063L81.5816 48.8968L81.5931 48.887L80.9432 48.127ZM72.4133 53.3582L72.0028 52.4463L71.9869 52.4535L71.9713 52.4612L72.4133 53.3582ZM60.4819 58.602L59.5065 58.8223L59.7589 59.9403L60.8324 59.5386L60.4819 58.602ZM60.2152 54.4179L59.2276 54.261L59.2227 54.292L59.2197 54.3233L60.2152 54.4179ZM63.67 46.0005L64.483 46.5827L64.4924 46.5696L64.5014 46.5561L63.67 46.0005ZM66.7851 41.7947L67.5649 42.4208L67.5719 42.4118L66.7851 41.7947ZM70.1822 38.0047L70.8814 38.7196L70.8911 38.7101L70.9005 38.7003L70.1822 38.0047ZM77.9948 32.6306L78.3876 33.5503L78.4283 33.5329L78.4674 33.5119L77.9948 32.6306ZM75.6508 24.8659C67.2209 28.1369 61.6673 34.842 57.1426 41.203L58.7724 42.3623C63.2638 36.048 68.5291 29.7746 76.3743 26.7305L75.6508 24.8659ZM57.1475 41.1962C54.4895 44.8672 52.7445 49.1187 52.0569 53.5986L54.0338 53.902C54.6731 49.7362 56.2958 45.7827 58.7675 42.3691L57.1475 41.1962ZM52.0522 53.6334C51.7669 56.0576 51.9001 58.5127 52.4461 60.8918L54.3955 60.4444C53.9007 58.2886 53.7799 56.0638 54.0385 53.8672L52.0522 53.6334ZM53.1301 59.7113C47.4789 61.428 41.4893 61.7124 35.7008 60.5389L35.3034 62.499C41.417 63.7384 47.7428 63.4381 53.7115 61.6249L53.1301 59.7113ZM35.7416 60.548C30.5169 59.2593 25.722 56.6219 21.8359 52.8995L20.4524 54.3438C24.5913 58.3083 29.6981 61.1172 35.2626 62.4898L35.7416 60.548ZM21.8335 52.8972C18.1459 49.3883 15.0563 45.3004 12.6869 40.7952L10.9168 41.7262C13.3876 46.4242 16.6094 50.687 20.4548 54.3461L21.8335 52.8972ZM12.6862 40.7939C10.5378 36.7235 8.80595 32.4464 7.51711 28.0279L5.59712 28.588C6.92368 33.1357 8.70621 37.5379 10.9175 41.7275L12.6862 40.7939ZM7.51938 28.0358C5.64135 21.394 4.14212 14.651 3.02896 7.83912L1.05514 8.16167C2.18052 15.0483 3.6962 21.8653 5.59484 28.58L7.51938 28.0358ZM3.02674 7.82608C2.59431 5.38316 2.2421 3.47039 1.96313 2.17379C1.82479 1.53079 1.69814 1.00898 1.5821 0.641896C1.52693 0.467355 1.45773 0.273664 1.36838 0.109562C1.32729 0.0341039 1.24513 -0.105367 1.1074 -0.232028C0.971212 -0.357269 0.620683 -0.605079 0.13918 -0.487104L0.615131 1.45544C0.167117 1.56521 -0.147863 1.33074 -0.246408 1.24012C-0.302298 1.18872 -0.337559 1.14261 -0.355105 1.11797C-0.373831 1.09166 -0.384524 1.07258 -0.388148 1.06592C-0.39377 1.05559 -0.370735 1.09968 -0.324885 1.24472C-0.238879 1.5168 -0.128332 1.96138 0.00787541 2.59446C0.278007 3.85002 0.624288 5.72818 1.05736 8.17469L3.02674 7.82608ZM-0.617237 0.378414C-0.903669 3.07171 -0.837706 5.79088 -0.420932 8.46712L1.55525 8.15937C1.16523 5.65495 1.1035 3.11034 1.37155 0.589922L-0.617237 0.378414ZM-0.430201 8.38589C0.0890934 15.5159 1.17222 22.5936 2.80906 29.5527L4.75593 29.0947C3.14327 22.2385 2.07614 15.2653 1.56452 8.24061L-0.430201 8.38589ZM2.80456 29.5326C5.05377 40.0602 10.1331 49.7745 17.4953 57.6287L18.9545 56.2609C11.8412 48.6723 6.93359 39.2864 4.76042 29.1148L2.80456 29.5326ZM17.5092 57.6433C22.0162 62.261 27.6588 65.6118 33.8705 67.3589L34.412 65.4336C28.5382 63.7815 23.2024 60.613 18.9405 56.2463L17.5092 57.6433ZM33.9108 67.3693C40.739 68.9859 47.8637 68.8627 54.6319 67.0111L54.1042 65.082C47.6588 66.8452 40.874 66.9626 34.3716 65.4231L33.9108 67.3693ZM54.5756 67.0248C54.7917 66.9789 54.9972 66.9129 55.159 66.8598C55.3367 66.8015 55.4629 66.7585 55.5903 66.7245L55.0756 64.7919C54.8779 64.8445 54.6796 64.9122 54.5351 64.9596C54.3748 65.0123 54.2604 65.0472 54.1605 65.0683L54.5756 67.0248ZM54.4122 66.1483C54.4817 66.3126 54.5613 66.4727 54.6505 66.6277L56.3838 65.6297C56.3353 65.5455 56.2918 65.4581 56.2537 65.3681L54.4122 66.1483ZM54.6563 66.6376C58.3903 72.9537 63.7126 78.1823 70.094 81.8036L71.0811 80.0642C65.0033 76.6152 59.9343 71.6354 56.378 65.6198L54.6563 66.6376ZM70.0292 81.7635L72.0738 83.1397L73.1905 81.4805L71.1459 80.1043L70.0292 81.7635ZM72.2112 83.2172C72.9053 83.5393 73.4977 83.9229 74.255 84.3519L75.2407 82.6117C74.6067 82.2525 73.8439 81.77 73.0531 81.403L72.2112 83.2172ZM74.2676 84.3589C75.6879 85.1367 77.0826 85.9021 78.467 86.6863L79.4527 84.9461C78.0543 84.154 76.648 83.3822 75.2282 82.6047L74.2676 84.3589ZM78.5389 86.7233L82.7982 88.6997L83.6401 86.8855L79.3808 84.9091L78.5389 86.7233ZM82.7829 88.6924C84.2002 89.3796 85.66 89.9755 87.1534 90.4764L87.7895 88.5803C86.3769 88.1064 84.996 87.5428 83.6554 86.8928L82.7829 88.6924ZM87.1284 90.4677C88.5496 90.9867 90.0236 91.4982 91.3864 91.9921L92.0679 90.1118C90.6256 89.5891 89.2764 89.1229 87.8145 88.589L87.1284 90.4677ZM91.3864 91.9921C92.8237 92.513 94.3736 92.8541 95.6377 93.2201L96.1939 91.299C94.7367 90.8771 93.4357 90.6076 92.0679 90.1118L91.3864 91.9921ZM95.6377 93.2201C97.0039 93.6156 98.4315 94.0136 99.9114 94.3623L100.37 92.4156C98.939 92.0784 97.549 91.6913 96.1939 91.299L95.6377 93.2201ZM99.9114 94.3623C101.382 94.7089 102.752 94.919 104.035 95.1753L104.427 93.214C103.015 92.9322 101.81 92.7549 100.37 92.4156L99.9114 94.3623ZM104.049 95.178C113.463 96.9166 123.042 97.5883 132.606 97.1804L132.52 95.1823C123.107 95.5837 113.678 94.9226 104.413 93.2113L104.049 95.178ZM132.585 97.1811C136.681 97.0907 140.458 96.6783 143.842 96.3883L143.672 94.3956C140.231 94.6904 136.554 95.093 132.541 95.1816L132.585 97.1811ZM143.842 96.3883C147.3 96.0921 150.442 95.5808 153.269 95.0827L152.922 93.113C150.112 93.6082 147.039 94.1071 143.672 94.3956L143.842 96.3883ZM153.25 95.0859C160.799 93.9077 168.239 92.1128 175.495 89.7192L174.868 87.8199C167.716 90.1793 160.383 91.9485 152.942 93.1098L153.25 95.0859ZM175.504 89.7163L176.124 89.5055L175.48 87.6119L174.86 87.8228L175.504 89.7163ZM175.054 87.8949L174.009 89.0722L175.505 90.3998L176.55 89.2225L175.054 87.8949ZM174 89.0827L171.688 91.7618L173.202 93.0683L175.514 90.3893L174 89.0827ZM171.683 91.7675L167.342 96.8764L168.866 98.1715L173.207 93.0626L171.683 91.7675ZM167.335 96.8843C164.59 100.183 162.182 103.214 160.204 105.83L161.799 107.036C163.755 104.449 166.144 101.443 168.872 98.1637L167.335 96.8843ZM160.202 105.832C158.242 108.439 156.709 110.647 155.731 112.299C155.246 113.119 154.874 113.841 154.661 114.427C154.555 114.717 154.47 115.025 154.448 115.322C154.428 115.599 154.45 116.05 154.777 116.425L156.284 115.109C156.472 115.324 156.438 115.527 156.442 115.469C156.445 115.432 156.464 115.321 156.54 115.111C156.69 114.699 156.989 114.102 157.453 113.317C158.374 111.76 159.856 109.621 161.801 107.034L160.202 105.832ZM154.777 116.425C155.148 116.849 155.651 116.89 155.966 116.857C156.279 116.824 156.587 116.709 156.855 116.583C157.404 116.326 158.071 115.886 158.817 115.326C160.324 114.195 162.334 112.435 164.687 110.215L163.315 108.76C160.978 110.965 159.033 112.664 157.616 113.726C156.901 114.263 156.365 114.604 156.005 114.773C155.819 114.86 155.747 114.869 155.759 114.868C155.772 114.866 156.052 114.845 156.284 115.109L154.777 116.425ZM164.689 110.212C167.036 107.984 169.773 105.272 172.729 102.188L171.285 100.804C168.35 103.866 165.635 106.556 163.312 108.762L164.689 110.212ZM172.73 102.187L177.349 97.3489L175.903 95.9677L171.284 100.805L172.73 102.187ZM177.363 97.3347L179.763 94.7206L178.29 93.3679L175.89 95.982L177.363 97.3347ZM179.744 94.7409C180.762 93.6927 181.686 92.5572 182.506 91.3477L180.85 90.2257C180.096 91.3385 179.246 92.3831 178.309 93.3476L179.744 94.7409ZM182.505 91.3489C183.123 90.4403 183.588 89.4369 183.883 88.3784L181.957 87.8415C181.72 88.6906 181.347 89.4955 180.851 90.2244L182.505 91.3489ZM183.889 88.3571C184.208 87.1073 184.219 85.7989 183.921 84.544L181.975 85.0057C182.198 85.946 182.19 86.9264 181.951 87.8629L183.889 88.3571ZM183.913 84.5129C183.459 82.8417 182.614 81.3026 181.448 80.0228L179.97 81.3701C180.922 82.4152 181.612 83.6721 181.983 85.0369L183.913 84.5129ZM181.488 80.0702C180.082 78.3197 178.549 76.6752 176.901 75.15L175.543 76.6177C177.118 78.0762 178.584 79.6488 179.929 81.3227L181.488 80.0702ZM176.908 75.1565C174.175 72.5771 171.13 70.3487 167.845 68.5228L166.874 70.271C170.013 72.016 172.923 74.1458 175.536 76.6111L176.908 75.1565ZM167.839 68.5193C165.034 66.9875 162.608 66.0581 160.808 65.613C159.916 65.3923 159.134 65.2796 158.517 65.2912C158.213 65.297 157.893 65.3335 157.603 65.4384C157.322 65.5397 156.923 65.7621 156.733 66.2321L158.588 66.9799C158.534 67.1133 158.453 67.2027 158.388 67.2547C158.328 67.3031 158.284 67.3188 158.282 67.3194C158.279 67.3205 158.299 67.3134 158.349 67.3059C158.398 67.2987 158.466 67.2926 158.555 67.2909C158.928 67.2838 159.522 67.3551 160.328 67.5545C161.926 67.9498 164.191 68.8059 166.88 70.2746L167.839 68.5193ZM156.733 66.2321C156.551 66.6844 156.667 67.1058 156.782 67.367C156.9 67.6339 157.081 67.88 157.263 68.0945C157.631 68.5281 158.176 69.0277 158.821 69.5775C160.094 70.6636 162.046 72.1831 164.231 73.9973L165.508 72.4586C163.22 70.5584 161.41 69.1569 160.118 68.0558C159.481 67.5118 159.043 67.1012 158.788 66.8005C158.727 66.7289 158.683 66.6712 158.653 66.6266C158.638 66.6047 158.628 66.5877 158.621 66.5753C158.614 66.5629 158.611 66.557 158.611 66.5573C158.611 66.5576 158.615 66.5665 158.62 66.5834C158.625 66.6004 158.632 66.6281 158.635 66.665C158.643 66.7426 158.638 66.8557 158.588 66.9799L156.733 66.2321ZM164.225 73.9929C166.79 76.1522 169.213 78.4747 171.479 80.9457L172.953 79.594C170.629 77.0596 168.144 74.6777 165.514 72.463L164.225 73.9929ZM171.475 80.941C172.348 81.9057 173.222 82.9417 174.096 84.0496L175.666 82.8104C174.766 81.6701 173.863 80.5994 172.957 79.5988L171.475 80.941ZM174.728 82.4417L174.114 82.5368L174.42 84.5132L175.034 84.4182L174.728 82.4417ZM174.113 82.537C169.923 83.1916 163.374 84.6588 152.424 86.0873L152.683 88.0705C163.621 86.6435 170.419 85.1384 174.422 84.513L174.113 82.537ZM152.416 86.0884C149.722 86.4634 146.756 86.7308 143.439 87.0798L143.648 89.0688C146.922 88.7243 149.953 88.4504 152.691 88.0693L152.416 86.0884ZM143.439 87.0798C140.178 87.4229 136.653 87.6215 132.813 87.6285L132.817 89.6285C136.724 89.6214 140.318 89.4193 143.648 89.0688L143.439 87.0798ZM132.784 87.629C123.861 87.907 114.935 87.2317 106.156 85.6147L105.794 87.5816C114.713 89.2244 123.781 89.9104 132.846 89.628L132.784 87.629ZM106.167 85.6169C104.916 85.3715 103.642 85.1325 102.35 84.8636L101.943 86.8217C103.249 87.0937 104.553 87.3384 105.783 87.5795L106.167 85.6169ZM102.35 84.8636C101.081 84.5994 99.9012 84.2251 98.5447 83.87L98.0381 85.8048C99.2647 86.1259 100.614 86.545 101.943 86.8217L102.35 84.8636ZM98.5447 83.87C97.2197 83.5231 95.9332 83.2211 94.6807 82.7766L94.0118 84.6615C95.3689 85.143 96.78 85.4754 98.0381 85.8048L98.5447 83.87ZM94.6811 82.7768L90.7471 81.3787L90.0774 83.2633L94.0114 84.6613L94.6811 82.7768ZM90.7245 81.371C89.3963 80.9343 88.0963 80.4158 86.8321 79.8185L85.9777 81.6268C87.3165 82.2594 88.6932 82.8085 90.0999 83.271L90.7245 81.371ZM86.8258 79.8156L82.9182 78.0023L82.0763 79.8165L85.984 81.6298L86.8258 79.8156ZM82.9182 78.0023C81.633 77.406 80.4508 76.6751 79.0952 75.9225L78.1244 77.6711C79.3744 78.365 80.7043 79.1799 82.0763 79.8165L82.9182 78.0023ZM79.093 75.9213L77.2027 74.8779L76.2362 76.6289L78.1265 77.6723L79.093 75.9213ZM77.2703 74.9188L75.4524 73.7191L74.3508 75.3884L76.1686 76.588L77.2703 74.9188ZM75.4583 73.723C74.8209 73.2959 74.1818 72.8741 73.546 72.4545C72.9093 72.0343 72.276 71.6163 71.6454 71.1938L70.5321 72.8553C71.1695 73.2824 71.8086 73.7042 72.4444 74.1238C73.0811 74.544 73.7144 74.962 74.345 75.3845L75.4583 73.723ZM71.6749 71.2144C70.5035 70.367 69.3781 69.4579 68.3032 68.491L66.9656 69.9779C68.0932 70.9922 69.2738 71.9458 70.5026 72.8348L71.6749 71.2144ZM68.298 68.4863C66.5424 66.9293 64.9972 65.1501 63.7016 63.1937L62.0341 64.298C63.4257 66.3993 65.0853 68.3103 66.9709 69.9826L68.298 68.4863ZM63.2082 64.6861C67.1822 63.2477 71.1018 61.5509 75.0242 59.8065L74.2115 57.9791C70.295 59.7208 66.4302 61.3929 62.5275 62.8055L63.2082 64.6861ZM75.0228 59.8072C78.6244 58.2121 82.0138 56.1754 85.1129 53.744L83.8784 52.1705C80.9097 54.4996 77.6629 56.4505 74.2129 57.9785L75.0228 59.8072ZM85.1261 53.7334C86.8644 52.3213 88.4063 50.6832 89.7108 48.8627L88.0851 47.6978C86.8843 49.3735 85.4651 50.8813 83.8651 52.1811L85.1261 53.7334ZM89.7131 48.8595C91.1178 46.8828 92.1471 44.6646 92.7496 42.3156L90.8123 41.8187C90.2707 43.9302 89.3455 45.9241 88.0828 47.701L89.7131 48.8595ZM92.746 42.3294C93.3913 39.9546 93.5612 37.4756 93.2457 35.035L91.2622 35.2913C91.5439 37.4707 91.3923 39.6843 90.816 41.8049L92.746 42.3294ZM93.2453 35.0314C92.8963 32.4049 91.7632 29.9447 89.994 27.9724L88.5052 29.3078C90.0057 30.9806 90.9667 33.0672 91.2627 35.2948L93.2453 35.0314ZM89.9787 27.9556C88.1746 26.0339 85.7865 24.7617 83.1851 24.3368L82.8627 26.3106C85.0291 26.6645 87.0181 27.724 88.5205 29.3245L89.9787 27.9556ZM83.1585 24.3328C80.7003 23.9988 78.1975 24.2924 75.8833 25.1863L76.6039 27.052C78.6032 26.2797 80.7655 26.026 82.8892 26.3146L83.1585 24.3328ZM77.0551 25.5349L76.8241 25.214L75.201 26.3825L75.432 26.7034L77.0551 25.5349ZM83.8751 34.1809C84.5621 35.0561 85.0199 36.0889 85.2071 37.1858L87.1786 36.8493C86.9355 35.4245 86.3407 34.083 85.4484 32.946L83.8751 34.1809ZM85.2071 37.1858C85.3943 38.2826 85.305 39.4087 84.9471 40.4623L86.8409 41.1054C87.3057 39.7369 87.4218 38.274 87.1786 36.8493L85.2071 37.1858ZM84.9283 40.5242C84.5825 41.8103 84.0178 43.0272 83.259 44.1217L84.9026 45.2613C85.7922 43.9781 86.4543 42.5514 86.8597 41.0435L84.9283 40.5242ZM83.2651 44.113C82.412 45.3157 81.4139 46.4087 80.2932 47.367L81.5931 48.887C82.8388 47.8217 83.9482 46.6069 84.8965 45.27L83.2651 44.113ZM80.3165 47.3477C77.7729 49.3932 74.9792 51.1065 72.0028 52.4463L72.8237 54.2701C75.9549 52.8605 78.8939 51.0581 81.5698 48.9063L80.3165 47.3477ZM71.9713 52.4612C68.0187 54.4087 64.0845 56.1862 60.1315 57.6655L60.8324 59.5386C64.8677 58.0285 68.8658 56.2209 72.8552 54.2552L71.9713 52.4612ZM61.4574 58.3818C61.171 57.1132 61.0877 55.8072 61.2108 54.5125L59.2197 54.3233C59.0767 55.8287 59.1735 57.3472 59.5065 58.8223L61.4574 58.3818ZM61.2029 54.5748C61.6608 51.6922 62.7839 48.9559 64.483 46.5827L62.8569 45.4184C60.9769 48.0441 59.7343 51.0716 59.2276 54.261L61.2029 54.5748ZM64.5014 46.5561C65.4134 45.1912 66.4523 43.8064 67.5648 42.4208L66.0053 41.1686C64.8676 42.5856 63.7916 44.0186 62.8385 45.445L64.5014 46.5561ZM67.5719 42.4118C68.593 41.1099 69.6986 39.8765 70.8814 38.7196L69.4829 37.2898C68.2375 38.508 67.0734 39.8067 65.9982 41.1776L67.5719 42.4118ZM70.9005 38.7003C73.0288 36.5027 75.5742 34.7518 78.3876 33.5503L77.6021 31.711C74.544 33.0171 71.7772 34.9202 69.4638 37.309L70.9005 38.7003ZM78.4674 33.5119C79.3276 33.0507 80.3114 32.8722 81.2788 33.002L81.5446 31.0197C80.1605 30.8341 78.753 31.0894 77.5223 31.7493L78.4674 33.5119ZM81.2788 33.002C82.2462 33.1317 83.1481 33.5631 83.8564 34.2347L85.2326 32.7834C84.2192 31.8225 82.9288 31.2054 81.5446 31.0197L81.2788 33.002Z" fill="#009DB5" mask="url(#path-1-inside-1_2008_1191)"/>
</svg>
