<svg width="17" height="16" viewBox="0 0 17 16" fill="none" xmlns="http://www.w3.org/2000/svg">
<path d="M8.62241 2.66669C9.3588 2.66669 9.95576 2.06973 9.95576 1.33334C9.95576 0.596958 9.3588 0 8.62241 0C7.88602 0 7.28906 0.596958 7.28906 1.33334C7.28906 2.06973 7.88602 2.66669 8.62241 2.66669Z" fill="#141413"/>
<path d="M8.62241 9.3332C9.3588 9.3332 9.95576 8.73624 9.95576 7.99985C9.95576 7.26346 9.3588 6.6665 8.62241 6.6665C7.88602 6.6665 7.28906 7.26346 7.28906 7.99985C7.28906 8.73624 7.88602 9.3332 8.62241 9.3332Z" fill="#141413"/>
<path d="M8.62241 16.0002C9.3588 16.0002 9.95576 15.4032 9.95576 14.6669C9.95576 13.9305 9.3588 13.3335 8.62241 13.3335C7.88602 13.3335 7.28906 13.9305 7.28906 14.6669C7.28906 15.4032 7.88602 16.0002 8.62241 16.0002Z" fill="#141413"/>
</svg>
