<svg width="21" height="19" viewBox="0 0 21 19" fill="none" xmlns="http://www.w3.org/2000/svg">
<path fill-rule="evenodd" clip-rule="evenodd" d="M19.1001 5.754C19.0451 5.75 18.9841 5.75 18.9201 5.75H16.3951C14.3271 5.75 12.5581 7.378 12.5581 9.5C12.5581 11.622 14.3281 13.25 16.3951 13.25H18.9201C18.9841 13.25 19.0451 13.25 19.1021 13.246C19.5271 13.2204 19.9283 13.0411 20.231 12.7416C20.5336 12.4421 20.7171 12.0427 20.7471 11.618C20.7511 11.558 20.7511 11.493 20.7511 11.433V7.567C20.7511 7.507 20.7511 7.442 20.7471 7.382C20.7171 6.95726 20.5336 6.55793 20.231 6.25842C19.9283 5.9589 19.5271 5.77963 19.1021 5.754M16.1741 10.5C16.7061 10.5 17.1371 10.052 17.1371 9.5C17.1371 8.948 16.7061 8.5 16.1741 8.5C15.6411 8.5 15.2101 8.948 15.2101 9.5C15.2101 10.052 15.6411 10.5 16.1741 10.5Z" fill="white"/>
<path fill-rule="evenodd" clip-rule="evenodd" d="M18.918 14.75C18.9526 14.7486 18.987 14.7554 19.0184 14.7698C19.0499 14.7842 19.0775 14.8058 19.099 14.8329C19.1206 14.86 19.1354 14.8918 19.1424 14.9257C19.1493 14.9596 19.1481 14.9946 19.139 15.028C18.939 15.74 18.62 16.348 18.109 16.858C17.36 17.608 16.411 17.939 15.239 18.097C14.099 18.25 12.644 18.25 10.806 18.25H8.694C6.856 18.25 5.4 18.25 4.261 18.097C3.089 17.939 2.14 17.607 1.391 16.859C0.643 16.11 0.311 15.161 0.153 13.989C1.19209e-07 12.849 0 11.394 0 9.556V9.444C0 7.606 1.19209e-07 6.15 0.153 5.01C0.311 3.838 0.643 2.889 1.391 2.14C2.14 1.392 3.089 1.06 4.261 0.902C5.401 0.75 6.856 0.75 8.694 0.75H10.806C12.644 0.75 14.1 0.75 15.239 0.903C16.411 1.061 17.36 1.393 18.109 2.141C18.62 2.653 18.939 3.26 19.139 3.972C19.1481 4.00537 19.1493 4.04042 19.1424 4.07432C19.1354 4.10822 19.1206 4.14 19.099 4.16708C19.0775 4.19417 19.0499 4.21579 19.0184 4.2302C18.987 4.2446 18.9526 4.25139 18.918 4.25H16.394C13.557 4.25 11.057 6.49 11.057 9.5C11.057 12.51 13.557 14.75 16.394 14.75H18.918ZM3.75 4.75C3.55109 4.75 3.36032 4.82902 3.21967 4.96967C3.07902 5.11032 3 5.30109 3 5.5C3 5.69891 3.07902 5.88968 3.21967 6.03033C3.36032 6.17098 3.55109 6.25 3.75 6.25H7.75C7.94891 6.25 8.13968 6.17098 8.28033 6.03033C8.42098 5.88968 8.5 5.69891 8.5 5.5C8.5 5.30109 8.42098 5.11032 8.28033 4.96967C8.13968 4.82902 7.94891 4.75 7.75 4.75H3.75Z" fill="white"/>
</svg>
