<svg width="30" height="33" viewBox="0 0 30 33" fill="none" xmlns="http://www.w3.org/2000/svg">
<path d="M0.0546311 16.969L1.10291 22.0793L2.15118 27.1897C2.15118 27.3207 2.87187 30.4655 2.87187 30.4C2.93739 30.5965 3.00291 30.8586 3.06842 31.1207C3.39601 31.8414 4.1167 32.3 4.90291 32.3C5.16498 32.3 5.36153 32.3 5.55808 32.3C6.08222 32.3 9.68567 32.169 9.48911 32.169C11.2581 32.1034 12.9615 32.0379 14.7305 31.9724C12.9615 31.9069 11.2581 31.8414 9.48911 31.7759C9.35808 31.7759 5.36153 31.6448 5.55808 31.6448C5.36153 31.6448 5.09946 31.6448 4.90291 31.6448C4.31325 31.5793 3.85463 31.2517 3.65808 30.7931C3.52705 30.531 3.46153 30.0069 3.39601 29.6138L3.00291 26.9931L2.08567 21.8828L1.16842 16.7724C1.03739 16.1828 1.43049 15.5276 2.02015 15.3966C2.15118 15.331 2.28222 15.331 2.47877 15.331C2.54429 15.331 4.5098 15.331 4.44429 15.331L14.8615 15.3966L25.2788 15.331H26.5891H27.2443C27.3753 15.331 27.5064 15.3966 27.6374 15.3966C27.8995 15.5276 28.1615 15.7241 28.2926 15.9862C28.4236 16.2483 28.4891 16.5103 28.3581 16.9034L27.4408 22.0138L26.5236 27.1241C26.5236 27.2552 25.9339 30.4 25.9339 30.3345C25.9339 30.531 25.8684 30.6621 25.7374 30.8586C25.5408 31.1862 25.2788 31.3828 24.9512 31.5138C24.7546 31.5793 24.6236 31.5793 24.427 31.5793C24.2305 31.5793 19.5788 31.7103 19.8408 31.7103C18.0719 31.7759 16.3684 31.8414 14.5995 31.9069C16.3684 31.9724 18.0719 32.0379 19.8408 32.1034C19.9719 32.1034 23.9684 32.2345 23.7719 32.2345H24.427C24.6891 32.2345 24.9512 32.2345 25.1477 32.169C25.6064 32.0379 26.065 31.7103 26.327 31.2517C26.4581 31.0552 26.5236 30.7931 26.5891 30.531C26.5891 30.4 27.3098 27.1241 27.3098 27.3207L28.3581 22.2103L29.4064 17.1C29.5374 16.6414 29.4719 15.9862 29.2098 15.4621C28.9477 14.9379 28.4891 14.5448 27.965 14.2828C27.8339 14.2172 27.5719 14.1517 27.2443 14.1517H26.5891H25.2788H22.8546C21.8719 13.1034 20.6926 12.1862 19.3822 11.531C20.1684 10.8103 20.8236 9.82759 21.1512 8.77931C21.6098 7.46897 21.6098 6.02759 21.1512 4.65172C20.7581 3.34138 19.9064 2.09655 18.727 1.31034C17.6133 0.458621 16.2374 0 14.796 0C14.0753 0 13.4201 0.131034 12.6995 0.327586C12.0443 0.524138 11.3891 0.851724 10.7995 1.24483C9.68567 2.03103 8.76842 3.21034 8.37532 4.58621C7.9167 5.89655 7.9167 7.33793 8.3098 8.71379C8.63739 9.76207 9.22705 10.7448 10.0133 11.4655C8.63739 12.1207 7.45808 13.0379 6.4098 14.1517H4.18222C4.1167 14.1517 2.08567 14.1517 2.2167 14.1517C2.02015 14.1517 1.62704 14.1517 1.36498 14.2828C0.513252 14.5448 -0.207438 15.7897 0.0546311 16.969ZM11.3891 12.0552C11.4546 12.0552 11.5857 11.9897 11.6512 11.9241C11.8477 11.7276 11.7822 11.4 11.5857 11.2034C10.6684 10.4828 10.0133 9.5 9.68567 8.38621C9.35808 7.27241 9.4236 6.0931 9.8167 4.97931C10.2098 3.93103 10.9305 2.94828 11.8477 2.2931C12.3064 1.96552 12.8305 1.70345 13.3546 1.57241C13.8788 1.44138 14.4684 1.31034 15.0581 1.31034C16.1719 1.31034 17.3512 1.70345 18.2029 2.35862C19.1201 3.01379 19.8408 3.99655 20.1684 5.04483C20.5615 6.0931 20.5615 7.33793 20.2339 8.45172C19.9064 9.56552 19.2512 10.5483 18.3339 11.269C18.2684 11.3345 18.2029 11.4 18.2029 11.4655C18.1374 11.7276 18.2684 11.9897 18.5305 12.0552C19.7753 12.5138 21.0201 13.169 22.0029 14.0862H14.9926H7.9167C8.83394 13.169 10.0788 12.5138 11.3891 12.0552Z" fill="#009DB5"/>
</svg>
